<svg xmlns="http://www.w3.org/2000/svg" xmlns:xlink="http://www.w3.org/1999/xlink" width="222.626" height="81.73" viewBox="0 0 222.626 81.73"><defs><style>.a{fill:#361413;}.b{filter:url(#a);}</style><filter id="a" x="0" y="0" width="222.626" height="81.73" filterUnits="userSpaceOnUse"><feOffset input="SourceAlpha"/><feGaussianBlur stdDeviation="3.5" result="b"/><feFlood flood-color="#fff"/><feComposite operator="in" in2="b"/><feComposite in="SourceGraphic"/></filter></defs><g class="b" transform="matrix(1, 0, 0, 1, 0, 0)"><path class="a" d="M5.059,0V-42.219H11.4a27.774,27.774,0,0,1,6.754.656,10.148,10.148,0,0,1,4.293,2.215,11.493,11.493,0,0,1,2.816,4.02,12.162,12.162,0,0,1,1.066,4.922,9.975,9.975,0,0,1-3.473,7.684,10.2,10.2,0,0,1,5.3,4.02,11.337,11.337,0,0,1,1.969,6.617,11.245,11.245,0,0,1-3.5,8.367A11.488,11.488,0,0,1,21.9-.793,27.515,27.515,0,0,1,14.711,0ZM11.43-24.09h2q3.555,0,5.209-1.572A6.1,6.1,0,0,0,20.289-30.3a5.815,5.815,0,0,0-1.7-4.525,7.066,7.066,0,0,0-4.922-1.545H11.43Zm0,18.1h3.938q4.32,0,6.344-1.7a5.861,5.861,0,0,0,2.133-4.648,5.955,5.955,0,0,0-2.051-4.594q-2-1.832-7.137-1.832H11.43ZM57.749-26.633h6.18V0h-6.18V-2.789A11.8,11.8,0,0,1,49.573.766,11.779,11.779,0,0,1,40.44-3.227,14.847,14.847,0,0,1,36.858-13.4a14.389,14.389,0,0,1,3.582-9.98,11.547,11.547,0,0,1,8.969-3.992,11.325,11.325,0,0,1,8.34,3.828ZM43.147-13.4A9.277,9.277,0,0,0,45.2-7.164,6.717,6.717,0,0,0,50.5-4.73a7.06,7.06,0,0,0,5.523-2.352,9.106,9.106,0,0,0,2.105-6.18,9.106,9.106,0,0,0-2.105-6.18,6.961,6.961,0,0,0-5.469-2.379,6.8,6.8,0,0,0-5.3,2.406A8.87,8.87,0,0,0,43.147-13.4ZM93.541-25.484v8.176a14.991,14.991,0,0,0-3.773-3.527,7.351,7.351,0,0,0-3.855-.984,7.6,7.6,0,0,0-5.77,2.434,8.536,8.536,0,0,0-2.3,6.1A8.729,8.729,0,0,0,80.06-7.137,7.468,7.468,0,0,0,85.775-4.73a7.817,7.817,0,0,0,3.91-.957A15.5,15.5,0,0,0,93.541-9.3v8.121A16.157,16.157,0,0,1,86.049.766,14.336,14.336,0,0,1,75.713-3.227a13.323,13.323,0,0,1-4.156-9.98A13.5,13.5,0,0,1,75.767-23.27a14.247,14.247,0,0,1,10.336-4.1A15.445,15.445,0,0,1,93.541-25.484Zm14.683-20.7V-18.02l8.668-8.613h8.258L113.583-15.449,126,0h-7.984l-8.8-11.238-.984.984V0h-6.152V-46.184Zm29.011,0V0h-6.152V-46.184Zm7.655,32.676a13.234,13.234,0,0,1,4.129-9.816,13.835,13.835,0,0,1,10.063-4.047A13.912,13.912,0,0,1,169.2-23.3a13.559,13.559,0,0,1,4.1,10.008A13.488,13.488,0,0,1,169.17-3.254a14.112,14.112,0,0,1-10.2,4.02,13.534,13.534,0,0,1-10.035-4.1A13.794,13.794,0,0,1,144.889-13.508Zm6.289.109a8.983,8.983,0,0,0,2.133,6.316,7.509,7.509,0,0,0,5.77,2.352,7.5,7.5,0,0,0,5.77-2.324,8.754,8.754,0,0,0,2.16-6.207,8.754,8.754,0,0,0-2.16-6.207,7.509,7.509,0,0,0-5.77-2.352,7.443,7.443,0,0,0-5.715,2.352A8.557,8.557,0,0,0,151.178-13.4ZM206.685-.629q0,1.887-.123,3.322a23.088,23.088,0,0,1-.342,2.529,11.262,11.262,0,0,1-2.57,5.168q-3.609,4.156-9.926,4.156a13.248,13.248,0,0,1-8.777-2.871,11.736,11.736,0,0,1-4.1-8.176h6.18A7,7,0,0,0,188.2,6.535a6.609,6.609,0,0,0,5.578,2.488q6.754,0,6.754-8.285V-2.98A11.489,11.489,0,0,1,192.083.766a11.347,11.347,0,0,1-8.914-3.937,14.592,14.592,0,0,1-3.5-9.98,15.364,15.364,0,0,1,3.254-9.9,11.308,11.308,0,0,1,9.242-4.32,10.734,10.734,0,0,1,8.367,3.746v-3.008h6.152Zm-5.906-12.633a8.966,8.966,0,0,0-2.078-6.207,6.871,6.871,0,0,0-5.387-2.379,6.623,6.623,0,0,0-5.523,2.6,9.429,9.429,0,0,0-1.832,6.016,9.339,9.339,0,0,0,1.832,5.961,6.631,6.631,0,0,0,5.523,2.543,6.755,6.755,0,0,0,5.578-2.57A9.155,9.155,0,0,0,200.779-13.262Z" transform="translate(5.44 56.68)"/></g></svg>