<svg xmlns="http://www.w3.org/2000/svg" width="60.241" height="19" viewBox="0 0 60.241 19"><defs><style>.a{fill:#fff;}</style></defs><path class="a" d="M2.054-17.974V-1.142a.652.652,0,0,0,.6.723A28.427,28.427,0,0,0,7.1-.058c5.044,0,7.566-1.936,7.566-5.5,0-2.168-2.132-4.389-5.2-4.776l-.052-.1c2.626-.594,4.42-2.427,4.42-4.234,0-2.788-2.34-4.389-6.994-4.389a24.983,24.983,0,0,0-4.186.361A.652.652,0,0,0,2.054-17.974Zm4.03,7.048H4.732v-6.635a11.408,11.408,0,0,1,2.106-.181c3.068,0,4.42.929,4.42,3.33C11.258-11.959,9.542-10.926,6.084-10.926ZM4.732-9.635H6.084c3.952,0,5.928,1.162,5.928,3.9,0,3.02-1.664,4.363-4.914,4.363a14.17,14.17,0,0,1-2.366-.181ZM24.882-18.8h-1.82a.729.729,0,0,0-.754.542L16.38-1.091c-.156.465.052.774.546.774H18.2a.74.74,0,0,0,.78-.542l1.586-4.957H27.3L28.886-.858a.74.74,0,0,0,.78.542h1.352c.494,0,.7-.31.546-.774L25.636-18.258A.729.729,0,0,0,24.882-18.8Zm-3.9,11.694,2.964-9.19,2.964,9.19Zm25.35,5.731v-.155c0-.516-.312-.7-.78-.542a11.7,11.7,0,0,1-3.77.645c-3.38,0-5.824-2.995-5.824-8.132,0-5.189,2.288-8.132,5.746-8.132a11.631,11.631,0,0,1,3.718.645c.468.155.78-.026.78-.542v-.181a.707.707,0,0,0-.546-.749,16.159,16.159,0,0,0-4.134-.542c-5.278,0-8.268,3.614-8.268,9.5,0,5.912,3.2,9.5,8.346,9.5A15.563,15.563,0,0,0,45.76-.6.714.714,0,0,0,46.332-1.375ZM61.438-18.8H60.372a1.038,1.038,0,0,0-.832.361l-6.786,7.383v-7.073a.6.6,0,0,0-.676-.671h-1.3a.6.6,0,0,0-.676.671V-.987a.6.6,0,0,0,.676.671h1.3a.6.6,0,0,0,.676-.671V-8.835L59.8-.7a.988.988,0,0,0,.832.387h1.092c.572,0,.754-.387.364-.826l-7.722-8.8L61.8-17.974C62.192-18.413,62.01-18.8,61.438-18.8Z" transform="translate(-2.054 19.058)"/></svg>