<svg xmlns="http://www.w3.org/2000/svg" xmlns:xlink="http://www.w3.org/1999/xlink" width="99.256" height="35.16" viewBox="0 0 99.256 35.16"><defs><style>.a{fill:#361413;}.b{filter:url(#a);}</style><filter id="a" x="0" y="0" width="99.256" height="35.16" filterUnits="userSpaceOnUse"><feOffset input="SourceAlpha"/><feGaussianBlur stdDeviation="3.5" result="b"/><feFlood flood-color="#fff"/><feComposite operator="in" in2="b"/><feComposite in="SourceGraphic"/></filter></defs><g class="b" transform="matrix(1, 0, 0, 1, 0, 0)"><path class="a" d="M15.616-12.144a9.771,9.771,0,0,0-1.408-1.5l-.848.7a8.055,8.055,0,0,1,1.44,1.488ZM14.048-10.96a6.791,6.791,0,0,0-1.328-1.456l-.848.7a6.989,6.989,0,0,1,1.312,1.44Zm.992,8.288A27.924,27.924,0,0,0,10.96-10.8l-1.68.944a21.536,21.536,0,0,1,3.776,8.1ZM7.088-10.016c0-.144-.224-.224-.384-.256L4.768-10.7A17.312,17.312,0,0,1,.72-2.064L2.784-1.2A22.245,22.245,0,0,0,6.272-8.336c.064-.208.288-1.2.352-1.28a2.632,2.632,0,0,1,.3-.208C7.008-9.888,7.088-9.936,7.088-10.016Zm17.6,3.44A9.607,9.607,0,0,0,23.6-9.168l-1.424.544a10.2,10.2,0,0,1,1.136,2.592ZM28.9-8.288c0-.112-.112-.224-.32-.288l-1.568-.48A9.759,9.759,0,0,1,21.12-.8L22.4.336a11.514,11.514,0,0,0,5.968-7.68c.16-.624.176-.688.32-.768C28.864-8.176,28.9-8.192,28.9-8.288Zm-7.04,2.48a10.26,10.26,0,0,0-1.232-2.576l-1.472.56a9.977,9.977,0,0,1,1.216,2.576ZM45.52-9.472l-1.3-1.52a1.613,1.613,0,0,1-.7.3H39.936c.16-.3.352-.624.448-.864.224-.064.4-.1.4-.224,0-.16-.32-.3-.416-.336l-1.648-.624A13.934,13.934,0,0,1,34.3-6.592L35.888-5.5a22.137,22.137,0,0,0,3.04-3.568h4.1a12.754,12.754,0,0,1-2.112,4.208A13.947,13.947,0,0,1,35.9-.688l1.744,1.2A15.546,15.546,0,0,0,41.984-3.28,18.793,18.793,0,0,0,44.832-8.7,1.667,1.667,0,0,1,45.52-9.472Zm16.016,8.9V-11.1H50.448V-.64h1.9v-.624h7.28v.688Zm-1.9-2.5h-7.28V-9.3h7.28Zm19.344-8.96a6.879,6.879,0,0,0-1.424-1.552l-.816.656a7.117,7.117,0,0,1,1.424,1.552Zm-2.288,0a6.381,6.381,0,0,0-1.376-1.328l-.832.656a6.478,6.478,0,0,1,1.392,1.328Zm.832,2.72L76.176-10.88a1.294,1.294,0,0,1-.688.24H71.9c.176-.256.368-.672.544-.88.272-.1.368-.128.368-.224,0-.144-.288-.272-.416-.336l-1.6-.72a14.239,14.239,0,0,1-4.56,6.176l1.584,1.136A21.813,21.813,0,0,0,70.9-9.008h4.1a12.947,12.947,0,0,1-2.048,4.016,13.761,13.761,0,0,1-5.136,4.24L69.568.5a16.3,16.3,0,0,0,4.384-3.808,16.552,16.552,0,0,0,2.72-5.056A2.3,2.3,0,0,1,77.52-9.312Z" transform="translate(9.78 24.15)"/></g></svg>