<svg xmlns="http://www.w3.org/2000/svg" width="52.754" height="18.616" viewBox="0 0 52.754 18.616"><defs><style>.a{fill:#fff;}</style></defs><path class="a" d="M12.792-18.8H2.73a.6.6,0,0,0-.676.676V-.858a.6.6,0,0,0,.676.676H12.792a.6.6,0,0,0,.676-.676V-.884a.6.6,0,0,0-.676-.676H4.732V-9.568H12.3c.442,0,.676-.208.676-.624a.6.6,0,0,0-.676-.676H4.732V-17.42h8.06a.6.6,0,0,0,.676-.676v-.026A.6.6,0,0,0,12.792-18.8Zm16.562,0H28.106a.844.844,0,0,0-.806.468l-3.8,6.89-3.77-6.89a.844.844,0,0,0-.806-.468H17.6c-.546,0-.728.338-.468.806L21.97-9.62,17-.988c-.26.468-.078.806.468.806h1.274a.844.844,0,0,0,.806-.468l3.9-7.15L27.326-.65a.844.844,0,0,0,.806.468h1.352c.546,0,.728-.338.468-.806L24.986-9.62l4.836-8.372C30.082-18.46,29.9-18.8,29.354-18.8Zm7.15,0H35.048a.6.6,0,0,0-.676.676V-.858a.6.6,0,0,0,.676.676H36.5a.6.6,0,0,0,.676-.676V-18.122A.6.6,0,0,0,36.5-18.8Zm17.628,0H41.86a.6.6,0,0,0-.676.676v.052a.6.6,0,0,0,.676.676h4.81V-.858a.6.6,0,0,0,.676.676h1.3a.6.6,0,0,0,.676-.676V-17.394h4.81a.6.6,0,0,0,.676-.676v-.052A.6.6,0,0,0,54.132-18.8Z" transform="translate(-2.054 18.798)"/></svg>