<svg xmlns="http://www.w3.org/2000/svg" width="15.94" height="15.94" viewBox="0 0 15.94 15.94"><defs><style>.a{fill:#4b4b4b;}</style></defs><g transform="translate(0 0)"><path class="a" d="M159.793,135.846l1.74,1.342a1.094,1.094,0,0,0,2.179-.134c0-.023-.005-.045-.007-.068l2.55-3.017a.425.425,0,1,0-.629-.559l-2.506,2.677a1.058,1.058,0,0,0-1.042.017l-1.638-1.141a.553.553,0,0,0-.648.884Z" transform="translate(-154.646 -129.084)"/><path class="a" d="M7.97,0a.633.633,0,0,0,0,1.265A6.708,6.708,0,1,1,2.345,4.323l.587.439A.233.233,0,0,0,3.3,4.623l.4-1.869a.632.632,0,0,0,.083-.4l.179-.845a.233.233,0,0,0-.339-.253L.823,2.772a.233.233,0,0,0-.029.392l.535.4A7.97,7.97,0,1,0,7.97,0Z" transform="translate(0)"/></g></svg>