<svg xmlns="http://www.w3.org/2000/svg" width="12.76" height="18.234" viewBox="0 0 12.76 18.234"><defs><style>.a{fill:#4b4b4b;}</style></defs><g transform="translate(-249.9 -309.066)"><path class="a" d="M250.7,325.7a1.735,1.735,0,0,0,1.7,1.6h7.3a1.666,1.666,0,0,0,1.7-1.6l.6-10.4H249.9Z"/><path class="a" d="M262.4,312.8a14.986,14.986,0,0,0-4-1.6h0a1.785,1.785,0,0,0-3.5-.7h0a15.086,15.086,0,0,0-4.3.1.642.642,0,0,0-.5.5c0,.2-.2,1.2-.2,1.2l12.5,2.4s.2-1,.2-1.2C262.7,313.2,262.7,313,262.4,312.8Zm-4.9-1.9c-.2-.1-.5-.1-.8-.2a2.2,2.2,0,0,0-.8-.1.779.779,0,0,1,.9-.6A.961.961,0,0,1,257.5,310.9Z"/></g></svg>