<svg xmlns="http://www.w3.org/2000/svg" width="64.35" height="19" viewBox="0 0 64.35 19"><defs><style>.a{fill:#fff;}</style></defs><path class="a" d="M4.16-18.8H2.73a.6.6,0,0,0-.676.671V-.987a.6.6,0,0,0,.676.671H13.052a.6.6,0,0,0,.676-.671v-.052a.6.6,0,0,0-.676-.671H4.836V-18.129A.6.6,0,0,0,4.16-18.8Zm20.046-.258c-5.278,0-8.32,3.588-8.32,9.5s3.042,9.5,8.32,9.5a7.892,7.892,0,0,0,6.136-2.5,10.231,10.231,0,0,0,2.184-7C32.526-15.47,29.484-19.058,24.206-19.058Zm0,1.368a4.738,4.738,0,0,1,4.16,2.091A10.651,10.651,0,0,1,29.8-9.558c0,5.4-2.106,8.132-5.59,8.132s-5.59-2.736-5.59-8.132S20.722-17.69,24.206-17.69ZM42.744-18.8h-1.82a.729.729,0,0,0-.754.542L34.242-1.091c-.156.465.052.774.546.774h1.274a.74.74,0,0,0,.78-.542l1.586-4.957h6.734L46.748-.858a.74.74,0,0,0,.78.542H48.88c.494,0,.7-.31.546-.774L43.5-18.258A.729.729,0,0,0,42.744-18.8Zm-3.9,11.694,2.964-9.19,2.964,9.19ZM52.286-17.974V-1.142a.652.652,0,0,0,.6.723A25.534,25.534,0,0,0,57.1-.058c6.266,0,9.308-3.356,9.308-9.758,0-6.041-3.068-9.242-9.308-9.242a25.778,25.778,0,0,0-4.212.361A.652.652,0,0,0,52.286-17.974ZM54.964-1.607v-15.9A11.5,11.5,0,0,1,57.1-17.69c4.5,0,6.734,2.375,6.734,7.874,0,5.989-2.184,8.39-6.734,8.39A11.5,11.5,0,0,1,54.964-1.607Z" transform="translate(-2.054 19.058)"/></svg>