<svg xmlns="http://www.w3.org/2000/svg" xmlns:xlink="http://www.w3.org/1999/xlink" width="137.631" height="57.672" viewBox="0 0 137.631 57.672"><defs><style>.a{fill:#fff;}.b{filter:url(#a);}</style><filter id="a" x="0" y="0" width="137.631" height="57.672" filterUnits="userSpaceOnUse"><feOffset dy="3" input="SourceAlpha"/><feGaussianBlur stdDeviation="3.5" result="b"/><feFlood flood-opacity="0.365"/><feComposite operator="in" in2="b"/><feComposite in="SourceGraphic"/></filter></defs><g class="b" transform="matrix(1, 0, 0, 1, 0, 0)"><path class="a" d="M9.185-33.926V-4.812H19.16V0H4.065V-33.926ZM20.94-17.117a16.616,16.616,0,0,1,5.251-12.3A17.285,17.285,0,0,1,38.76-34.563,16.963,16.963,0,0,1,51.2-29.377,16.953,16.953,0,0,1,56.4-16.919,16.682,16.682,0,0,1,51.174-4.5,17.5,17.5,0,0,1,38.5.615,17.505,17.505,0,0,1,26.7-3.933,16.67,16.67,0,0,1,20.94-17.117Zm5.164.066A12.261,12.261,0,0,0,29.883-7.8a12.13,12.13,0,0,0,8.679,3.625,12.21,12.21,0,0,0,9.009-3.691,12.494,12.494,0,0,0,3.669-9.1,12.431,12.431,0,0,0-3.625-9.1,11.969,11.969,0,0,0-8.921-3.691,12.086,12.086,0,0,0-8.943,3.691A12.239,12.239,0,0,0,26.1-17.051ZM81.057-8.24H66.533L62.754,0H57.239L74.026-36.057,90.22,0h-5.6ZM78.97-13.052,73.938-24.587,68.665-13.052ZM94.46,0V-33.926h7.119a25.908,25.908,0,0,1,8.086,1.011,15.134,15.134,0,0,1,5.779,3.362,16.233,16.233,0,0,1,5.251,12.59,16.083,16.083,0,0,1-5.471,12.656,15.977,15.977,0,0,1-5.757,3.362A26.2,26.2,0,0,1,101.492,0Zm5.12-4.812h2.307a19.251,19.251,0,0,0,5.735-.725,11.64,11.64,0,0,0,4.131-2.439,11.6,11.6,0,0,0,3.779-8.987,11.788,11.788,0,0,0-3.735-9.053q-3.362-3.1-9.91-3.1H99.58Z" transform="translate(6.44 43.56)"/></g></svg>