<svg xmlns="http://www.w3.org/2000/svg" xmlns:xlink="http://www.w3.org/1999/xlink" width="199.813" height="59.298" viewBox="0 0 199.813 59.298"><defs><style>.a{fill:#fff;}.b{filter:url(#a);}</style><filter id="a" x="0" y="0" width="199.813" height="59.298" filterUnits="userSpaceOnUse"><feOffset dy="3" input="SourceAlpha"/><feGaussianBlur stdDeviation="3.5" result="b"/><feFlood flood-opacity="0.365"/><feComposite operator="in" in2="b"/><feComposite in="SourceGraphic"/></filter></defs><g class="b" transform="matrix(1, 0, 0, 1, 0, 0)"><path class="a" d="M29.136-32.1v6.064a14.2,14.2,0,0,0-9.185-3.713,11.7,11.7,0,0,0-8.811,3.757,12.668,12.668,0,0,0-3.6,9.141,12.363,12.363,0,0,0,3.6,9.009,11.9,11.9,0,0,0,8.833,3.669,10.837,10.837,0,0,0,4.592-.879A13.244,13.244,0,0,0,26.752-6.24a25.841,25.841,0,0,0,2.384-1.8v6.174A18.492,18.492,0,0,1,19.907.615,17.027,17.027,0,0,1,7.493-4.46a16.829,16.829,0,0,1-5.12-12.349A17.421,17.421,0,0,1,6.658-28.367,17.059,17.059,0,0,1,20.3-34.585,17.32,17.32,0,0,1,29.136-32.1Zm4.548,14.985a16.616,16.616,0,0,1,5.251-12.3A17.285,17.285,0,0,1,51.5-34.563,16.963,16.963,0,0,1,63.94-29.377a16.953,16.953,0,0,1,5.208,12.458A16.682,16.682,0,0,1,63.918-4.5,17.5,17.5,0,0,1,51.24.615a17.505,17.505,0,0,1-11.8-4.548A16.67,16.67,0,0,1,33.684-17.117Zm5.164.066A12.261,12.261,0,0,0,42.627-7.8a12.13,12.13,0,0,0,8.679,3.625,12.21,12.21,0,0,0,9.009-3.691,12.494,12.494,0,0,0,3.669-9.1,12.431,12.431,0,0,0-3.625-9.1,11.969,11.969,0,0,0-8.921-3.691A12.086,12.086,0,0,0,42.5-26.06,12.239,12.239,0,0,0,38.848-17.051ZM75.586,0V-36.233l24.741,25.884V-33.926h5.12V2.065L80.706-23.752V0Zm54.932-29.114H118.7v8.152h11.4v4.812H118.7V0h-5.12V-33.926h16.941Zm11.052-4.812V0h-5.12V-33.926Zm25.6,16.26h14.019v1.121a23.155,23.155,0,0,1-.9,6.768,14.384,14.384,0,0,1-2.966,5.1A15.368,15.368,0,0,1,165.3.637,16.523,16.523,0,0,1,153.105-4.5,17.049,17.049,0,0,1,148.03-16.9a17.008,17.008,0,0,1,5.164-12.524,17.106,17.106,0,0,1,12.568-5.164,17.2,17.2,0,0,1,7.427,1.626,21.42,21.42,0,0,1,6.482,5.273l-3.647,3.494q-4.175-5.559-10.173-5.559a12.154,12.154,0,0,0-9.031,3.713,12.4,12.4,0,0,0-3.647,9.141,12.026,12.026,0,0,0,4.065,9.338,12.128,12.128,0,0,0,8.24,3.406,10.23,10.23,0,0,0,6.79-2.549,9.068,9.068,0,0,0,3.362-6.152h-8.459Z" transform="translate(8.13 43.73)"/></g></svg>