<svg xmlns="http://www.w3.org/2000/svg" xmlns:xlink="http://www.w3.org/1999/xlink" width="130.789" height="60.464" viewBox="0 0 130.789 60.464">
  <defs>
    <filter id="パス_43" x="0" y="0" width="130.789" height="60.464" filterUnits="userSpaceOnUse">
      <feOffset dy="3" input="SourceAlpha"/>
      <feGaussianBlur stdDeviation="3.5" result="blur"/>
      <feFlood flood-opacity="0.365"/>
      <feComposite operator="in" in2="blur"/>
      <feComposite in="SourceGraphic"/>
    </filter>
  </defs>
  <g transform="matrix(1, 0, 0, 1, 0, 0)" filter="url(#パス_43)">
    <path id="パス_43-2" data-name="パス 43" d="M23.764-29.514,19.519-27a7.3,7.3,0,0,0-2.269-2.7,5.292,5.292,0,0,0-2.9-.719,5.352,5.352,0,0,0-3.616,1.235A3.829,3.829,0,0,0,9.3-26.122q0,2.538,3.773,4.088l3.459,1.415a14.767,14.767,0,0,1,6.177,4.167,9.391,9.391,0,0,1,1.954,6.031,10.6,10.6,0,0,1-3.189,7.906A10.948,10.948,0,0,1,13.5.629,10.667,10.667,0,0,1,6.042-2.044,12.307,12.307,0,0,1,2.426-9.568l5.3-1.168A9.016,9.016,0,0,0,8.984-6.514,5.448,5.448,0,0,0,13.7-4.268a5.473,5.473,0,0,0,4.065-1.64,5.672,5.672,0,0,0,1.617-4.155,5.831,5.831,0,0,0-.281-1.853,4.7,4.7,0,0,0-.876-1.55,7,7,0,0,0-1.539-1.325,14.822,14.822,0,0,0-2.246-1.179L11.1-17.362q-7.12-3.01-7.12-8.8A8.353,8.353,0,0,1,6.963-32.7a10.793,10.793,0,0,1,7.435-2.65Q20.395-35.354,23.764-29.514ZM50.986-8.423H36.14L32.276,0H26.639L43.8-36.858,60.353,0H54.625Zm-2.134-4.919L43.709-25.134,38.318-13.342ZM63.722-34.68l9.591,24.033L83.038-34.68h5.728L73.2,2.605,57.994-34.68Zm48.493,4.919h-13.9v8.333h13.5v4.919h-13.5v11.59h13.9V0H93.078V-34.68h19.137Z" transform="translate(8.07 44.36)" fill="#fff"/>
  </g>
</svg>
