<svg xmlns="http://www.w3.org/2000/svg" width="62.497" height="22.24" viewBox="0 0 62.497 22.24"><defs><style>.a{fill:#fff;}</style></defs><path class="a" d="M-54.658-10.966c5.268,0,7.887,1.7,7.887,5.079,0,3.312-2.461,4.953-7.413,4.953h-1.009c-1.83,0-2.776-.82-2.776-2.524v-7.508Zm-3.312-7.792c0-1.325.473-2.082,1.451-2.271a4.928,4.928,0,0,1,1.325-.126h1.073q6.152,0,6.152,4.448c0,3.06-2.208,4.606-6.625,4.606H-57.97Zm6.94,7.1c3.628-.662,5.426-2.4,5.426-5.174a4.5,4.5,0,0,0-2.776-4.322,11.411,11.411,0,0,0-5.142-1.009h-9.306c-.315,0-.5.158-.5.41a.473.473,0,0,0,.473.5,4.829,4.829,0,0,1,2.145.568c.41.284.6.915.6,1.924V-3.269c0,1.1-.284,1.8-.946,2.082a5.637,5.637,0,0,1-1.8.347c-.284.032-.473.189-.473.442a.441.441,0,0,0,.5.473h9.148c6.246,0,9.338-2.019,9.338-6.088,0-2.934-2.208-4.8-6.688-5.552Zm30.285-10.063c0-.284-.158-.442-.5-.442h-6.94c-.347,0-.5.158-.5.41,0,.315.158.473.5.5,1.609.095,2.429.473,2.429,1.136a1.979,1.979,0,0,1-.315.946l-5.3,8.991-4.8-8.423a3.5,3.5,0,0,1-.568-1.64c0-.6.757-.946,2.24-1.041.347,0,.5-.126.5-.379a.45.45,0,0,0-.5-.5h-7.634c-.347,0-.5.158-.5.41a.456.456,0,0,0,.473.5A4.544,4.544,0,0,1-38.79-18.79l6.025,10.158v5.363c0,1.1-.284,1.8-.883,2.082a6.328,6.328,0,0,1-1.924.347c-.347.032-.5.189-.5.442,0,.315.158.473.5.473h7.824q.473,0,.473-.379a.481.481,0,0,0-.473-.536,4.6,4.6,0,0,1-1.924-.41,2.128,2.128,0,0,1-.915-2.019V-8.915l5.8-9.59a5.1,5.1,0,0,1,3.565-2.745Q-20.745-21.3-20.745-21.723ZM-1.25-6.739a.466.466,0,0,0-.536.473c-.189,2.019-.757,3.407-1.672,4.2-.82.726-2.492,1.1-4.984,1.1h-2.776a3.63,3.63,0,0,1-2.145-.442c-.41-.252-.631-.915-.631-1.924v-7.54h3.344A2.942,2.942,0,0,1-7.969-9.83,4.6,4.6,0,0,1-7.37-8q.047.473.473.473c.315,0,.473-.158.473-.5V-14.72c0-.347-.126-.5-.442-.5a.456.456,0,0,0-.5.473A4.313,4.313,0,0,1-8.1-12.827a3.1,3.1,0,0,1-2.555.852h-3.344V-18.79c0-1.1.252-1.767.726-2.019a4.615,4.615,0,0,1,2.051-.347h2.776c2.587,0,4.29.442,5.047,1.356A6.378,6.378,0,0,1-2.259-16.36q.047.473.473.473a.45.45,0,0,0,.5-.5l-.347-5.3a.456.456,0,0,0-.5-.473h-16.72c-.315,0-.5.158-.5.41a.473.473,0,0,0,.473.5,4.829,4.829,0,0,1,2.145.568c.41.284.6.915.6,1.893V-3.269c0,1.1-.284,1.8-.883,2.051a6.59,6.59,0,0,1-1.861.379c-.284.032-.473.189-.473.442a.441.441,0,0,0,.5.473h17.1A.481.481,0,0,0-1.218-.4L-.84-6.234C-.808-6.55-.966-6.739-1.25-6.739Z" transform="translate(63.333 22.165)"/></svg>