<svg xmlns="http://www.w3.org/2000/svg" xmlns:xlink="http://www.w3.org/1999/xlink" width="90.342" height="31.952" viewBox="0 0 90.342 31.952"><defs><style>.a{fill:#fff;}.b{filter:url(#a);}</style><filter id="a" x="0" y="0" width="90.342" height="31.952" filterUnits="userSpaceOnUse"><feOffset dy="3" input="SourceAlpha"/><feGaussianBlur stdDeviation="3" result="b"/><feFlood flood-color="#fff"/><feComposite operator="in" in2="b"/><feComposite in="SourceGraphic"/></filter></defs><g class="b" transform="matrix(1, 0, 0, 1, 0, 0)"><path class="a" d="M-61.322-8.936c.168-.336-.382-.641-.565-.275a1.689,1.689,0,0,1-1.6.733h-5.343c-.031,0-.061-.031-.046-.061a6.7,6.7,0,0,0,.29-2.076.5.5,0,0,0-.992.031,4.84,4.84,0,0,1-1.069,3.373,18.738,18.738,0,0,1-2.58,2.458.266.266,0,0,0,.336.412,16.093,16.093,0,0,0,3.343-2.9,5.311,5.311,0,0,0,.336-.55.109.109,0,0,1,.092-.046H-66.3a.056.056,0,0,1,.061.061c-.061,3.6-1.969,5.205-5.6,7.556-.26.183-.015.626.275.443,3.358-1.908,5.923-3.541,6.365-7.876v-.122a.056.056,0,0,1,.061-.061h1.649A2.241,2.241,0,0,0-61.322-8.936Zm-3.572-2.916a.17.17,0,0,0-.137.305,5.049,5.049,0,0,1,1.664,1.969c.168.351.55.382.641-.061C-62.559-10.875-64.6-11.821-64.894-11.852Zm1.389-.778a.172.172,0,0,0-.107.321,4.923,4.923,0,0,1,1.74,1.862c.168.351.6.321.626-.122C-61.124-11.775-63.2-12.584-63.5-12.63Zm14.944,7.709a2.294,2.294,0,0,0,2.183-1.16.378.378,0,0,0-.7-.275,1.583,1.583,0,0,1-1.481.672h-8.67a.383.383,0,0,0,0,.763Zm13.2-.794c-.244-.214-.58.168-.351.4.687.687,1.389,1.374,2.015,2.122a6.172,6.172,0,0,1,.733,1.038c.031.031,0,.061-.031.061l-8.09.55a.094.094,0,0,1-.076-.168A17.222,17.222,0,0,0-38.67-4.174a8.341,8.341,0,0,0,1.481-4.915V-9.1c.046-.672-1.053-.687-1.038,0a7.646,7.646,0,0,1-1.191,4.579,26.208,26.208,0,0,1-3.1,3.144.324.324,0,0,0,.244.55l9.556-.656a.1.1,0,0,1,.076.061,2.676,2.676,0,0,1,.122.626A.522.522,0,0,0-31.48-.907C-31.709-3-33.877-4.448-35.357-5.715ZM-21.07-1.96c-.061.107-.015.214.137.275A11.08,11.08,0,0,1-17.376.589c.29.305.519.458.656.458.321,0,.473-.168.473-.519,0-.29-.275-.626-.809-.992a13.012,13.012,0,0,0-3.725-1.6C-20.932-2.1-21.024-2.067-21.07-1.96ZM-28.382.207c.107.046.2.015.275-.122A10.909,10.909,0,0,0-26.87-3.242c.351-.092.519-.183.519-.29,0-.168-.366-.351-1.1-.519-.183-.046-.275.031-.29.2A14.012,14.012,0,0,1-28.473-.1C-28.519.055-28.5.146-28.382.207Zm3.908-4.472c-.092.061-.107.153-.031.29A5.854,5.854,0,0,1-23.772-1.5c0,.458.153.687.427.687.366,0,.55-.229.55-.717A4,4,0,0,0-24.184-4.2C-24.291-4.3-24.382-4.326-24.474-4.265Zm4.518.2c-.046.107,0,.183.137.259a7.3,7.3,0,0,1,2.015,1.5.823.823,0,0,0,.534.351.425.425,0,0,0,.473-.488c0-.6-.946-1.16-2.854-1.71A.232.232,0,0,0-19.956-4.067Zm-6.961-5.755a4.181,4.181,0,0,0-.946-.5c-.137-.061-.214-.061-.259,0a.209.209,0,0,0,.031.336,4.361,4.361,0,0,1,1.435,1.908c.092.259.229.382.412.382.351,0,.534-.183.534-.565a1.668,1.668,0,0,0-.733-1.206l-.092-.061a14.459,14.459,0,0,0,1.557-2.045q.6-.046.6-.229c0-.168-.351-.382-1.053-.672a.214.214,0,0,0-.321.153A15.846,15.846,0,0,1-26.825-9.76Zm-.473,3.847c-.351.031-.641.031-.885.046-.153,0-.229.107-.2.275.168.641.305.962.458.962.092,0,.2-.153.305-.473l1.542-.229.107-.015a.262.262,0,0,0,.122-.015V1.093a.2.2,0,0,0,.229.229h.382c.168,0,.244-.076.244-.229V-5.578a.115.115,0,0,0,.061-.015l.092-.015c.168-.031.565-.122,1.175-.229a5.668,5.668,0,0,1,.183.626c.092.412.259.611.488.611.321,0,.488-.183.488-.565,0-.748-.565-1.542-1.679-2.366-.122-.092-.2-.122-.244-.076a.227.227,0,0,0-.015.336,5.26,5.26,0,0,1,.611,1.038l-.733.076a3.549,3.549,0,0,0-.443.031l-.778.061c-.336.015-.519.046-.534.046a34.754,34.754,0,0,0,2.946-3.572q.641-.023.641-.229c0-.168-.321-.427-.977-.717a.21.21,0,0,0-.321.107,24.886,24.886,0,0,1-2.671,4.244l-.153.183Zm7.48-4.106h2.793a10.6,10.6,0,0,1-1.45,2.7,11.281,11.281,0,0,1-1.587-2.213Zm-.488.931a11.385,11.385,0,0,0,1.374,2.29c-.015.015-.015.031-.031.061l-.076.076a10.277,10.277,0,0,1-3.48,2.931q-.229.137-.137.275a.235.235,0,0,0,.321.092,12.727,12.727,0,0,0,3.847-2.625l.122-.122A13.312,13.312,0,0,0-15.33-3.731c.137.092.244.046.336-.092a2.718,2.718,0,0,1,.351-.473c.122-.137.107-.259-.061-.321a13.384,13.384,0,0,1-3.282-2.152A13.39,13.39,0,0,0-16.2-9.791l.4-.2c.122-.061.168-.122.168-.183,0-.137-.244-.427-.748-.855a.214.214,0,0,0-.351.015l-.443.55h-2.549c.153-.366.29-.687.412-.977.443-.092.656-.2.656-.321q0-.275-1.145-.6a.222.222,0,0,0-.305.168,14.016,14.016,0,0,1-2.473,5.114c-.107.122-.107.229-.031.29a.216.216,0,0,0,.336,0A11.928,11.928,0,0,0-20.4-9.15Zm15.127,1.5A24.88,24.88,0,0,0-1.715-9.9l.565-.122c.122-.015.168-.061.168-.153q0-.275-.962-1.053a.215.215,0,0,0-.336,0l-.473.534H-11.24c-.183,0-.275.092-.214.2a.267.267,0,0,0,.275.183h8.411a21.446,21.446,0,0,1-3.068,2.5,5.853,5.853,0,0,0-.626-.076c-.168-.015-.244.076-.244.229V-.708c0,.29-.168.443-.519.443A20.168,20.168,0,0,1-9.561-.4c-.168-.015-.259.031-.259.168a.228.228,0,0,0,.229.244A10.085,10.085,0,0,1-7.866.421a.675.675,0,0,1,.382.412c.046.137.107.214.259.214.962-.046,1.45-.5,1.45-1.389V-7.013c.473-.122.7-.275.7-.427C-5.073-7.5-5.134-7.577-5.271-7.654Z" transform="translate(82.32 18.63)"/></g></svg>