<svg xmlns="http://www.w3.org/2000/svg" width="128.426" height="23.849" viewBox="0 0 128.426 23.849"><defs><style>.a{fill:#fff;}</style></defs><path class="a" d="M-107.3-7.135a.461.461,0,0,0-.631.315c-1.325,4.038-3.88,6.057-7.634,6.057a7.593,7.593,0,0,1-6.246-3,11.294,11.294,0,0,1-2.366-7.413,13.4,13.4,0,0,1,1.577-6.656,7.305,7.305,0,0,1,6.814-3.975,7.089,7.089,0,0,1,5.552,2.366,7.619,7.619,0,0,1,1.735,3.407.491.491,0,0,0,.536.442c.347,0,.5-.158.5-.473v-5.363a.438.438,0,0,0-.5-.5c-.315,0-.473.158-.5.5-.095.536-.252.789-.5.789a2.169,2.169,0,0,1-.883-.442,10.311,10.311,0,0,0-6.088-1.861,10.039,10.039,0,0,0-7.382,3,12.329,12.329,0,0,0-3.407,9.022,11.8,11.8,0,0,0,3.344,8.865A10.032,10.032,0,0,0-115.971.878a9.135,9.135,0,0,0,5.9-1.987,10.707,10.707,0,0,0,3.344-5.331.488.488,0,0,0-.347-.631Zm14.417-14.7a7.113,7.113,0,0,1,5.8,2.808c1.577,1.956,2.366,4.637,2.366,8.013a12.316,12.316,0,0,1-2.114,7.571A7.194,7.194,0,0,1-92.879-.29,7.2,7.2,0,0,1-99.472-4.2a13.774,13.774,0,0,1-1.609-6.94A12.516,12.516,0,0,1-99-18.65,7.14,7.14,0,0,1-92.879-21.836Zm0-1.1a10.111,10.111,0,0,0-7.413,3,12.108,12.108,0,0,0-3.407,8.865,12.053,12.053,0,0,0,3.439,8.991,10.09,10.09,0,0,0,7.382,3,9.941,9.941,0,0,0,7.35-2.965,12.176,12.176,0,0,0,3.439-9.085,12.061,12.061,0,0,0-3.407-8.8A10.039,10.039,0,0,0-92.879-22.94Zm37.351,1.23c0-.284-.158-.442-.473-.442h-6.846c-.347,0-.5.158-.5.41,0,.315.158.473.5.5a4.83,4.83,0,0,1,1.893.41c.536.284.82.946.82,2.019V-3.6h-.095L-73.162-21.836a.683.683,0,0,0-.6-.315h-4.827c-.347,0-.5.158-.5.41a.456.456,0,0,0,.473.5,6.424,6.424,0,0,1,1.987.41c.536.284.82,1.009.82,2.145V-3.287c0,1.136-.284,1.83-.915,2.114a5.234,5.234,0,0,1-1.767.347c-.315.032-.473.189-.473.442,0,.315.158.473.5.473h6.782c.347,0,.5-.126.5-.379a.481.481,0,0,0-.473-.536,4.575,4.575,0,0,1-1.8-.41c-.536-.284-.82-.978-.82-2.051V-19.6h.095L-60.165.089a.649.649,0,0,0,.6.315h.473a.438.438,0,0,0,.5-.5V-18.807c0-1.1.315-1.8.915-2.082A5.189,5.189,0,0,1-56-21.236Q-55.528-21.284-55.528-21.71Zm20.284.032a.456.456,0,0,0-.5-.473H-52.5c-.315,0-.5.158-.5.41a.473.473,0,0,0,.473.5,4.829,4.829,0,0,1,2.145.568c.41.284.6.915.6,1.924V-3.255q0,1.656-.946,2.082A6.837,6.837,0,0,1-52.5-.826c-.315.032-.5.189-.5.442a.441.441,0,0,0,.5.473h7.824c.347,0,.5-.126.5-.379a.488.488,0,0,0-.5-.536,5.148,5.148,0,0,1-2.019-.41,2.023,2.023,0,0,1-.946-2.019v-7.571h3.375a3.043,3.043,0,0,1,2.713,1.041,5.02,5.02,0,0,1,.568,1.8q.047.473.473.473c.315,0,.473-.158.473-.5v-6.688c0-.315-.126-.473-.442-.473a.5.5,0,0,0-.536.473,4.366,4.366,0,0,1-.694,1.924c-.379.6-1.23.883-2.555.883h-3.375v-6.877c0-1.073.252-1.735.726-2.019a4.359,4.359,0,0,1,2.051-.347h2.745c2.871,0,4.7.536,5.363,1.672a7.325,7.325,0,0,1,.883,3.092q.047.473.473.473a.45.45,0,0,0,.5-.5Zm11.2,21.325q0-.426-.473-.473a5.015,5.015,0,0,1-1.924-.41c-.568-.284-.852-.946-.852-2.019V-18.744c0-1.136.347-1.83,1.009-2.114a7.209,7.209,0,0,1,1.767-.379c.315-.032.473-.158.473-.41a.441.441,0,0,0-.473-.5h-7.729c-.315,0-.5.158-.5.41a.473.473,0,0,0,.473.5,5.414,5.414,0,0,1,1.956.442c.536.252.789.946.789,2.051V-3.255c0,1.136-.284,1.83-.883,2.082a7.478,7.478,0,0,1-1.861.347c-.284.032-.473.189-.473.442a.441.441,0,0,0,.5.473h7.729C-24.2.089-24.044-.069-24.044-.353ZM1.7-9.754c0-.284-.158-.442-.473-.442H-6.063c-.347,0-.5.126-.5.41,0,.315.158.473.5.5a6.365,6.365,0,0,1,1.924.41c.536.284.789.946.789,2.019V-4.99a3.516,3.516,0,0,1-.789,2.366,6.52,6.52,0,0,1-5.3,2.177,7.631,7.631,0,0,1-6.152-3,11.878,11.878,0,0,1-2.4-7.634,13.6,13.6,0,0,1,1.577-6.751A7.3,7.3,0,0,1-9.6-21.8a7.16,7.16,0,0,1,5.552,2.4,7.845,7.845,0,0,1,1.735,3.281.49.49,0,0,0,.536.41c.347,0,.5-.158.5-.473v-5.237a.438.438,0,0,0-.5-.5c-.315,0-.473.158-.5.5-.095.536-.252.789-.5.789a2.169,2.169,0,0,1-.883-.442A10.311,10.311,0,0,0-9.754-22.94a10.018,10.018,0,0,0-7.35,3,12.249,12.249,0,0,0-3.439,9.054,11.841,11.841,0,0,0,3.218,8.738,10.388,10.388,0,0,0,7.666,3A8.912,8.912,0,0,0-2.94-1.835l.789,1.483c.126.252.252.347.379.347.347,0,.5-.158.5-.473V-6.851c0-1.136.315-1.8.915-2.082A6.3,6.3,0,0,1,1.224-9.28Q1.7-9.328,1.7-9.754Z" transform="translate(126.728 22.94)"/></svg>