<svg xmlns="http://www.w3.org/2000/svg" xmlns:xlink="http://www.w3.org/1999/xlink" width="58.452" height="29.786" viewBox="0 0 58.452 29.786"><defs><style>.a{fill:#fff;}.b{filter:url(#a);}</style><filter id="a" x="0" y="0" width="58.452" height="29.786" filterUnits="userSpaceOnUse"><feOffset dy="3" input="SourceAlpha"/><feGaussianBlur stdDeviation="3" result="b"/><feFlood flood-color="#fff"/><feComposite operator="in" in2="b"/><feComposite in="SourceGraphic"/></filter></defs><g class="b" transform="matrix(1, 0, 0, 1, 0, 0)"><path class="a" d="M-41.556-8.717a.519.519,0,0,0-.5.5v6.594a.522.522,0,0,0,.5.519h8.289a.522.522,0,0,0,.5-.519V-8.214a.508.508,0,0,0-.5-.5Zm.488.794a.2.2,0,0,1,.2-.2h6.915a.2.2,0,0,1,.2.2v6.029a.2.2,0,0,1-.2.2h-6.915a.2.2,0,0,1-.2-.2Zm22.484,2.977A2.294,2.294,0,0,0-16.4-6.107a.378.378,0,0,0-.7-.275,1.583,1.583,0,0,1-1.481.672h-8.67a.383.383,0,0,0,0,.763ZM-5.41-10.122a.166.166,0,0,0-.076.321,5.1,5.1,0,0,1,1.923,1.71c.214.321.58.244.611-.2C-2.953-9.481-5.1-10.122-5.41-10.122Zm1.267-.962a.174.174,0,0,0-.061.336,4.973,4.973,0,0,1,2,1.587c.214.321.626.229.6-.214C-1.67-10.58-3.838-11.083-4.143-11.083Zm1.3,5.862A7.68,7.68,0,0,1-7.914-6.611a.4.4,0,0,1-.153-.305v-2.9c-.046-.84-.473-1.359-1.313-1.359h-.443a.29.29,0,0,0,0,.58h.4c.229,0,.4.229.412.5L-9,.121a.466.466,0,1,0,.931.031V-5.817a.1.1,0,0,1,.153-.092,8.121,8.121,0,0,0,5.1,1.649A.481.481,0,0,0-2.846-5.222Z" transform="translate(51.06 17.17)"/></g></svg>