<svg xmlns="http://www.w3.org/2000/svg" width="328.133" height="28.929" viewBox="0 0 328.133 28.929"><defs><style>.a{fill:#361413;}</style></defs><path class="a" d="M10.8-25.994a19.616,19.616,0,0,1-1.774,4.281,26.372,26.372,0,0,1-7.615,8.777A14.926,14.926,0,0,1,5.81-9.48a32.152,32.152,0,0,0,6.972-8.287l8.471-.061a21.61,21.61,0,0,1-2.63,5.6A39.635,39.635,0,0,0,13-15.719L9.786-11.865a32.876,32.876,0,0,1,5.688,3.792A25.04,25.04,0,0,1,5.107-1.8,17.086,17.086,0,0,1,8.685,2.783a35.6,35.6,0,0,0,5.26-2.813,29.3,29.3,0,0,0,7.431-6.911C23.639-10,25.26-13.3,27.064-18.746a2.793,2.793,0,0,1,.7-1.315l-2.722-2.691a3.383,3.383,0,0,1-1.865.4l-8.226.092c.856-1.743,1.284-2.6,1.315-2.661Zm42.691.642a22.439,22.439,0,0,1-5.566,5.6A44.309,44.309,0,0,1,31.682-11.8a16.42,16.42,0,0,1,2.936,4.924,52.053,52.053,0,0,0,10-4.526v8.44a41.549,41.549,0,0,1-.183,4.924h5.933A43.705,43.705,0,0,1,50.183-3V-14.771a51.26,51.26,0,0,0,7.064-6.147,10.943,10.943,0,0,1,1.193-1.131ZM74.434,1.8a44.841,44.841,0,0,1-.183-4.679v-7.951a7.344,7.344,0,0,0,1.376.612A56.686,56.686,0,0,1,85.26-4.893l2.905-5.2A64.864,64.864,0,0,0,74.25-16.453v-4.19a39.543,39.543,0,0,1,.153-4.465H68.5a28.931,28.931,0,0,1,.214,4.434v17.8A43.647,43.647,0,0,1,68.532,1.8ZM96.85-24.465a22.413,22.413,0,0,1,.122,2.813c0,7.92-.489,11.712-1.927,14.709A13.659,13.659,0,0,1,91.406-2.08,16.586,16.586,0,0,1,95.779,2.2a20.344,20.344,0,0,0,4.251-6.116c1.468-3.333,2.079-6.728,2.263-13.119.214-6.055.214-6.055.336-7.095Zm8.685-.153a18.174,18.174,0,0,1,.122,2.385v1.1l-.153,18.1a6.7,6.7,0,0,1-.336,2.569l2.63,2.752a6.843,6.843,0,0,1,1.5-.642,18.3,18.3,0,0,0,6.422-3.486,18.736,18.736,0,0,0,5.29-7.768,20.3,20.3,0,0,1-4.067-4.037,15.487,15.487,0,0,1-2.385,5.229,11.819,11.819,0,0,1-3.67,3.364l.153-16.024a21.884,21.884,0,0,1,.245-3.547ZM125.9-24.74a25.171,25.171,0,0,1-.459,3.272,66.146,66.146,0,0,0-1.162,11.774,64.612,64.612,0,0,0,.8,9.664,12.286,12.286,0,0,1,.153,1.621l5.26-.245a8.56,8.56,0,0,1-.092-1.5,30.175,30.175,0,0,1,1.193-8.563l-2.355-.8a57.494,57.494,0,0,1,2.324-14.771Zm8.012,7.951c.428.031.642.031.887.061a50.459,50.459,0,0,0,5.26.245c2.11,0,4.342-.122,6.453-.336,1.682-.183,1.988-.214,2.263-.214l-.214-5.229a39.67,39.67,0,0,1-9.113.765,25.543,25.543,0,0,1-5.443-.459Zm1.8,4.067c-.826,1.193-1.009,1.5-1.437,2.2a9.584,9.584,0,0,0-1.468,4.771,5.665,5.665,0,0,0,2.813,4.862A12.465,12.465,0,0,0,141.957.4a37.448,37.448,0,0,0,5.29-.4c1.8-.275,1.8-.275,2.6-.367l-.306-5.413a22.727,22.727,0,0,1-7.615,1.254c-2.6,0-3.976-.765-3.976-2.171,0-1.1.642-2.416,2.049-4.22Zm41.835,6.972a32.877,32.877,0,0,1,3.486.153V-9.908a34.1,34.1,0,0,1-3.486.122h-5.9c.061-.673.061-.673.122-1.682h5.2c1.07,0,1.957.031,2.691.092a18.326,18.326,0,0,1-.122-2.538v-3.7a17.219,17.219,0,0,1,.122-2.416c-.673.061-1.468.092-2.722.092H158.776c-1.376,0-2.294-.031-3.333-.092.092,1.131.122,1.835.122,3.272,0,9.3-.612,12.355-3.15,15.994a21.384,21.384,0,0,1,3.731,3.7,17.365,17.365,0,0,0,2.141-3.761,15.512,15.512,0,0,1,1.8,3.639c3.761-1.131,5.046-1.713,6.758-2.966a9.945,9.945,0,0,0,2.722-2.936A14.525,14.525,0,0,0,173.7.581c1.8,1.1,3.211,1.56,6.636,2.2a19.014,19.014,0,0,1,1.59-4.709c-4.373-.336-6.972-1.437-9.144-3.823Zm-11.56,0c-1.162,2.08-3.456,3.3-7.339,3.976a21.187,21.187,0,0,0,1.04-3.976Zm-5.9-4.037c.031-.642.031-.826.031-1.682h6.972c0,.489-.031.948-.092,1.682Zm.061-5.168v-1.468h14.893v1.468ZM181.222-25.2a28.715,28.715,0,0,1-3.67.183h-20.4a31.34,31.34,0,0,1-3.7-.183v4.22c1.223-.092,2.141-.122,3.7-.122h20.367c1.743,0,2.63.031,3.7.122Zm7.37-.092v.245a15.114,15.114,0,0,1-.122,1.682,88.222,88.222,0,0,0-.7,11.162c0,.856.031,2.691.092,3.884v.612a3.536,3.536,0,0,1-.031.52l5.138-.061a15.736,15.736,0,0,1,.122-2.508,12.973,12.973,0,0,1,3.394-7.095,4.5,4.5,0,0,1,3.3-1.774c2.171,0,3.394,2.11,3.394,5.933,0,6.605-3.547,9.48-12.324,10A18.122,18.122,0,0,1,193.3,2.538a31.421,31.421,0,0,0,3.609-.7,18.4,18.4,0,0,0,6.972-3.18q4.679-3.67,4.679-11.193c0-3.578-.826-6.361-2.538-8.5a7.226,7.226,0,0,0-5.535-2.783c-3.272,0-5.749,1.713-7.737,5.29a41.005,41.005,0,0,1,1.254-6.544Zm27.645,7.462h.52c.092,0,.4,0,.826.031,1.131.061,1.131.061,2.294.092,3.517.153,4.037.183,5.688.183.275,0,.581,0,1.284-.031v.734c.031.734.031.734.031.8v.459c-.948.031-1.407.031-2.049.031a47.206,47.206,0,0,1-7.523-.489l-.061,4.557c.917,0,1.07.031,2.416.092,1.743.092,3.15.122,4.924.122.459,0,1.713-.031,2.355-.031,0,.153.031.765.061,1.8h-.948a15.449,15.449,0,0,0-5.443.826c-2.446.917-3.853,2.752-3.853,4.985,0,3.547,2.844,5.6,7.859,5.6,3.333,0,5.657-.856,6.667-2.416a5.313,5.313,0,0,0,.734-3.089A15.863,15.863,0,0,1,236.36-.856,16.209,16.209,0,0,1,238.439,1.1l2.905-4.924c-.489-.306-.7-.428-1.162-.734a30.469,30.469,0,0,0-4.1-2.538,17.519,17.519,0,0,0-4.19-1.651c-.061-1.284-.061-1.284-.092-2.691,1.682-.061,4.618-.275,5.994-.428,1.315-.122,1.315-.122,1.957-.153l-.122-4.679a48.384,48.384,0,0,1-7.89.917v-1.927a60.012,60.012,0,0,0,6.147-.52c1.621-.214,1.8-.214,2.691-.275l-.153-4.679a47.07,47.07,0,0,1-8.685,1.07,19.019,19.019,0,0,1,.245-3.18H226.6a21.361,21.361,0,0,1,.183,3.333c-.917.031-1.315.031-1.682.031a43.924,43.924,0,0,1-8.807-.642ZM227-4.924s.031.336.031.52c0,1.376-.734,1.957-2.446,1.957-1.529,0-2.385-.459-2.385-1.223,0-.948,1.07-1.468,2.936-1.468A6.6,6.6,0,0,1,227-4.924Zm18.5-11.957c2.355-.336,7.339-.612,13.67-.8a4.976,4.976,0,0,1,.031.734v.948a6.906,6.906,0,0,0-2.385-.336c-4.22,0-7.095,2.385-7.095,5.872,0,3.272,2.508,5.6,6.055,5.6a5.582,5.582,0,0,0,4.1-1.437,5.066,5.066,0,0,1-2.263,2.416c-1.468.917-3.211,1.407-6.3,1.865a13.772,13.772,0,0,1,2.905,4.832A24.716,24.716,0,0,0,260.366.336a9.866,9.866,0,0,0,5.046-8.471,9.726,9.726,0,0,0-1.223-5.107v-4.526c1.223-.031,1.437-.031,3.058-.031a50.956,50.956,0,0,1,5.5.153l-.031-5.015c-1.223.122-3.486.183-8.563.214a20.7,20.7,0,0,1,.153-3.119H258.9a17.215,17.215,0,0,1,.214,3.242c-2.844.092-11.07.306-11.9.306-.765,0-1.1-.031-1.865-.092Zm11.682,4.4c1.223,0,2.018.642,2.018,1.59a2.086,2.086,0,0,1-2.324,1.835,1.81,1.81,0,0,1-2.018-1.651C254.861-11.743,255.84-12.477,257.185-12.477Zm18.838-.948a38.051,38.051,0,0,1,4.771-.856C279.571-9.449,277-3.364,275.045-.765L280.09,1.9c.184-.428.245-.581.489-1.1a66.022,66.022,0,0,0,3.242-7.89,60.638,60.638,0,0,0,2.171-7.615,11.1,11.1,0,0,1,1.223-.061c1.07,0,1.5.122,1.835.52a3.592,3.592,0,0,1,.581,2.477,27.02,27.02,0,0,1-.826,6.789c-.336.979-.734,1.376-1.376,1.376a14.1,14.1,0,0,1-4.19-1.1A14.126,14.126,0,0,1,283.7-1.07,13.645,13.645,0,0,1,283.607.7a17.471,17.471,0,0,0,4.862.826,5.841,5.841,0,0,0,2.385-.428,4.913,4.913,0,0,0,1.957-1.835c1.223-2.11,1.927-6.086,1.927-10.856,0-3.456-.612-5.321-2.171-6.575a6.737,6.737,0,0,0-4.342-1.223c-.428,0-.8.031-1.315.061.122-.7.336-1.865.581-3.272a15.074,15.074,0,0,1,.489-2.416l-5.535-.52v.52a48.749,48.749,0,0,1-.7,6.055c-1.988.245-4.924.489-5.9.489h-.275Zm17.737-6.239c2.813,3.333,4.709,7.768,5.719,13.364l5.015-2.385a31.815,31.815,0,0,0-6.238-13.058ZM322.292-6.758a9.191,9.191,0,0,1-.092-1.193,3.16,3.16,0,0,1,1.743-3.028,20.758,20.758,0,0,0,3.7-2.538,5.761,5.761,0,0,0,1.9-4.5c0-4.22-3.517-6.881-9.144-6.881-3.517,0-6.238,1.04-8.012,3.058a7.668,7.668,0,0,0-1.957,4.679l6.3.581a4.091,4.091,0,0,1,.55-1.865,3.231,3.231,0,0,1,2.966-1.437c1.835,0,2.905.856,2.905,2.294,0,1.009-.489,1.651-1.988,2.538-2.171,1.315-2.416,1.5-3.15,2.355a6.368,6.368,0,0,0-1.346,4.526,8.077,8.077,0,0,1-.061,1.407Zm-5.9,2.08V1.1h6.147v-5.78Z" transform="translate(-1.407 25.994)"/></svg>