<svg xmlns="http://www.w3.org/2000/svg" width="224.141" height="28.13" viewBox="0 0 224.141 28.13"><defs><style>.a{fill:#361413;}</style></defs><path class="a" d="M-108.141-17.226l-2.262.261c-.957.087-2.32.2-2.726.2-.145,0-.522-.029-1.073-.058l.493,4.988a22.1,22.1,0,0,1,3.828-.609l1.74-.2v6.322c0,2.784.029,3.19.319,4.205a4.2,4.2,0,0,0,2.7,2.755,21.257,21.257,0,0,0,5.568.522c1.682,0,4.959-.2,7.743-.464.609-.058.638-.087,1.363-.116h.464l-.174-5.423A32.569,32.569,0,0,1-99.5-3.625c-1.711,0-2.755-.145-3.074-.464-.406-.319-.464-.783-.464-2.9V-13.2l7.946-.928a9.781,9.781,0,0,1-2.117,2.668,15.225,15.225,0,0,1-3.045,2.233,15.3,15.3,0,0,1,4.06,3.277,20.609,20.609,0,0,0,4.176-3.973,27.565,27.565,0,0,0,3.132-5.133,3.87,3.87,0,0,1,.957-1.6l-2.9-2.668a5.376,5.376,0,0,1-2.059.464l-10.121,1.1v-2.32a17.7,17.7,0,0,1,.232-3.48h-5.568a24.057,24.057,0,0,1,.2,3.6Zm23.2,8.961c1.769-.145,2.726-.174,5.974-.174h13.8a55.972,55.972,0,0,1,5.974.174v-5.6a47.582,47.582,0,0,1-5.945.261H-79a41.094,41.094,0,0,1-5.945-.261Zm50.46-11.368,1.218-.406a17.326,17.326,0,0,0-2.465-4.64l-2.639.783a11.927,11.927,0,0,1,1.189,1.914l.116.2.058.087a19.909,19.909,0,0,1-2.233.087h-12.47a25.448,25.448,0,0,1-4.495-.232v5.191a28.266,28.266,0,0,1,4.408-.174h12.47c-1.537,6.67-6.844,11.861-14.587,14.3a15.678,15.678,0,0,1,3.683,4.872C-41.064-1.74-36.076-7.482-33.64-16.7c.116-.406.174-.667.2-.754a4.93,4.93,0,0,1,.2-.609Zm.319-5.075A17.43,17.43,0,0,1-31.9-20.242l2.407-.841a12.833,12.833,0,0,0-2.262-4.379Zm9.889,1.189a13.621,13.621,0,0,1,.145,2.2c0,1.131-.058,3.886-.116,6.815-.145,5.829-.145,5.829-.145,6.583,0,4.06.551,5.916,2.2,7.511,1.566,1.479,3.77,2.2,6.728,2.2A11.745,11.745,0,0,0-6.351-1.943C-4.756-3.712-3.8-5.829-2.7-10.179a17.628,17.628,0,0,1-4.959-3.045,22.037,22.037,0,0,1-1.16,5.249c-1.131,3.132-3.451,4.9-6.438,4.9a3.9,3.9,0,0,1-3.393-1.392c-.493-.783-.609-1.653-.609-4.553,0-4.843.348-12.586.667-14.413ZM2.494-16.907h.493c.087,0,.377,0,.783.029,1.073.058,1.073.058,2.175.087,3.335.145,3.828.174,5.394.174.261,0,.551,0,1.218-.029v.7c.029.7.029.7.029.754v.435c-.9.029-1.334.029-1.943.029A44.765,44.765,0,0,1,3.509-15.2l-.058,4.321c.87,0,1.015.029,2.291.087,1.653.087,2.987.116,4.669.116.435,0,1.624-.029,2.233-.029,0,.145.029.725.058,1.711h-.9a14.65,14.65,0,0,0-5.162.783A5.056,5.056,0,0,0,2.987-3.48c0,3.364,2.7,5.307,7.453,5.307,3.161,0,5.365-.812,6.322-2.291a5.038,5.038,0,0,0,.7-2.929A15.043,15.043,0,0,1,21.576-.812a15.37,15.37,0,0,1,1.972,1.856L26.3-3.625c-.464-.29-.667-.406-1.1-.7a28.893,28.893,0,0,0-3.886-2.407,16.613,16.613,0,0,0-3.973-1.566c-.058-1.218-.058-1.218-.087-2.552,1.595-.058,4.379-.261,5.684-.406,1.247-.116,1.247-.116,1.856-.145l-.116-4.437a45.883,45.883,0,0,1-7.482.87v-1.827a56.91,56.91,0,0,0,5.829-.493c1.537-.2,1.711-.2,2.552-.261l-.145-4.437A44.637,44.637,0,0,1,17.2-20.967a18.033,18.033,0,0,1,.232-3.016h-5.1a20.258,20.258,0,0,1,.174,3.161c-.87.029-1.247.029-1.6.029A41.653,41.653,0,0,1,2.552-21.4ZM12.7-4.669s.029.319.029.493c0,1.3-.7,1.856-2.32,1.856-1.45,0-2.262-.435-2.262-1.16,0-.9,1.015-1.392,2.784-1.392A6.262,6.262,0,0,1,12.7-4.669ZM30.247-16.008c2.233-.319,6.96-.58,12.963-.754a4.719,4.719,0,0,1,.029.7v.9a6.55,6.55,0,0,0-2.262-.319c-4,0-6.728,2.262-6.728,5.568,0,3.1,2.378,5.307,5.742,5.307a5.293,5.293,0,0,0,3.886-1.363,4.8,4.8,0,0,1-2.146,2.291c-1.392.87-3.045,1.334-5.974,1.769a13.06,13.06,0,0,1,2.755,4.582A23.438,23.438,0,0,0,44.341.319a9.356,9.356,0,0,0,4.785-8.033,9.223,9.223,0,0,0-1.16-4.843v-4.292c1.16-.029,1.363-.029,2.9-.029a48.321,48.321,0,0,1,5.22.145l-.029-4.756c-1.16.116-3.306.174-8.12.2a19.631,19.631,0,0,1,.145-2.958H42.949a16.324,16.324,0,0,1,.2,3.074c-2.7.087-10.5.29-11.281.29-.725,0-1.044-.029-1.769-.087Zm11.078,4.176c1.16,0,1.914.609,1.914,1.508a1.978,1.978,0,0,1-2.2,1.74,1.717,1.717,0,0,1-1.914-1.566C39.121-11.136,40.049-11.832,41.325-11.832Zm17.864-.9a36.083,36.083,0,0,1,4.524-.812c-1.16,4.582-3.6,10.353-5.452,12.818L63.046,1.8c.174-.406.232-.551.464-1.044a62.613,62.613,0,0,0,3.074-7.482,57.5,57.5,0,0,0,2.059-7.221,10.529,10.529,0,0,1,1.16-.058c1.015,0,1.421.116,1.74.493a3.407,3.407,0,0,1,.551,2.349,25.623,25.623,0,0,1-.783,6.438c-.319.928-.7,1.305-1.305,1.305a13.368,13.368,0,0,1-3.973-1.044,13.4,13.4,0,0,1,.435,3.451A12.939,12.939,0,0,1,66.381.667a16.568,16.568,0,0,0,4.611.783,5.539,5.539,0,0,0,2.262-.406A4.659,4.659,0,0,0,75.11-.7c1.16-2,1.827-5.771,1.827-10.3,0-3.277-.58-5.046-2.059-6.235a6.389,6.389,0,0,0-4.118-1.16c-.406,0-.754.029-1.247.058.116-.667.319-1.769.551-3.1a14.3,14.3,0,0,1,.464-2.291l-5.249-.493v.493a46.226,46.226,0,0,1-.667,5.742c-1.885.232-4.669.464-5.6.464h-.261Zm16.82-5.916c2.668,3.161,4.466,7.366,5.423,12.673l4.756-2.262a30.17,30.17,0,0,0-5.916-12.383ZM103.066-6.409a8.72,8.72,0,0,1-.087-1.131,3,3,0,0,1,1.653-2.871,19.684,19.684,0,0,0,3.509-2.407,5.463,5.463,0,0,0,1.8-4.263c0-4-3.335-6.525-8.671-6.525-3.335,0-5.916.986-7.6,2.9a7.272,7.272,0,0,0-1.856,4.437l5.974.551a3.879,3.879,0,0,1,.522-1.769,3.064,3.064,0,0,1,2.813-1.363c1.74,0,2.755.812,2.755,2.175,0,.957-.464,1.566-1.885,2.407-2.059,1.247-2.291,1.421-2.987,2.233A6.039,6.039,0,0,0,97.73-7.743a7.659,7.659,0,0,1-.058,1.334Zm-5.6,1.972V1.044H103.3V-4.437Z" transform="translate(114.202 25.462)"/></svg>