<svg xmlns="http://www.w3.org/2000/svg" width="312.852" height="28.159" viewBox="0 0 312.852 28.159"><defs><style>.a{fill:#361413;}</style></defs><path class="a" d="M-147.871-19.082l.348-.783c.174-.377.232-.493.638-1.479.261-.7.348-.9.7-1.711l-5.336-1.1c-.609,4.06-3.857,9.338-7.453,12.151a14.22,14.22,0,0,1,4.234,3.248,24.014,24.014,0,0,0,4.611-5.655h5.916c-.348,6.5-3.1,9.889-9.889,12.18a12.543,12.543,0,0,1,3.393,4.582c7.917-3.364,11.223-8.091,11.745-16.762h2.059a42.918,42.918,0,0,1,4.611.174v-5.046a38.79,38.79,0,0,1-4.582.2h-.29l2.32-.754a18.644,18.644,0,0,0-2.262-4.495l-2.9.841a20.144,20.144,0,0,1,2.175,4.408Zm12.18-5.481a22.591,22.591,0,0,1,2.262,4.524l2.784-.928a20.746,20.746,0,0,0-2.291-4.408Zm6.815,16.3c1.769-.145,2.726-.174,5.974-.174h13.8a55.972,55.972,0,0,1,5.974.174v-5.6a47.582,47.582,0,0,1-5.945.261h-13.862a41.094,41.094,0,0,1-5.945-.261ZM-91-23.9A25.757,25.757,0,0,1-92.133-18.7,133.241,133.241,0,0,1-96.947-4.292a5.371,5.371,0,0,1-.725.029l-.9.029c-.319.029-.551.029-.725.029-.145,0-.377,0-.928-.029l.754,5.423a15.222,15.222,0,0,1,1.6-.261L-91.234.29c4.5-.464,7.453-.87,11.6-1.6a22.117,22.117,0,0,1,1.073,3.248L-73.6-.58a62.506,62.506,0,0,0-6.9-13.862l-4.553,1.74A47.815,47.815,0,0,1-81.4-5.8,88.915,88.915,0,0,1-91.35-4.669c1.885-4.814,3.132-8.5,5.394-16.008a11.554,11.554,0,0,1,.754-2.146Zm21.141,6.844h.435c.406,0,.609,0,1.015.029,1.247.029,1.247.029,2.494.029h.928c-.116.2-.116.2-.551.928-.435.7-1.6,2.378-2.233,3.161a19.911,19.911,0,0,1-3.074,3.016l3.683,3.654A18.422,18.422,0,0,1-64.38-9.164c2.03-1.769,4.031-2.784,5.51-2.784a1.2,1.2,0,0,1,1.16.725c-1.16.522-1.45.638-2.146.986a12.774,12.774,0,0,0-4.176,3.1A5.4,5.4,0,0,0-65.453-3.48,4.662,4.662,0,0,0-63.162.638c1.566.928,3.625,1.334,6.9,1.334a57.233,57.233,0,0,0,6.989-.435,18.732,18.732,0,0,1,2.581-.261l-.319-5.22a27.466,27.466,0,0,1-9.28,1.45c-2.813,0-3.886-.435-3.886-1.537a2,2,0,0,1,.754-1.479,6.582,6.582,0,0,1,2.03-1.218l.261-.116a23.8,23.8,0,0,1-.145,3.074l4.727-.145a17.992,17.992,0,0,1-.116-2.494c0-1.276,0-1.305-.029-2.088a47.964,47.964,0,0,1,7.4-1.972l-1.769-4.582a12.16,12.16,0,0,1-2.32.87c-.928.29-1.711.551-1.8.58-1.537.522-1.537.522-2.03.7-.58-1.885-2.03-2.813-4.437-2.813a8.557,8.557,0,0,0-3.683.87,15.711,15.711,0,0,0,1.392-2.146c2.958-.087,6.583-.29,8.642-.493q1.262-.13,2.61-.261l-.174-4.611a42.506,42.506,0,0,1-7.337.928c-1.479.087-1.479.087-1.769.116.029-.058.2-.522.58-1.363a8.429,8.429,0,0,1,.609-1.363l-5.307-.406a10.5,10.5,0,0,1-.9,3.219H-63.8a28.211,28.211,0,0,1-6-.406Zm38.947,8.12a11.506,11.506,0,0,1,.58,1.334A24.212,24.212,0,0,0-26.1-9.512L-28.159-6.7a34.857,34.857,0,0,1,7.424,4.031c-2.407-.667-3.857-1.015-7.743-1.885L-30.392-.667A54.816,54.816,0,0,1-18.473,2.784l1.682-4.147a39,39,0,0,0-3.828-1.276l2.291-3.712A45.989,45.989,0,0,0-25.549-9.86c.609-.377.87-.551,1.6-1.044a29.355,29.355,0,0,0,7.221,3.567,18.1,18.1,0,0,1,1.972-4.669,19.511,19.511,0,0,1-5.684-1.972,26.426,26.426,0,0,0,4.06-5.655c.174-.348.232-.435.377-.7l-2-2.349a12.93,12.93,0,0,1-2.349.145h-3.161c.145-.29.2-.406.348-.725a10.212,10.212,0,0,1,.464-.957l-4.64-.609a8.3,8.3,0,0,1-1.334,2.842,12.954,12.954,0,0,1-3.277,3.422c.609-1.015.957-1.508.957-1.537l-3.306-1.8a25.179,25.179,0,0,1-2.61,4.727c-.232-.348-.319-.464-.58-.812a46.461,46.461,0,0,0,2.552-4.785,6.889,6.889,0,0,1,.493-.957l-3.857-1.3a15.23,15.23,0,0,1-1.653,4l-.725-.812-2,3.567a30.2,30.2,0,0,1,3.625,4.321c-.493.638-.609.812-1.044,1.363h-.667c-.464,0-.87-.029-1.8-.087l.348,4a6.065,6.065,0,0,1,1.189-.116c1.131-.058,1.131-.058,1.856-.116.2,0,.551-.029.986-.058v8.41a20.854,20.854,0,0,1-.174,3.219h4.118a18.348,18.348,0,0,1-.174-3.219V-9.28l1.276-.145c.087.435.116.58.232,1.189Zm-3.509-6c.957-1.334,1.45-2.03,1.943-2.784a11.021,11.021,0,0,1,2.407,3.248c.754-.58.986-.783,1.421-1.16a12.929,12.929,0,0,0,1.45,1.856,17.024,17.024,0,0,1-3.538,1.653c-.29-1.073-.522-1.682-1.247-3.683Zm8.671-3.915H-21.9a15.952,15.952,0,0,1-2.03,2.494A11.184,11.184,0,0,1-25.9-18.647Zm-8.787,4.089c.377,1.015.435,1.247.638,1.943-.232.029-.464.029-.7.058-.638.029-.783.029-1.479.058C-35.554-13.369-35.177-13.891-34.539-14.761ZM-41.9-8.091a25.015,25.015,0,0,1-.841,7.772l2.958,1.769c.638-2.639.783-4.408.87-9.164Zm8.12.435a70.436,70.436,0,0,1,.377,7.4l2.987-.522c-.261-3.8-.261-3.8-.725-7.366ZM5.133-19.14A22.9,22.9,0,0,1,.986-15.921H-2.407a21.4,21.4,0,0,1,.145,2.929v9.918c0,.551-.348.725-1.421.725a33.933,33.933,0,0,1-4.408-.377A20.993,20.993,0,0,1-6.844,2.088c2,.087,2.958.116,3.857.116C-.7,2.2.522,1.972,1.334,1.421a3.081,3.081,0,0,0,1.131-2.7v-10.5a55.157,55.157,0,0,0,7.6-5.974c2.349-2.291,2.349-2.291,2.987-2.842l-2.813-3.132a25.813,25.813,0,0,1-3.538.174H-7.772a41.406,41.406,0,0,1-4.35-.174v4.756c1.392-.116,2.494-.174,4.379-.174Zm14.529-4.379a13.621,13.621,0,0,1,.145,2.2c0,1.131-.058,3.886-.116,6.815-.145,5.829-.145,5.829-.145,6.583,0,4.06.551,5.916,2.2,7.511,1.566,1.479,3.77,2.2,6.728,2.2a11.745,11.745,0,0,0,9.106-3.741c1.6-1.769,2.552-3.886,3.654-8.236a17.628,17.628,0,0,1-4.959-3.045,22.037,22.037,0,0,1-1.16,5.249c-1.131,3.132-3.451,4.9-6.438,4.9a3.9,3.9,0,0,1-3.393-1.392c-.493-.783-.609-1.653-.609-4.553,0-4.843.348-12.586.667-14.413Zm26.767,6.612h.493c.087,0,.377,0,.783.029,1.073.058,1.073.058,2.175.087,3.335.145,3.828.174,5.394.174.261,0,.551,0,1.218-.029v.7c.029.7.029.7.029.754v.435c-.9.029-1.334.029-1.943.029a44.765,44.765,0,0,1-7.134-.464l-.058,4.321c.87,0,1.015.029,2.291.087,1.653.087,2.987.116,4.669.116.435,0,1.624-.029,2.233-.029,0,.145.029.725.058,1.711h-.9a14.65,14.65,0,0,0-5.162.783A5.056,5.056,0,0,0,46.922-3.48c0,3.364,2.7,5.307,7.453,5.307,3.161,0,5.365-.812,6.322-2.291a5.038,5.038,0,0,0,.7-2.929A15.043,15.043,0,0,1,65.511-.812a15.37,15.37,0,0,1,1.972,1.856l2.755-4.669c-.464-.29-.667-.406-1.1-.7A28.893,28.893,0,0,0,65.25-6.728a16.614,16.614,0,0,0-3.973-1.566c-.058-1.218-.058-1.218-.087-2.552,1.595-.058,4.379-.261,5.684-.406,1.247-.116,1.247-.116,1.856-.145l-.116-4.437a45.883,45.883,0,0,1-7.482.87v-1.827a56.91,56.91,0,0,0,5.829-.493c1.537-.2,1.711-.2,2.552-.261l-.145-4.437a44.637,44.637,0,0,1-8.236,1.015,18.034,18.034,0,0,1,.232-3.016h-5.1a20.259,20.259,0,0,1,.174,3.161c-.87.029-1.247.029-1.595.029a41.653,41.653,0,0,1-8.352-.609ZM56.637-4.669s.029.319.029.493c0,1.3-.7,1.856-2.32,1.856-1.45,0-2.262-.435-2.262-1.16,0-.9,1.015-1.392,2.784-1.392A6.262,6.262,0,0,1,56.637-4.669ZM74.182-16.008c2.233-.319,6.96-.58,12.963-.754a4.719,4.719,0,0,1,.029.7v.9a6.549,6.549,0,0,0-2.262-.319c-4,0-6.728,2.262-6.728,5.568,0,3.1,2.378,5.307,5.742,5.307a5.293,5.293,0,0,0,3.886-1.363,4.8,4.8,0,0,1-2.146,2.291c-1.392.87-3.045,1.334-5.974,1.769a13.06,13.06,0,0,1,2.755,4.582A23.438,23.438,0,0,0,88.276.319a9.356,9.356,0,0,0,4.785-8.033,9.223,9.223,0,0,0-1.16-4.843v-4.292c1.16-.029,1.363-.029,2.9-.029a48.321,48.321,0,0,1,5.22.145l-.029-4.756c-1.16.116-3.306.174-8.12.2a19.631,19.631,0,0,1,.145-2.958H86.884a16.324,16.324,0,0,1,.2,3.074c-2.7.087-10.5.29-11.281.29-.725,0-1.044-.029-1.769-.087ZM85.26-11.832c1.16,0,1.914.609,1.914,1.508a1.978,1.978,0,0,1-2.2,1.74,1.717,1.717,0,0,1-1.914-1.566C83.056-11.136,83.984-11.832,85.26-11.832Zm17.864-.9a36.083,36.083,0,0,1,4.524-.812c-1.16,4.582-3.6,10.353-5.452,12.818L106.981,1.8c.174-.406.232-.551.464-1.044a62.613,62.613,0,0,0,3.074-7.482,57.5,57.5,0,0,0,2.059-7.221,10.529,10.529,0,0,1,1.16-.058c1.015,0,1.421.116,1.74.493a3.407,3.407,0,0,1,.551,2.349,25.623,25.623,0,0,1-.783,6.438c-.319.928-.7,1.305-1.305,1.305a13.368,13.368,0,0,1-3.973-1.044,13.4,13.4,0,0,1,.435,3.451,12.939,12.939,0,0,1-.087,1.682,16.568,16.568,0,0,0,4.611.783,5.539,5.539,0,0,0,2.262-.406A4.659,4.659,0,0,0,119.045-.7c1.16-2,1.827-5.771,1.827-10.3,0-3.277-.58-5.046-2.059-6.235a6.389,6.389,0,0,0-4.118-1.16c-.406,0-.754.029-1.247.058.116-.667.319-1.769.551-3.1a14.3,14.3,0,0,1,.464-2.291l-5.249-.493v.493a46.226,46.226,0,0,1-.667,5.742c-1.885.232-4.669.464-5.6.464h-.261Zm16.82-5.916c2.668,3.161,4.466,7.366,5.423,12.673l4.756-2.262a30.17,30.17,0,0,0-5.916-12.383ZM147-6.409a8.717,8.717,0,0,1-.087-1.131,3,3,0,0,1,1.653-2.871,19.684,19.684,0,0,0,3.509-2.407,5.463,5.463,0,0,0,1.8-4.263c0-4-3.335-6.525-8.671-6.525-3.335,0-5.916.986-7.6,2.9a7.272,7.272,0,0,0-1.856,4.437l5.974.551a3.88,3.88,0,0,1,.522-1.769,3.064,3.064,0,0,1,2.813-1.363c1.74,0,2.755.812,2.755,2.175,0,.957-.464,1.566-1.885,2.407-2.059,1.247-2.291,1.421-2.987,2.233a6.039,6.039,0,0,0-1.276,4.292,7.659,7.659,0,0,1-.058,1.334Zm-5.6,1.972V1.044h5.829V-4.437Z" transform="translate(158.978 25.375)"/></svg>