<svg xmlns="http://www.w3.org/2000/svg" width="223.329" height="26.912" viewBox="0 0 223.329 26.912"><defs><style>.a{fill:#361413;}</style></defs><path class="a" d="M-95.236-.9V1.044h5.249a39.085,39.085,0,0,1-.2-4.785v-14.7c0-1.363.029-2.407.087-3.422a32.957,32.957,0,0,1-3.6.116H-109.33a33.956,33.956,0,0,1-3.509-.116c.087,1.189.116,2.088.116,3.335V-3.625a36.945,36.945,0,0,1-.232,4.727h5.278v-2Zm0-4.64h-12.441V-17.11h12.441Zm9.86-2.726c1.769-.145,2.726-.174,5.974-.174h13.8a55.972,55.972,0,0,1,5.974.174v-5.6a47.582,47.582,0,0,1-5.945.261H-79.431a41.094,41.094,0,0,1-5.945-.261Zm39.324,9.976a36.48,36.48,0,0,1-.174-4.437v-7.54a.8.8,0,0,0,.261.145,8.854,8.854,0,0,0,1.044.435A54.5,54.5,0,0,1-35.786-4.64l2.755-4.93a61.753,61.753,0,0,0-13.2-6.032v-3.973a30.626,30.626,0,0,1,.145-4.234h-5.6a30.362,30.362,0,0,1,.2,4.2V-2.726c-.029,2.378-.058,3.219-.174,4.437ZM-41.3-20.938A19.663,19.663,0,0,1-38.425-16.7l2.755-1.334a20.717,20.717,0,0,0-2.871-4.147Zm4-1.8a22.265,22.265,0,0,1,2.842,4.147l2.668-1.305a20.387,20.387,0,0,0-2.9-4.031Zm13.456-.783a13.621,13.621,0,0,1,.145,2.2c0,1.131-.058,3.886-.116,6.815-.145,5.829-.145,5.829-.145,6.583,0,4.06.551,5.916,2.2,7.511,1.566,1.479,3.77,2.2,6.728,2.2A11.745,11.745,0,0,0-5.916-1.943c1.6-1.769,2.552-3.886,3.654-8.236a17.628,17.628,0,0,1-4.959-3.045,22.037,22.037,0,0,1-1.16,5.249c-1.131,3.132-3.451,4.9-6.438,4.9a3.9,3.9,0,0,1-3.393-1.392c-.493-.783-.609-1.653-.609-4.553,0-4.843.348-12.586.667-14.413ZM2.929-16.907h.493c.087,0,.377,0,.783.029,1.073.058,1.073.058,2.175.087,3.335.145,3.828.174,5.394.174.261,0,.551,0,1.218-.029v.7c.029.7.029.7.029.754v.435c-.9.029-1.334.029-1.943.029A44.765,44.765,0,0,1,3.944-15.2l-.058,4.321c.87,0,1.015.029,2.291.087,1.653.087,2.987.116,4.669.116.435,0,1.624-.029,2.233-.029,0,.145.029.725.058,1.711h-.9a14.65,14.65,0,0,0-5.162.783A5.056,5.056,0,0,0,3.422-3.48c0,3.364,2.7,5.307,7.453,5.307,3.161,0,5.365-.812,6.322-2.291a5.038,5.038,0,0,0,.7-2.929A15.043,15.043,0,0,1,22.011-.812a15.37,15.37,0,0,1,1.972,1.856l2.755-4.669c-.464-.29-.667-.406-1.1-.7A28.893,28.893,0,0,0,21.75-6.728a16.613,16.613,0,0,0-3.973-1.566c-.058-1.218-.058-1.218-.087-2.552,1.595-.058,4.379-.261,5.684-.406,1.247-.116,1.247-.116,1.856-.145l-.116-4.437a45.883,45.883,0,0,1-7.482.87v-1.827a56.91,56.91,0,0,0,5.829-.493c1.537-.2,1.711-.2,2.552-.261l-.145-4.437a44.637,44.637,0,0,1-8.236,1.015,18.033,18.033,0,0,1,.232-3.016h-5.1a20.258,20.258,0,0,1,.174,3.161c-.87.029-1.247.029-1.6.029A41.653,41.653,0,0,1,2.987-21.4ZM13.137-4.669s.029.319.029.493c0,1.3-.7,1.856-2.32,1.856-1.45,0-2.262-.435-2.262-1.16,0-.9,1.015-1.392,2.784-1.392A6.262,6.262,0,0,1,13.137-4.669ZM30.682-16.008c2.233-.319,6.96-.58,12.963-.754a4.719,4.719,0,0,1,.029.7v.9a6.55,6.55,0,0,0-2.262-.319c-4,0-6.728,2.262-6.728,5.568,0,3.1,2.378,5.307,5.742,5.307a5.293,5.293,0,0,0,3.886-1.363,4.8,4.8,0,0,1-2.146,2.291c-1.392.87-3.045,1.334-5.974,1.769a13.06,13.06,0,0,1,2.755,4.582A23.438,23.438,0,0,0,44.776.319a9.356,9.356,0,0,0,4.785-8.033,9.223,9.223,0,0,0-1.16-4.843v-4.292c1.16-.029,1.363-.029,2.9-.029a48.321,48.321,0,0,1,5.22.145l-.029-4.756c-1.16.116-3.306.174-8.12.2a19.631,19.631,0,0,1,.145-2.958H43.384a16.324,16.324,0,0,1,.2,3.074c-2.7.087-10.5.29-11.281.29-.725,0-1.044-.029-1.769-.087ZM41.76-11.832c1.16,0,1.914.609,1.914,1.508a1.978,1.978,0,0,1-2.2,1.74,1.717,1.717,0,0,1-1.914-1.566C39.556-11.136,40.484-11.832,41.76-11.832Zm17.864-.9a36.083,36.083,0,0,1,4.524-.812C62.988-8.961,60.552-3.19,58.7-.725L63.481,1.8c.174-.406.232-.551.464-1.044a62.613,62.613,0,0,0,3.074-7.482,57.5,57.5,0,0,0,2.059-7.221,10.529,10.529,0,0,1,1.16-.058c1.015,0,1.421.116,1.74.493a3.407,3.407,0,0,1,.551,2.349,25.623,25.623,0,0,1-.783,6.438c-.319.928-.7,1.305-1.305,1.305a13.368,13.368,0,0,1-3.973-1.044A13.4,13.4,0,0,1,66.9-1.015,12.939,12.939,0,0,1,66.816.667a16.568,16.568,0,0,0,4.611.783,5.539,5.539,0,0,0,2.262-.406A4.659,4.659,0,0,0,75.545-.7c1.16-2,1.827-5.771,1.827-10.3,0-3.277-.58-5.046-2.059-6.235a6.389,6.389,0,0,0-4.118-1.16c-.406,0-.754.029-1.247.058.116-.667.319-1.769.551-3.1a14.3,14.3,0,0,1,.464-2.291l-5.249-.493v.493a46.226,46.226,0,0,1-.667,5.742c-1.885.232-4.669.464-5.6.464h-.261Zm16.82-5.916c2.668,3.161,4.466,7.366,5.423,12.673l4.756-2.262a30.17,30.17,0,0,0-5.916-12.383ZM103.5-6.409a8.72,8.72,0,0,1-.087-1.131,3,3,0,0,1,1.653-2.871,19.684,19.684,0,0,0,3.509-2.407,5.463,5.463,0,0,0,1.8-4.263c0-4-3.335-6.525-8.671-6.525-3.335,0-5.916.986-7.6,2.9a7.272,7.272,0,0,0-1.856,4.437l5.974.551a3.879,3.879,0,0,1,.522-1.769,3.064,3.064,0,0,1,2.813-1.363c1.74,0,2.755.812,2.755,2.175,0,.957-.464,1.566-1.885,2.407-2.059,1.247-2.291,1.421-2.987,2.233a6.039,6.039,0,0,0-1.276,4.292,7.659,7.659,0,0,1-.058,1.334ZM97.9-4.437V1.044h5.829V-4.437Z" transform="translate(112.955 24.244)"/></svg>