<svg xmlns="http://www.w3.org/2000/svg" width="101.106" height="23.344" viewBox="0 0 101.106 23.344"><defs><style>.a{fill:#fff;}</style></defs><path class="a" d="M-85.661-15.815a.418.418,0,0,0,.473-.473v-5.521a.45.45,0,0,0-.5-.5c-.315,0-.473.189-.536.5-.063.5-.221.757-.442.757a1.743,1.743,0,0,1-.757-.284,10.345,10.345,0,0,0-5.016-1.356,7.394,7.394,0,0,0-4.8,1.514A5.39,5.39,0,0,0-99.32-16.73a4.778,4.778,0,0,0,1.987,4.006,23.454,23.454,0,0,0,4.511,2.145l.6.252A12.834,12.834,0,0,1-87.932-7.9,4.042,4.042,0,0,1-86.8-5.089a4.256,4.256,0,0,1-1.325,3.312A4.808,4.808,0,0,1-91.528-.609a6.715,6.715,0,0,1-5.237-2.145,7.241,7.241,0,0,1-1.8-4.1c-.063-.315-.221-.473-.5-.473a.441.441,0,0,0-.473.5V-.452a.418.418,0,0,0,.473.473c.315,0,.473-.158.5-.5.063-.6.252-.915.568-.915a2.874,2.874,0,0,1,1.1.473A9.6,9.6,0,0,0-91.528.652,8.06,8.06,0,0,0-86.986-.609a5.592,5.592,0,0,0,2.618-4.953,5.4,5.4,0,0,0-1.356-3.691c-.978-1.073-3.092-2.24-6.435-3.439l-.789-.284c-2.745-.978-4.133-2.4-4.133-4.29a4.04,4.04,0,0,1,1.1-2.808,4.683,4.683,0,0,1,3.628-1.483,5.846,5.846,0,0,1,4.511,1.8,6.475,6.475,0,0,1,1.64,3.5A.5.5,0,0,0-85.661-15.815Zm22.524-5.868a.473.473,0,0,0-.5-.473h-17.6a.473.473,0,0,0-.5.473l-.379,4.858c-.032.315.126.5.379.5a.5.5,0,0,0,.536-.442,7.322,7.322,0,0,1,.852-2.587c.662-1.167,2.114-1.767,4.322-1.767h2.366V-3.259c0,1.136-.284,1.83-.883,2.082a6.814,6.814,0,0,1-1.956.347c-.347.032-.5.189-.5.442,0,.315.158.473.5.473h7.855c.315,0,.5-.126.5-.379a.506.506,0,0,0-.5-.536,4.827,4.827,0,0,1-1.987-.41c-.568-.315-.852-.978-.852-2.019V-21.115h2.587c2.3,0,3.754.631,4.353,1.924a8.363,8.363,0,0,1,.694,2.429.449.449,0,0,0,.5.442.441.441,0,0,0,.473-.5Zm7.508,12.776,4.006-10.126,4.038,10.126ZM-39.6-.357q0-.426-.473-.473a3.406,3.406,0,0,1-2.9-2.271l-7.666-19.022a.578.578,0,0,0-.568-.379h-.032a.578.578,0,0,0-.568.379L-59.319-3.291A3.4,3.4,0,0,1-62.6-.8h.315c-.347,0-.5.158-.5.41,0,.315.158.473.5.473h6.4c.347,0,.5-.126.5-.379a.464.464,0,0,0-.5-.5c-1.514-.063-2.24-.41-2.24-1.073a4.1,4.1,0,0,1,.347-1.388l1.7-4.448h8.9l1.767,4.29A4.337,4.337,0,0,1-45.092-1.9c0,.662-.757,1.041-2.271,1.1-.315,0-.5.158-.5.41a.441.441,0,0,0,.5.473h7.256C-39.76.085-39.6-.073-39.6-.357Zm6.719-18.392c0-1.262.442-2.019,1.293-2.24a7.2,7.2,0,0,1,1.514-.158h1.2c4.069,0,6.12,1.577,6.12,4.764s-2.429,4.8-7.287,4.8h-2.839ZM-17.678-.357c0-.284-.158-.41-.473-.473a3.073,3.073,0,0,1-2.555-1.83c-1.2-2.3-2.051-3.849-2.555-4.669A7.891,7.891,0,0,0-26.826-10.7V-10.8a8.309,8.309,0,0,0,3.786-1.041,5.061,5.061,0,0,0,2.65-4.764,4.894,4.894,0,0,0-2.745-4.48,10.307,10.307,0,0,0-5.142-1.073h-9.5c-.315,0-.5.158-.5.41a.473.473,0,0,0,.473.5,4.829,4.829,0,0,1,2.145.568c.41.284.6.915.6,1.956V-3.259q0,1.656-.946,2.082a6.837,6.837,0,0,1-1.767.347c-.315.032-.5.189-.5.442a.441.441,0,0,0,.5.473h7.729q.473,0,.473-.379a.481.481,0,0,0-.473-.536,5.312,5.312,0,0,1-1.924-.379,2.118,2.118,0,0,1-.915-2.051v-7.224h2.24a5.1,5.1,0,0,1,4.29,2.4A36.866,36.866,0,0,1-22.347-.294a.578.578,0,0,0,.568.379h3.628C-17.836.085-17.678-.073-17.678-.357ZM1.313-21.683a.473.473,0,0,0-.5-.473h-17.6a.473.473,0,0,0-.5.473l-.379,4.858c-.032.315.126.5.379.5a.5.5,0,0,0,.536-.442,7.322,7.322,0,0,1,.852-2.587c.662-1.167,2.114-1.767,4.322-1.767h2.366V-3.259c0,1.136-.284,1.83-.883,2.082a6.814,6.814,0,0,1-1.956.347c-.347.032-.5.189-.5.442,0,.315.158.473.5.473h7.855c.315,0,.5-.126.5-.379a.506.506,0,0,0-.5-.536A4.827,4.827,0,0,1-6.2-1.24c-.568-.315-.852-.978-.852-2.019V-21.115H-4.46c2.3,0,3.754.631,4.353,1.924a8.363,8.363,0,0,1,.694,2.429.449.449,0,0,0,.5.442.441.441,0,0,0,.473-.5Z" transform="translate(99.541 22.692)"/></svg>