<svg xmlns="http://www.w3.org/2000/svg" width="145.187" height="50.689" viewBox="0 0 145.187 50.689"><defs><style>.a{fill:none;stroke:#2d6480;stroke-width:8px;}.b{fill:#361413;}</style></defs><g transform="translate(-675.653 -434.049)"><g transform="translate(-1138.547 -2828.377)"><path class="a" d="M-242.231-474.017l-21.223,22.606,21.223-22.606-21.223-22.607,21.223,22.607,21.223-22.607-21.223,22.607,21.222,22.606Z" transform="translate(2080.569 3761.787)"/></g><path class="b" d="M-35.064,0V-36.192h9.408L-8.28-14.064V-36.192H1.08V0H-8.28L-25.656-22.128V0Zm51.5-12.432a5.58,5.58,0,0,0,.456,2.28,6.108,6.108,0,0,0,1.2,1.8,5.279,5.279,0,0,0,1.776,1.2,5.6,5.6,0,0,0,2.184.432,5.6,5.6,0,0,0,2.184-.432,5.279,5.279,0,0,0,1.776-1.2,6.108,6.108,0,0,0,1.2-1.8,5.46,5.46,0,0,0,.456-2.232,5.344,5.344,0,0,0-.456-2.184,6.108,6.108,0,0,0-1.2-1.8,5.279,5.279,0,0,0-1.776-1.2A5.6,5.6,0,0,0,22.056-18a5.6,5.6,0,0,0-2.184.432,5.279,5.279,0,0,0-1.776,1.2,6.2,6.2,0,0,0-1.2,1.776A5.179,5.179,0,0,0,16.44-12.432Zm-9.168-.1a11.982,11.982,0,0,1,1.1-5.112,12.556,12.556,0,0,1,3.072-4.128,14.607,14.607,0,0,1,4.68-2.76,16.89,16.89,0,0,1,5.928-1.008,17.115,17.115,0,0,1,5.88.984,14.555,14.555,0,0,1,4.7,2.736,12.273,12.273,0,0,1,3.1,4.176,12.761,12.761,0,0,1,1.1,5.352,12.53,12.53,0,0,1-1.128,5.352,12.7,12.7,0,0,1-3.1,4.176A13.866,13.866,0,0,1,27.888-.048a18.072,18.072,0,0,1-5.976.96,17.294,17.294,0,0,1-5.856-.96,13.516,13.516,0,0,1-4.632-2.736A12.7,12.7,0,0,1,8.376-7.032,13.33,13.33,0,0,1,7.272-12.528Z" transform="translate(784 480)"/></g></svg>