<svg xmlns="http://www.w3.org/2000/svg" width="60.242" height="19.136" viewBox="0 0 60.242 19.136"><defs><style>.a{fill:#fff;}</style></defs><path class="a" d="M1.69-2.262v.468a.8.8,0,0,0,.468.806A10.121,10.121,0,0,0,6.786.078c4.108,0,6.188-1.846,6.188-5.018,0-2.678-1.456-4.264-5.876-5.8A4.019,4.019,0,0,1,4.03-14.612c0-2.236,1.222-3.12,3.016-3.12a9.316,9.316,0,0,1,4.5,1.222c.468.26.806.078.806-.442v-.39a.769.769,0,0,0-.494-.78,13,13,0,0,0-4.966-.936c-3.484,0-5.486,1.768-5.486,4.446,0,2.34,1.716,4.186,5.434,5.512C9.2-8.268,10.3-7.046,10.3-4.94c0,2.548-1.248,3.64-3.64,3.64A6.91,6.91,0,0,1,2.522-2.678C2.054-2.99,1.69-2.834,1.69-2.262ZM23.712-18.8h-1.82a.73.73,0,0,0-.754.546L15.21-.962c-.156.468.052.78.546.78H17.03a.74.74,0,0,0,.78-.546L19.4-5.72H26.13L27.716-.728a.74.74,0,0,0,.78.546h1.352c.494,0,.7-.312.546-.78l-5.928-17.29A.73.73,0,0,0,23.712-18.8ZM19.812-7.02l2.964-9.256L25.74-7.02ZM46.852-18.8h-1.3a.73.73,0,0,0-.754.546L39.832-2.886l-4.94-15.366a.73.73,0,0,0-.754-.546H32.76c-.494,0-.7.312-.546.78L38.142-.728a.73.73,0,0,0,.754.546h1.82a.73.73,0,0,0,.754-.546L47.4-18.018C47.554-18.486,47.346-18.8,46.852-18.8Zm14.118,0H50.908a.6.6,0,0,0-.676.676V-.858a.6.6,0,0,0,.676.676H60.97a.6.6,0,0,0,.676-.676V-.884a.6.6,0,0,0-.676-.676H52.91V-9.568h7.566c.442,0,.676-.208.676-.624a.6.6,0,0,0-.676-.676H52.91V-17.42h8.06a.6.6,0,0,0,.676-.676v-.026A.6.6,0,0,0,60.97-18.8Z" transform="translate(-1.404 19.058)"/></svg>