<svg xmlns="http://www.w3.org/2000/svg" width="28.871" height="13.738" viewBox="0 0 28.871 13.738"><defs><style>.a{fill:#fff;}</style></defs><path class="a" d="M-28.931-9.276c-.183,0-.259.076-.229.183a.263.263,0,0,0,.275.2h5.358c.137,0,.214-.031.244-.107a.235.235,0,0,0-.031-.321v-.015a5.561,5.561,0,0,0-.656-.687.186.186,0,0,0-.321.015l-.6.733Zm.748,3.816c-.183,0-.275.076-.229.2a.3.3,0,0,0,.29.183h3.8a.305.305,0,0,0,.259-.122.255.255,0,0,0-.015-.336c-.2-.229-.382-.443-.58-.641a.207.207,0,0,0-.336.031l-.55.687Zm.2-5.739c-.168,0-.259.076-.214.2a.267.267,0,0,0,.275.183H-24.4a.281.281,0,0,0,.244-.092.277.277,0,0,0-.031-.351c-.031-.015-.046-.046-.061-.061-.2-.229-.382-.443-.534-.6a.2.2,0,0,0-.336.031l-.55.687ZM-28.2-7.367c-.183,0-.259.076-.214.2a.267.267,0,0,0,.275.183h3.831a.281.281,0,0,0,.244-.092.258.258,0,0,0-.031-.336c-.2-.244-.4-.458-.55-.641a.2.2,0,0,0-.336.015l-.519.672Zm8.96-3.74v3.221c0,.427.092.7.321.809a3.634,3.634,0,0,0,1.313.153,6.123,6.123,0,0,0,1.359-.107.636.636,0,0,0,.488-.534c.015-.153-.076-.214-.214-.275a.331.331,0,0,1-.214-.214,4.48,4.48,0,0,1-.122-1.389V-9.6c0-.137-.046-.229-.153-.259-.168-.076-.275,0-.29.183a7.91,7.91,0,0,1-.244,1.664c-.076.2-.382.29-.916.29-.336,0-.5-.122-.5-.351v-2.793l.321-.214q.137-.092.137-.183c0-.107-.229-.351-.656-.733a.222.222,0,0,0-.351.031l-.4.473h-1.832c-.214-.107-.412-.214-.611-.321-.168-.076-.275,0-.275.183v1.45a4.762,4.762,0,0,1-1.4,3.679c-.107.092-.137.2-.076.275a.263.263,0,0,0,.336.061,4.4,4.4,0,0,0,2-4v-.946Zm1.16,6.029a9.052,9.052,0,0,1-1.755,2.885,12.659,12.659,0,0,1-2.152-2.885Zm-4.411,0a12.528,12.528,0,0,0,2.168,3.419,10.633,10.633,0,0,1-3.557,2.5c-.137.061-.2.153-.122.275a.224.224,0,0,0,.305.107,11.637,11.637,0,0,0,3.953-2.3,11.551,11.551,0,0,0,3.236,2.122A.251.251,0,0,0-16.17.936,2.418,2.418,0,0,1-15.8.463c.122-.137.107-.244-.076-.305a10.977,10.977,0,0,1-3.358-1.816,11.747,11.747,0,0,0,2.045-3.1l.351-.2c.092-.061.153-.122.153-.2,0-.137-.244-.412-.687-.824a.214.214,0,0,0-.351.015l-.412.5h-5.1c-.168,0-.259.076-.214.2a.286.286,0,0,0,.29.183ZM-25.3-3.124V-.041h-2.244V-3.124Zm-2.122-.382c-.259-.153-.5-.29-.717-.4-.153-.076-.275,0-.275.183V1.074a.218.218,0,0,0,.244.244h.382a.218.218,0,0,0,.244-.244V.341H-25.3v.687a.214.214,0,0,0,.229.244h.351a.225.225,0,0,0,.244-.244V-2.819l.351-.214a.206.206,0,0,0,.137-.183c0-.137-.229-.4-.687-.809-.137-.107-.259-.107-.351.031l-.382.488Zm15.371-6.716-.031-.229-.015-.137c-.015-.153-.076-.229-.183-.244a.214.214,0,0,0-.259.214A3.753,3.753,0,0,1-13.5-8.3a.8.8,0,0,0-.275.5.439.439,0,0,0,.137.321.669.669,0,0,0,.427.214.886.886,0,0,0,.687-.488,3.557,3.557,0,0,0,.488-1.969V-9.84H-1.959A6.417,6.417,0,0,1-2.4-8.757c-.061.137-.061.229.015.29a.255.255,0,0,0,.336,0,8.212,8.212,0,0,0,1.007-.855l.519-.092q.229-.046.229-.183c0-.183-.305-.58-.931-1.175a.214.214,0,0,0-.351.015L-2-10.222H-6.752v-1.389c.443-.168.656-.321.656-.458,0-.214-.412-.336-1.267-.351-.168,0-.259.076-.259.229v1.969ZM-7.637-.865A6.566,6.566,0,0,1-10.583-3.49a11.762,11.762,0,0,0,.275-1.389c.427-.092.641-.214.641-.336,0-.2-.412-.366-1.236-.55a.213.213,0,0,0-.275.214A10.946,10.946,0,0,1-13.773.83a.194.194,0,0,0-.015.305.222.222,0,0,0,.321.015,8.284,8.284,0,0,0,2.717-4.06A6.99,6.99,0,0,0-8.4-.422,11.035,11.035,0,0,0-2.661.845h1.633A.267.267,0,0,0-.753.662,2.074,2.074,0,0,1-.478.143c.107-.183.046-.29-.153-.275-.885.061-1.6.092-2.122.092A15.5,15.5,0,0,1-6.736-.514V-3.643h4.213a.254.254,0,0,0,.259-.137A.235.235,0,0,0-2.279-4.1,7.719,7.719,0,0,0-3-4.925c-.031-.015-.046-.046-.076-.076-.046-.031-.122.015-.229.153l-.6.824H-6.736V-7.062h4.549c.137,0,.214-.031.259-.107A.255.255,0,0,0-1.959-7.5a7.279,7.279,0,0,0-.717-.687A.211.211,0,0,0-3-8.161l-.626.717h-8.533c-.168,0-.259.076-.214.2a.272.272,0,0,0,.275.183h4.457Z" transform="translate(29.166 12.42)"/></svg>