<svg xmlns="http://www.w3.org/2000/svg" xmlns:xlink="http://www.w3.org/1999/xlink" width="137.889" height="52.587" viewBox="0 0 137.889 52.587"><defs><style>.a{fill:#fff;}.b{filter:url(#a);}</style><filter id="a" x="0" y="0" width="137.889" height="52.587" filterUnits="userSpaceOnUse"><feOffset dx="1" dy="1" input="SourceAlpha"/><feGaussianBlur stdDeviation="5" result="b"/><feFlood flood-color="#fff"/><feComposite operator="in" in2="b"/><feComposite in="SourceGraphic"/></filter></defs><g class="b" transform="matrix(1, 0, 0, 1, 0, 0)"><path class="a" d="M-87.664-6.733a.466.466,0,0,0-.536.473c-.189,2.019-.757,3.407-1.672,4.2-.82.726-2.492,1.1-4.984,1.1h-2.776A3.63,3.63,0,0,1-99.778-1.4c-.41-.252-.631-.915-.631-1.924v-7.54h3.344a2.942,2.942,0,0,1,2.681,1.041,4.6,4.6,0,0,1,.6,1.83q.047.473.473.473c.315,0,.473-.158.473-.5v-6.688c0-.347-.126-.5-.442-.5a.456.456,0,0,0-.5.473,4.313,4.313,0,0,1-.726,1.924,3.1,3.1,0,0,1-2.555.852h-3.344v-6.814c0-1.1.252-1.767.726-2.019a4.615,4.615,0,0,1,2.051-.347h2.776c2.587,0,4.29.442,5.047,1.356a6.378,6.378,0,0,1,1.136,3.439q.047.473.473.473a.45.45,0,0,0,.5-.5l-.347-5.3a.456.456,0,0,0-.5-.473h-16.72c-.315,0-.5.158-.5.41a.473.473,0,0,0,.473.5,4.829,4.829,0,0,1,2.145.568c.41.284.6.915.6,1.893V-3.263c0,1.1-.284,1.8-.883,2.051a6.591,6.591,0,0,1-1.861.379c-.284.032-.473.189-.473.442a.441.441,0,0,0,.5.473h17.1a.481.481,0,0,0,.536-.473l.379-5.836C-87.223-6.544-87.38-6.733-87.664-6.733ZM-62.49-.36q0-.426-.473-.473a6.163,6.163,0,0,1-3.975-2.808l-5.8-7.887,5.268-7A6.219,6.219,0,0,1-63.5-21.244c.315-.032.473-.158.473-.41a.45.45,0,0,0-.5-.5H-70.44c-.347,0-.5.158-.5.41,0,.315.158.473.5.473,1.514.095,2.24.379,2.24.852a2.987,2.987,0,0,1-.757,1.514l-4.669,6.278-4.353-5.962a3.4,3.4,0,0,1-.852-1.7c0-.568.726-.883,2.145-.978.347,0,.5-.126.5-.379a.45.45,0,0,0-.5-.5h-7.571c-.347,0-.5.158-.5.41a.456.456,0,0,0,.473.5A6.11,6.11,0,0,1-80.314-18.4l5.237,7.161-5.741,7.729A5.9,5.9,0,0,1-84.825-.834c-.315.032-.473.189-.473.442,0,.315.158.473.5.473h6.94c.347,0,.5-.126.5-.379a.464.464,0,0,0-.5-.5c-1.514-.063-2.24-.315-2.24-.852A2.959,2.959,0,0,1-79.368-3.1l5.205-6.972,4.921,6.656a3.458,3.458,0,0,1,.789,1.672c0,.6-.694.883-2.114.946-.315,0-.5.158-.5.41a.441.441,0,0,0,.5.473h7.6C-62.648.081-62.49-.076-62.49-.36Zm19.149-21.325a.473.473,0,0,0-.5-.473h-17.6a.473.473,0,0,0-.5.473l-.379,4.858c-.032.315.126.5.379.5a.5.5,0,0,0,.536-.442,7.322,7.322,0,0,1,.852-2.587c.662-1.167,2.114-1.767,4.322-1.767h2.366V-3.263c0,1.136-.284,1.83-.883,2.082a6.814,6.814,0,0,1-1.956.347c-.347.032-.5.189-.5.442,0,.315.158.473.5.473h7.855c.315,0,.5-.126.5-.379a.506.506,0,0,0-.5-.536,4.827,4.827,0,0,1-1.987-.41c-.568-.315-.852-.978-.852-2.019V-21.118h2.587c2.3,0,3.754.631,4.353,1.924a8.363,8.363,0,0,1,.694,2.429.449.449,0,0,0,.5.442.441.441,0,0,0,.473-.5Zm7.413,2.934c0-1.262.442-2.019,1.293-2.24a7.2,7.2,0,0,1,1.514-.158h1.2c4.069,0,6.12,1.577,6.12,4.764s-2.429,4.8-7.287,4.8h-2.839ZM-20.723-.36c0-.284-.158-.41-.473-.473a3.073,3.073,0,0,1-2.555-1.83c-1.2-2.3-2.051-3.849-2.555-4.669a7.891,7.891,0,0,0-3.565-3.375V-10.8a8.309,8.309,0,0,0,3.786-1.041,5.061,5.061,0,0,0,2.65-4.764,4.894,4.894,0,0,0-2.745-4.48,10.307,10.307,0,0,0-5.142-1.073h-9.5c-.315,0-.5.158-.5.41a.473.473,0,0,0,.473.5,4.829,4.829,0,0,1,2.145.568c.41.284.6.915.6,1.956V-3.263q0,1.656-.946,2.082a6.837,6.837,0,0,1-1.767.347c-.315.032-.5.189-.5.442a.441.441,0,0,0,.5.473h7.729q.473,0,.473-.379a.481.481,0,0,0-.473-.536,5.312,5.312,0,0,1-1.924-.379,2.118,2.118,0,0,1-.915-2.051v-7.224h2.24a5.1,5.1,0,0,1,4.29,2.4A36.866,36.866,0,0,1-25.392-.3a.578.578,0,0,0,.568.379H-21.2C-20.881.081-20.723-.076-20.723-.36Zm6.814-8.549L-9.9-19.036-5.864-8.909ZM2.117-.36q0-.426-.473-.473A3.406,3.406,0,0,1-1.259-3.1L-8.924-22.127a.578.578,0,0,0-.568-.379h-.032a.578.578,0,0,0-.568.379L-17.6-3.294A3.4,3.4,0,0,1-20.881-.8h.315c-.347,0-.5.158-.5.41,0,.315.158.473.5.473h6.4c.347,0,.5-.126.5-.379a.464.464,0,0,0-.5-.5c-1.514-.063-2.24-.41-2.24-1.073a4.1,4.1,0,0,1,.347-1.388l1.7-4.448h8.9l1.767,4.29a4.337,4.337,0,0,1,.315,1.514c0,.662-.757,1.041-2.271,1.1-.315,0-.5.158-.5.41a.441.441,0,0,0,.5.473H1.612C1.959.081,2.117-.076,2.117-.36Z" transform="translate(119.77 36.51)"/></g></svg>