<svg xmlns="http://www.w3.org/2000/svg" width="29.326" height="13.895" viewBox="0 0 29.326 13.895"><defs><style>.a{fill:#fff;}</style></defs><path class="a" d="M-25.764-1.611a.223.223,0,0,0,.275-.137A12.4,12.4,0,0,0-24.6-4.084c.321-.076.488-.168.488-.29q0-.275-.916-.5c-.168-.031-.275.031-.29.2a19,19,0,0,1-.55,2.778C-25.917-1.748-25.871-1.657-25.764-1.611Zm6.93-4.7c-.183,0-.275.076-.214.2a.267.267,0,0,0,.275.183h2.87c.137,0,.214-.031.259-.122a.275.275,0,0,0-.015-.336c-.153-.2-.336-.4-.534-.626a.2.2,0,0,0-.336.031l-.488.672Zm-10.151,1.74c-.092.046-.122.153-.061.29A5.163,5.163,0,0,1-28.6-2.3l-.015.58c-.015.275.137.412.412.412.305,0,.458-.244.458-.717a4.382,4.382,0,0,0-.946-2.458A.2.2,0,0,0-28.985-4.572Zm6.442,1.221h1.007V.4h-1.007Zm3.663,0h1.145V.4H-18.88ZM-20.742.4V-3.351h1.084V.4Zm3.816-3.526.382-.244a.159.159,0,0,0,.107-.153c0-.122-.214-.366-.687-.717a.227.227,0,0,0-.336.031l-.382.473h-4.564c-.229-.137-.458-.244-.672-.366-.168-.076-.29,0-.29.183V.4h-1.42C-24.97.4-25.062.5-25,.6a.279.279,0,0,0,.275.183h9.052A.292.292,0,0,0-15.4.648a.374.374,0,0,0-.015-.336c-.122-.2-.244-.412-.382-.6-.107-.153-.244-.137-.336.015L-16.5.4h-.427ZM-15.7-9.38c.137,0,.214-.031.244-.092a.276.276,0,0,0-.031-.336c-.214-.244-.382-.458-.519-.611a.194.194,0,0,0-.336.031l-.458.626h-1.13c.168-.6.321-1.175.443-1.755.382-.076.565-.183.565-.305,0-.2-.382-.366-1.16-.519a.218.218,0,0,0-.29.2,15.641,15.641,0,0,1-1.282,5.037c-.061.137-.061.229.031.275a.227.227,0,0,0,.321-.076A10.768,10.768,0,0,0-18.056-9.38Zm-9.418,1.343a.272.272,0,0,0,.259-.122.256.256,0,0,0-.031-.336c-.168-.2-.336-.366-.473-.5a.2.2,0,0,0-.336.015l-.427.565h-1.8a13.361,13.361,0,0,0,1.4-2.885A6.866,6.866,0,0,1-24.94-9.045a.444.444,0,0,0,.382.305c.305,0,.458-.168.458-.488a1.572,1.572,0,0,0-.366-.87,5.39,5.39,0,0,0-1.847-1.526l-.092-.061c.458-.076.672-.168.672-.259,0-.168-.382-.321-1.145-.473a.233.233,0,0,0-.305.183,14.444,14.444,0,0,1-2.3,5.114c-.092.122-.107.214-.031.275a.228.228,0,0,0,.336-.031,12.339,12.339,0,0,0,.977-1.16h1.069V-5.9h-1.923c-.183,0-.275.076-.229.183a.237.237,0,0,0,.259.2h1.893V-.649l-.137.031c-.672.137-1.267.275-1.832.4a.207.207,0,0,0-.168.305c.214.641.4.962.611.962.122,0,.214-.183.259-.55a37.36,37.36,0,0,0,4.121-1.526q.183-.069.183-.183a.194.194,0,0,0-.29-.183c-.672.2-1.313.382-1.939.534V-5.519h1.679a.258.258,0,0,0,.259-.122.278.278,0,0,0-.046-.336,6.224,6.224,0,0,0-.488-.58.194.194,0,0,0-.336.015l-.458.641h-.611V-8.037Zm1.984.763h1.007v1.74h-1.007Zm0-3.8h1.007v1.542h-1.007ZM-20.7-9.152v1.5h-2.442v-1.5Zm-2.3-2.3a6.461,6.461,0,0,0-.641-.382c-.153-.076-.275-.015-.275.183v6.9a.212.212,0,0,0,.244.244h.29a.218.218,0,0,0,.244-.244v-.4h3.526a.252.252,0,0,0,.244-.107.275.275,0,0,0,0-.336,4.993,4.993,0,0,0-.5-.58c-.107-.137-.244-.122-.336.031l-.412.611h-.733v-1.74h.656v.183c0,.168.076.244.229.244h.275a.218.218,0,0,0,.244-.244V-8.968l.244-.153a.862.862,0,0,0,.183-.2c0-.122-.2-.351-.58-.672a.207.207,0,0,0-.336.031l-.351.427h-.565v-1.542h1.679c.137,0,.2-.031.244-.092a.256.256,0,0,0-.015-.336c-.2-.214-.382-.412-.58-.6a.209.209,0,0,0-.336.046l-.458.6ZM-6.088-.512c-.061.092.015.183.2.214A16.447,16.447,0,0,1-1.616,1.045a1.943,1.943,0,0,0,.6.244c.275,0,.427-.168.427-.488C-.593.038-2.333-.436-5.8-.665A.257.257,0,0,0-6.088-.512Zm-7.785,1.74a.288.288,0,0,0,.29.137A17.111,17.111,0,0,0-8.958.221c.259.015.4.031.427.031.275,0,.412-.046.412-.153,0-.183-.321-.412-.977-.748a.328.328,0,0,0-.336.015A12.17,12.17,0,0,1-13.72.969c-.168.046-.244.137-.168.244Zm4.335-11.494a.468.468,0,0,0,.244-.412c0-.611-.672-1.145-1.969-1.557-.153-.046-.244-.046-.275.015a.232.232,0,0,0,.076.336,3.392,3.392,0,0,1,1.16,1.328.89.89,0,0,0,.168.29h-2.015c0-.092-.015-.214-.031-.382-.015-.153-.061-.229-.153-.244a.221.221,0,0,0-.275.214,3.878,3.878,0,0,1-.977,2.244.65.65,0,0,0-.2.412q0,.55.6.55c.29,0,.534-.244.733-.687a4.573,4.573,0,0,0,.321-1.725H-1.845a5.505,5.505,0,0,1-.55,1.3q-.114.183,0,.275a.227.227,0,0,0,.336-.015A10.087,10.087,0,0,0-.975-9.4l.55-.092c.122-.031.183-.076.183-.168,0-.183-.29-.565-.87-1.114-.122-.122-.244-.122-.336,0l-.443.5H-4.516a14.164,14.164,0,0,0,1.3-1.114c.412,0,.626-.061.626-.183,0-.183-.351-.443-1.053-.748a.221.221,0,0,0-.321.122A11.365,11.365,0,0,1-5.1-10.266H-6.729v-1.511c.427-.153.641-.29.641-.427,0-.2-.427-.29-1.267-.321-.153-.015-.244.061-.244.229v2.03Zm-.443,3.022V-8.556h5.6v1.313Zm5.6.534c0,.168.076.244.229.244h.366a.212.212,0,0,0,.244-.244V-8.281L-3.2-8.51A.237.237,0,0,0-3.1-8.663c0-.122-.229-.336-.7-.672a.228.228,0,0,0-.336.031l-.351.366H-9.8a6.314,6.314,0,0,0-.733-.305c-.168-.076-.275,0-.275.183v2.4c0,.168.076.244.229.244h.351a.212.212,0,0,0,.244-.244v-.2h5.6ZM-11-3.092V-4.16h7.647v1.069Zm0,1.526V-2.71h7.647v1.145Zm7.647-3.953v.977H-11v-.977Zm-7.51-.382c-.092-.046-.336-.153-.717-.321-.168-.076-.29,0-.29.183V-.924c0,.153.076.229.244.229h.382C-11.08-.7-11-.771-11-.924v-.259h7.647v.076a.2.2,0,0,0,.229.229h.4a.214.214,0,0,0,.244-.229V-5.213l.382-.275C-2.043-5.534-2-5.58-2-5.641c0-.122-.244-.366-.748-.7a.232.232,0,0,0-.351.031l-.366.412Z" transform="translate(29.568 12.527)"/></svg>