<svg xmlns="http://www.w3.org/2000/svg" width="65.552" height="14.858" viewBox="0 0 65.552 14.858"><defs><style>.a{fill:#fff;}</style></defs><path class="a" d="M8.16-1.938A17.193,17.193,0,0,0,6.239-5.814l-1.547.833A14.587,14.587,0,0,1,5.44-3.6c-.289.1-.68.272-1.683.629V-6.443H7.684v-6.681H1.938V-2.4c-.238.068-.425.119-1.037.289L1.309-.2c.034.119.085.323.221.323C1.6.119,1.6.1,1.751-.2a.467.467,0,0,1,.34-.272A35.462,35.462,0,0,0,6-2.278a8.445,8.445,0,0,1,.374,1.156Zm-2.091-8.5H3.757v-1.156H6.069Zm0,2.448H3.757V-9.129H6.069Zm9.843,5.9-1.768-.782a5.259,5.259,0,0,1-.136,1.207c-.068.255-.17.34-.408.34-.289,0-.527-.1-.527-.476V-5.1c0-.119.017-.153.255-.391a.231.231,0,0,0,.119-.187c0-.1-.051-.17-.221-.221l-.255-.085c.034-.1.1-.34.136-.459h2.669V-7.99H13.4a28.238,28.238,0,0,0,.272-3.6h1.8v-1.53H8.092v1.53h.663v3.6H8.024v1.547h3.128a9.328,9.328,0,0,1-1.819,3.5A10.781,10.781,0,0,1,6.069-.272L7.684,1.02a16.708,16.708,0,0,0,3.774-3.757v1.8c0,.986.425,1.411,1.394,1.411h1.36a1.246,1.246,0,0,0,1.36-.969A5.916,5.916,0,0,0,15.912-2.091Zm-4.182-9.5a22.027,22.027,0,0,1-.255,3.6h-1v-3.6ZM32.657-5.083V-7.956H23.868v2.89h1.8V-6.409h5.168v1.326ZM23.239-7.565V-9.027H19.023v1.462Zm0,2.04V-6.97H18.972v1.445Zm9.4-5.287v-1.6H29.308v-.612c0-.085.017-.085.306-.323a.316.316,0,0,0,.119-.221c0-.17-.34-.17-.578-.187L27.2-13.838v1.428H23.868v1.173H18.326v1.666h5.712v-1.241H27.2v.748H24.956V-8.5h6.919v-1.564H29.308v-.748ZM33.1-1.683,31.28-2.635A6.911,6.911,0,0,1,31.093-1.5c-.085.306-.2.459-.476.459-.34,0-.425-.2-.425-.782V-5.168c0-.068.034-.136.17-.238a.4.4,0,0,0,.153-.289c0-.136-.2-.17-.561-.187L28.288-5.95V-.782c0,.493.034.884.306,1.1a1.509,1.509,0,0,0,1.088.391h1.734C32.9.714,33.014-.816,33.1-1.683ZM28.186-5.338c0-.17-.1-.17-.272-.2L25.959-5.9a6.58,6.58,0,0,1-.867,3.621A4.693,4.693,0,0,1,23.749-.85V-4.76H18.564V.8h1.819v-.85h3.332l1.122.918a8.734,8.734,0,0,0,2.805-5.032c.017-.119.1-.782.119-.833.017-.068.068-.1.187-.136C28.084-5.185,28.186-5.219,28.186-5.338ZM21.913-1.717h-1.53V-3.2h1.53Zm1.224-10.064v-1.632h-3.91v1.632ZM49.419-6.494A6.006,6.006,0,0,0,43.1-12.682a7.332,7.332,0,0,0-7.5,7.208A4.837,4.837,0,0,0,39-.9c.884,0,1.666-1.428,2.176-2.482a24.136,24.136,0,0,0,2.108-7.565,4.349,4.349,0,0,1,2.89,1.139A4.008,4.008,0,0,1,47.4-6.834a5.319,5.319,0,0,1-1.224,3.383,5.726,5.726,0,0,1-3.06,1.819L44.37.119a8.207,8.207,0,0,0,3.961-2.992A6.352,6.352,0,0,0,49.419-6.494Zm-8.16-4.148c-.34,2.652-1.8,7.089-2.686,7.089-.306,0-1.088-.714-1.088-2.091a5.567,5.567,0,0,1,1.7-3.774A5.019,5.019,0,0,1,41.259-10.642ZM66.453-4.386c-.731-.476-1.258-.8-2.193-1.326a20.521,20.521,0,0,0,.578-2.533c.051-.238.051-.272.187-.357.238-.119.255-.136.255-.221,0-.153-.238-.238-.408-.289l-1.9-.527a14.454,14.454,0,0,1-.442,3.111,10.939,10.939,0,0,0-3.281-.782c.238-.527,1.445-3.264,1.462-3.332a6.93,6.93,0,0,1,.884-1.445l-1.122-1.122c-.918.6-2.924.935-5.542.918l.765,1.717a11.865,11.865,0,0,0,3.094-.527,39.365,39.365,0,0,1-1.377,3.689,4.587,4.587,0,0,0-2.7.816A4.225,4.225,0,0,0,52.7-3.23a1.984,1.984,0,0,0,1.921,2.193c1.5,0,2.227-1.088,3.91-4.692a10.525,10.525,0,0,1,3.4.952A8.223,8.223,0,0,1,58.548-.782L60.231.391A9.48,9.48,0,0,0,63.6-3.842c.391.255.867.578,1.768,1.275ZM56.644-5.678A19.3,19.3,0,0,1,55.522-3.57a.775.775,0,0,1-.714.408c-.119,0-.34-.017-.34-.459C54.468-4.25,55.182-5.219,56.644-5.678Z" transform="translate(-0.901 13.838)"/></svg>