<svg xmlns="http://www.w3.org/2000/svg" width="46.461" height="15.096" viewBox="0 0 46.461 15.096"><defs><style>.a{fill:#fff;}</style></defs><path class="a" d="M14.892-9.843v-1.836c-1.734.136-2.261.187-4.624.323v-1.751c0-.068.017-.1.136-.2s.153-.153.153-.255c0-.17-.1-.221-.493-.238l-1.887-.119c.1,1.241.1,2.142.119,2.669-3.57.17-5.032.17-6.188.17v1.972c2.159-.272,4.726-.425,6.239-.51l.034,1.275a2.242,2.242,0,0,0-.8-.136c-1.734,0-2.669,1.292-2.669,3.162A3.042,3.042,0,0,0,5.8-2.958a2.14,2.14,0,0,0,1.394.527,3.419,3.419,0,0,0,.918-.17A5.424,5.424,0,0,1,5.678.187l1.9.986A11.794,11.794,0,0,0,9.894-1.989a7.623,7.623,0,0,0,.867-3.281,4.385,4.385,0,0,0-.493-2.074v-2.38C12.478-9.809,13.6-9.843,14.892-9.843ZM8.7-5.542c0,1.207-.816,1.581-1.173,1.581-.391,0-.935-.391-.935-1.411,0-.9.476-1.5,1.156-1.5a.885.885,0,0,1,.629.238A1.585,1.585,0,0,1,8.7-5.542Zm23.783-6.239a5.762,5.762,0,0,0-1.479-1.326l-.833.8a5.911,5.911,0,0,1,1.479,1.326Zm-1.683,1.5a5.463,5.463,0,0,0-1.445-1.309l-.833.8a5.216,5.216,0,0,1,1.445,1.309Zm1.921,6.749a15.743,15.743,0,0,1-2.516-2.04c-.969-.935-2.839-2.839-3.978-4.131-1.122-1.275-1.479-1.666-2.261-1.666-.9,0-1.428.714-2.125,1.7a25.241,25.241,0,0,1-3.689,4.539l1.853,1.071a43.032,43.032,0,0,0,3.2-4.2c.476-.68.9-.68.986-.68a1.208,1.208,0,0,1,.8.476A38.618,38.618,0,0,0,31.28-1.8Zm15.844-7.6v-2.04a51.467,51.467,0,0,1-12.393,1.581l.34,2.006a65,65,0,0,1,6.477-.731c-.8.748-3.3,3.094-3.3,6,0,3.791,4.25,4.675,5.627,4.964l.6-2.142a5.046,5.046,0,0,1-2.958-.816A2.913,2.913,0,0,1,41.7-4.692c0-1.7,1.411-3.587,2.907-4.794A6.58,6.58,0,0,1,48.569-11.135Z" transform="translate(-2.108 13.923)"/></svg>