<svg xmlns="http://www.w3.org/2000/svg" xmlns:xlink="http://www.w3.org/1999/xlink" width="29.511" height="35.64" viewBox="0 0 29.511 35.64"><defs><style>.a,.d{fill:none;}.b,.f{fill:#333;}.c{clip-path:url(#c);}.d{stroke:#fff;}.e,.f{stroke:none;}.g{filter:url(#a);}</style><filter id="a" x="0" y="0" width="29.511" height="35.64" filterUnits="userSpaceOnUse"><feOffset input="SourceAlpha"/><feGaussianBlur stdDeviation="2.5" result="b"/><feFlood flood-color="#fff" flood-opacity="0.161"/><feComposite operator="in" in2="b"/><feComposite in="SourceGraphic"/></filter><clipPath id="c"><rect class="a" width="7.893" height="7.569"/></clipPath></defs><g transform="translate(21.619 7.727) rotate(90)"><g class="g" transform="matrix(0, -1, 1, 0, -7.73, 21.62)"><g class="b" transform="translate(22.01 7.5) rotate(90)"><path class="e" d="M 19.01808166503906 14.01146125793457 L 1.62176239490509 14.01146125793457 C 1.003222465515137 14.01146125793457 0.5000024437904358 13.35164070129395 0.5000024437904358 12.54061126708984 L 0.5000024437904358 1.970851063728333 C 0.5000024437904358 1.159821152687073 1.003222465515137 0.5000011324882507 1.62176239490509 0.5000011324882507 L 19.01808166503906 0.5000011324882507 C 19.63662338256836 0.5000011324882507 20.13984298706055 1.159821152687073 20.13984298706055 1.970851063728333 L 20.13984298706055 12.54061126708984 C 20.13984298706055 13.35164070129395 19.63662338256836 14.01146125793457 19.01808166503906 14.01146125793457 Z"/><path class="f" d="M 1.621763229370117 1.000000953674316 C 1.328262329101562 1.000000953674316 1.000001907348633 1.415190696716309 1.000001907348633 1.970850944519043 L 1.000001907348633 12.54061126708984 C 1.000001907348633 13.09627151489258 1.328262329101562 13.51146125793457 1.621763229370117 13.51146125793457 L 19.01808166503906 13.51146125793457 C 19.31158256530762 13.51146125793457 19.63984298706055 13.09627151489258 19.63984298706055 12.54061126708984 L 19.63984298706055 1.970850944519043 C 19.63984298706055 1.415190696716309 19.31158256530762 1.000000953674316 19.01808166503906 1.000000953674316 L 1.621763229370117 1.000000953674316 M 1.621763229370117 9.5367431640625e-07 L 19.01808166503906 9.5367431640625e-07 C 19.91375160217285 9.5367431640625e-07 20.63984298706055 0.8823814392089844 20.63984298706055 1.970850944519043 L 20.63984298706055 12.54061126708984 C 20.63984298706055 13.6290807723999 19.91375160217285 14.51146125793457 19.01808166503906 14.51146125793457 L 1.621763229370117 14.51146125793457 C 0.7260818481445312 14.51146125793457 1.9073486328125e-06 13.6290807723999 1.9073486328125e-06 12.54061126708984 L 1.9073486328125e-06 1.970850944519043 C 1.9073486328125e-06 0.8823814392089844 0.7260818481445312 9.5367431640625e-07 1.621763229370117 9.5367431640625e-07 Z"/></g></g><g class="c" transform="translate(6.773 2.55)"><g transform="translate(-103 -263.5)"><path class="d" d="M111.5,2728.5v7.6" transform="translate(-8 -2465)"/></g><g transform="translate(-97 -263.5)"><path class="d" d="M111.5,2728.5v7.6" transform="translate(-8 -2465)"/></g></g></g></svg>