<svg xmlns="http://www.w3.org/2000/svg" xmlns:xlink="http://www.w3.org/1999/xlink" width="109.708" height="44.849" viewBox="0 0 109.708 44.849"><defs><style>.a{fill:#fff;}.b{filter:url(#a);}</style><filter id="a" x="0" y="0" width="109.708" height="44.849" filterUnits="userSpaceOnUse"><feOffset dx="1" dy="1" input="SourceAlpha"/><feGaussianBlur stdDeviation="3.5" result="b"/><feFlood flood-color="#fff"/><feComposite operator="in" in2="b"/><feComposite in="SourceGraphic"/></filter></defs><g class="b" transform="matrix(1, 0, 0, 1, 0, 0)"><path class="a" d="M-71.778-6.662a.456.456,0,0,0-.5.473,7.875,7.875,0,0,1-1.356,3.754c-.82,1.009-2.555,1.483-5.174,1.483h-1.924a3.193,3.193,0,0,1-2.145-.536c-.347-.252-.5-.852-.5-1.8V-18.713c0-1.1.252-1.767.757-2.051a7.6,7.6,0,0,1,1.987-.473c.315-.032.5-.158.5-.41a.464.464,0,0,0-.5-.5h-7.824c-.315,0-.473.158-.473.41a.456.456,0,0,0,.473.5,6.97,6.97,0,0,1,1.987.473,2.134,2.134,0,0,1,.883,2.051V-3.255q0,1.656-.946,2.082a5.637,5.637,0,0,1-1.8.347c-.315.032-.473.189-.473.442a.418.418,0,0,0,.473.473h16.089a.471.471,0,0,0,.5-.473l.347-5.773C-71.368-6.473-71.494-6.662-71.778-6.662Zm13.123-15.174a7.113,7.113,0,0,1,5.8,2.808c1.577,1.956,2.366,4.637,2.366,8.013A12.316,12.316,0,0,1-52.6-3.444,7.194,7.194,0,0,1-58.654-.29,7.2,7.2,0,0,1-65.248-4.2a13.774,13.774,0,0,1-1.609-6.94,12.516,12.516,0,0,1,2.082-7.508A7.14,7.14,0,0,1-58.654-21.836Zm0-1.1a10.111,10.111,0,0,0-7.413,3,12.108,12.108,0,0,0-3.407,8.865,12.053,12.053,0,0,0,3.439,8.991,10.09,10.09,0,0,0,7.382,3A9.941,9.941,0,0,0-51.3-2.056a12.176,12.176,0,0,0,3.439-9.085,12.061,12.061,0,0,0-3.407-8.8A10.039,10.039,0,0,0-58.654-22.94ZM-39.033-8.9l4.006-10.126L-30.988-8.9ZM-23.007-.353q0-.426-.473-.473a3.406,3.406,0,0,1-2.9-2.271L-34.048-22.12a.578.578,0,0,0-.568-.379h-.032a.578.578,0,0,0-.568.379L-42.723-3.287A3.4,3.4,0,0,1-46-.794h.315c-.347,0-.5.158-.5.41,0,.315.158.473.5.473h6.4c.347,0,.5-.126.5-.379a.464.464,0,0,0-.5-.5c-1.514-.063-2.24-.41-2.24-1.073a4.1,4.1,0,0,1,.347-1.388l1.7-4.448h8.9l1.767,4.29A4.337,4.337,0,0,1-28.5-1.9c0,.662-.757,1.041-2.271,1.1-.315,0-.5.158-.5.41a.441.441,0,0,0,.5.473h7.256C-23.165.089-23.007-.069-23.007-.353Zm10.694-20.789q9.511,0,9.527,9.906c0,4.259-1.23,7.193-3.628,8.865a10.509,10.509,0,0,1-5.9,1.356h-1.136a4.18,4.18,0,0,1-1.893-.315c-.6-.284-.915-.915-.915-1.956V-18.744c0-1.262.442-2.019,1.293-2.24a7.2,7.2,0,0,1,1.514-.158Zm-9.369-.568a.465.465,0,0,0,.473.473,4.829,4.829,0,0,1,2.145.568c.41.284.6.915.6,1.924V-3.255c0,1.1-.284,1.8-.946,2.082a5.637,5.637,0,0,1-1.8.347c-.284.032-.473.189-.473.442a.441.441,0,0,0,.5.473h8.959A15.362,15.362,0,0,0-6.193-.921C-2.218-2.687-.23-6.063-.23-11.079c0-3.975-1.356-6.972-4.069-8.959a12.941,12.941,0,0,0-7.76-2.114h-9.117C-21.493-22.151-21.682-21.994-21.682-21.71Z" transform="translate(98.44 32.44)"/></g></svg>