<svg xmlns="http://www.w3.org/2000/svg" xmlns:xlink="http://www.w3.org/1999/xlink" width="54.395" height="36.444" viewBox="0 0 54.395 36.444"><defs><style>.a{fill:#361413;}.b{filter:url(#a);}</style><filter id="a" x="0" y="0" width="54.395" height="36.444" filterUnits="userSpaceOnUse"><feOffset dy="3" input="SourceAlpha"/><feGaussianBlur stdDeviation="3" result="b"/><feFlood flood-color="#696969" flood-opacity="0.447"/><feComposite operator="in" in2="b"/><feComposite in="SourceGraphic"/></filter></defs><g class="b" transform="matrix(1, 0, 0, 1, 0, 0)"><path class="a" d="M11.365-14.115l-2.03,1.2A3.489,3.489,0,0,0,8.25-14.2a2.531,2.531,0,0,0-1.386-.344,2.56,2.56,0,0,0-1.729.591,1.831,1.831,0,0,0-.687,1.461q0,1.214,1.8,1.955l1.654.677A7.063,7.063,0,0,1,10.86-7.869a4.491,4.491,0,0,1,.935,2.884A5.067,5.067,0,0,1,10.27-1.2,5.236,5.236,0,0,1,6.456.3,5.1,5.1,0,0,1,2.89-.978a5.886,5.886,0,0,1-1.729-3.6L3.7-5.135a4.312,4.312,0,0,0,.6,2.02A2.605,2.605,0,0,0,6.553-2.041,2.618,2.618,0,0,0,8.5-2.825a2.713,2.713,0,0,0,.773-1.987A2.789,2.789,0,0,0,9.136-5.7a2.249,2.249,0,0,0-.419-.741,3.349,3.349,0,0,0-.736-.634,7.089,7.089,0,0,0-1.074-.564L5.307-8.3Q1.9-9.743,1.9-12.515A4,4,0,0,1,3.33-15.641a5.162,5.162,0,0,1,3.556-1.268A4.964,4.964,0,0,1,11.365-14.115Zm5.4-4.028V0H14.352V-18.144ZM19.336-5.307a5.2,5.2,0,0,1,1.622-3.856,5.435,5.435,0,0,1,3.953-1.59,5.465,5.465,0,0,1,3.975,1.6A5.327,5.327,0,0,1,30.5-5.221a5.3,5.3,0,0,1-1.622,3.942A5.544,5.544,0,0,1,24.868.3a5.317,5.317,0,0,1-3.942-1.611A5.419,5.419,0,0,1,19.336-5.307Zm2.471.043a3.529,3.529,0,0,0,.838,2.481,2.95,2.95,0,0,0,2.267.924,2.946,2.946,0,0,0,2.267-.913,3.439,3.439,0,0,0,.849-2.438,3.439,3.439,0,0,0-.849-2.438,2.95,2.95,0,0,0-2.267-.924,2.924,2.924,0,0,0-2.245.924A3.362,3.362,0,0,0,21.807-5.264ZM35.675-8.207V0H33.258V-8.207H32.227v-2.256h1.031V-14.3h2.417v3.835h1.88v2.256Z" transform="translate(7.84 24.14)"/></g></svg>