<svg xmlns="http://www.w3.org/2000/svg" width="57.172" height="13.707" viewBox="0 0 57.172 13.707"><defs><style>.a{fill:#fff;}</style></defs><path class="a" d="M-53.451-1.4c-.443.076-1.42.2-2.916.351V-2.819h2.916Zm0-1.8h-2.916V-4.681h2.916Zm-2.916-3.282h2.916v1.42h-2.916Zm2.916,7.556a.214.214,0,0,0,.229.244h.382a.214.214,0,0,0,.229-.244V-6.483h6.762A.272.272,0,0,0-45.59-6.6a.241.241,0,0,0-.031-.336c-.275-.275-.55-.519-.809-.733a.246.246,0,0,0-.107-.061c-.046-.061-.122-.015-.229.092l-.656.778H-58.946c-.183,0-.259.076-.229.183a.263.263,0,0,0,.275.2h1.679v5.51q-.55.046-1.557.092c-.168.015-.244.122-.2.275.183.717.351,1.069.534,1.069.107,0,.214-.183.29-.519,1.587-.229,3.083-.55,4.488-.84.092-.031.168-.031.214-.046Zm5.831-5.862a11.6,11.6,0,0,1-1.4,2.778,8.862,8.862,0,0,1-1.771-2.778Zm-3.663,0a11.416,11.416,0,0,0,1.8,3.358,9.8,9.8,0,0,1-2.7,2.3c-.137.076-.183.183-.107.275a.228.228,0,0,0,.321.092A9.442,9.442,0,0,0-48.917-.82,10.308,10.308,0,0,0-46.246.966.213.213,0,0,0-45.925.86,2.507,2.507,0,0,1-45.59.478c.137-.137.122-.259-.061-.321a9.262,9.262,0,0,1-2.793-1.618,13.725,13.725,0,0,0,1.679-2.992l.4-.214c.092-.061.137-.107.137-.183q0-.183-.733-.778A.207.207,0,0,0-47.3-5.6l-.382.427h-4.35c-.168,0-.259.076-.214.2a.267.267,0,0,0,.275.183ZM-56.046-8.5V-9.719h7.19V-8.5Zm7.19-2.748V-10.1h-7.19v-1.145Zm-7.022-.382c-.305-.153-.565-.275-.763-.351-.168-.076-.275,0-.275.183V-7.78a.214.214,0,0,0,.229.244h.4a.225.225,0,0,0,.244-.244v-.336h7.19v.244a.225.225,0,0,0,.244.244h.4a.225.225,0,0,0,.244-.244v-3.1l.351-.244c.076-.061.137-.122.137-.2,0-.107-.244-.366-.733-.748a.216.216,0,0,0-.336.031l-.443.5Zm15.127,5.678a21.379,21.379,0,0,0,2-2.931l.427-.214a.214.214,0,0,0,.122-.168c0-.122-.229-.4-.717-.84a.215.215,0,0,0-.351.031l-.427.55h-1.13V-11.6c.427-.183.626-.321.626-.427q0-.3-1.236-.366a.229.229,0,0,0-.259.244V-9.52h-1.954c-.168,0-.259.076-.214.2a.279.279,0,0,0,.275.183h3.953a22.427,22.427,0,0,1-4.35,5.816c-.107.107-.122.2-.061.29a.22.22,0,0,0,.336.046A24.741,24.741,0,0,0-41.651-4.91v6c0,.153.076.229.244.229h.427a.2.2,0,0,0,.229-.229V-5.429A6.219,6.219,0,0,1-39-3.506c.183.336.366.488.55.488.321,0,.473-.168.473-.519,0-.443-.412-.962-1.267-1.542a10.89,10.89,0,0,0,1.175-1.191q.6,0,.6-.183c0-.168-.305-.4-.9-.687a.208.208,0,0,0-.321.107,10.826,10.826,0,0,1-.885,1.725,12.031,12.031,0,0,0-1.175-.58ZM-32.02-10.5v1.221a50.948,50.948,0,0,1-.443,8.228,1.087,1.087,0,0,1-1.175.962,13.465,13.465,0,0,1-2-.168c-.168-.015-.259.046-.259.183a.233.233,0,0,0,.229.259,7.953,7.953,0,0,1,1.526.382.688.688,0,0,1,.366.412c.046.153.107.229.259.214A1.815,1.815,0,0,0-31.852.2c.473-.9.733-4.366.748-10.41l.412-.275c.076-.061.122-.107.122-.168,0-.122-.244-.412-.778-.84a.207.207,0,0,0-.336.031l-.443.58h-5.968c-.183,0-.275.076-.229.2a.3.3,0,0,0,.29.183h2.213V-9.49a22.008,22.008,0,0,1-.5,5.007A10.234,10.234,0,0,1-39.362.844c-.122.092-.137.2-.061.29a.241.241,0,0,0,.336.046,8.91,8.91,0,0,0,3.144-3.908,17.654,17.654,0,0,0,1.069-6.732V-10.5Zm16.7,5.526A6.752,6.752,0,0,0-18.877-8.04a.3.3,0,0,0-.259.534,6.592,6.592,0,0,1,2.916,2.671c.321.58.382,1.145-.214,1.526a3.418,3.418,0,0,1-1.618.382.268.268,0,0,0,.015.534,4.333,4.333,0,0,0,2.244-.351A1.687,1.687,0,0,0-15.32-4.972ZM-23.059-7.75c-.031,0-.046-.031-.046-.061a16.34,16.34,0,0,0,.321-2.946.466.466,0,1,0-.931-.015,18.678,18.678,0,0,1-.137,2.152,7.693,7.693,0,0,1-.2.87.078.078,0,0,1-.076.061c-.122.015-3.541.015-3.541.015a.313.313,0,1,0,0,.626l3.343-.015c.031,0,.061.031.046.061-.137.412-.29.824-.458,1.221a20.888,20.888,0,0,1-2.824,4.549c-.046.061-.107.122-.168.214a.484.484,0,0,0,.122.656.478.478,0,0,0,.687-.107,25.492,25.492,0,0,0,3.053-5.1c.2-.473.382-.977.534-1.465,0-.031.046-.061.076-.061,1.114-.061,2.3.015,2.442,1.191a6.318,6.318,0,0,1-1.236,3.648,10.835,10.835,0,0,1-.7,1.007.214.214,0,0,1-.351,0,5.093,5.093,0,0,0-.611-.717l-.2-.183c-.275-.259-.7.137-.427.412l.2.2c.488.473.7.687.733,1.236a.607.607,0,0,0,.168.382A.465.465,0,0,0-22.571.05l.015-.015a5.626,5.626,0,0,0,.4-.473,10.774,10.774,0,0,0,.9-1.328c.824-1.374,1.939-3.816.977-5.175C-20.861-7.719-21.93-7.78-23.059-7.75ZM-2.04-2.636A2.491,2.491,0,0,0-2.9-4.9a2.86,2.86,0,0,0-1.42-.55A7.208,7.208,0,0,0-8.818-4.3a.175.175,0,0,1-.259-.137L-9.092-7.7c.122-1.633,2.61-1.572,3.984-1.572A.528.528,0,0,0-4.589-9.9a.56.56,0,0,0-.611-.412,3.825,3.825,0,0,1-3.1-1.1c-.214-.259-.672.092-.443.382A3.024,3.024,0,0,0-7.276-9.841a.132.132,0,0,1-.046.244,5.13,5.13,0,0,0-1.114.183,2.12,2.12,0,0,0-1.572,2.381v3.358a.476.476,0,0,0,.473.473c.321.015.565-.321.809-.473A6.309,6.309,0,0,1-4.406-4.8,1.7,1.7,0,0,1-3.4-4.315a1.746,1.746,0,0,1,.168,2A4.073,4.073,0,0,1-6.1-.438a9.76,9.76,0,0,1-2.671.29c-.305-.046-.366.473-.046.5H-8.8A9.36,9.36,0,0,0-5.917.249c1.5-.259,2.977-.84,3.6-2.091A2.454,2.454,0,0,0-2.04-2.636Z" transform="translate(59.181 12.39)"/></svg>