<svg xmlns="http://www.w3.org/2000/svg" width="62.216" height="19.602" viewBox="0 0 62.216 19.602">
  <path id="パス_44" data-name="パス 44" d="M19.624-11.11,17.754-13a1.754,1.754,0,0,1-.968.528l-6.974.836v-4.18c0-.11.044-.154.308-.4.176-.154.2-.2.2-.264,0-.242-.418-.286-.792-.33L7.37-17.072v5.7L2.662-10.8l.2,2.332L7.37-9v5.764c0,2.31.4,3.08,5.654,3.08A47.653,47.653,0,0,0,17.93-.4l.022-2.662a27.848,27.848,0,0,1-5.478.528c-2.464,0-2.662-.308-2.662-1.606V-9.284l6.028-.748a37.411,37.411,0,0,1-2.816,3.916L15.048-4.95c.9-1.144,2.222-2.97,3.674-5.214A3.631,3.631,0,0,1,19.624-11.11ZM40.766-6.974V-9.768H25.124v2.794ZM64.878-17.336a11.757,11.757,0,0,0-1.87-2l-1.078.968a9.61,9.61,0,0,1,1.8,1.98Zm-3.3.088a12.279,12.279,0,0,0-1.826-1.936l-1.078.968A12.465,12.465,0,0,1,60.5-16.28Zm1.254,3.454-2.156-2.024a1.475,1.475,0,0,1-.726.352H47.5v2.552H59.224A17.951,17.951,0,0,1,49.214-1.628L51.524.264A19.563,19.563,0,0,0,57.97-4.95a26.359,26.359,0,0,0,4-7.744A2.822,2.822,0,0,1,62.832-13.794Z" transform="translate(-2.662 19.338)" fill="#fff"/>
</svg>
