<svg xmlns="http://www.w3.org/2000/svg" width="38.288" height="8.577" viewBox="0 0 38.288 8.577"><defs><style>.a{fill:#fff;}</style></defs><path class="a" d="M8.34-6.8,4.87-6.81c.12-.23.23-.45.34-.69a.243.243,0,0,0-.18-.38l-.4-.11a.291.291,0,0,0-.38.19A8.563,8.563,0,0,1,1.42-3.93c-.17.12-.19.25-.09.38a.278.278,0,0,0,.4.07A6.7,6.7,0,0,0,3.39-4.81,11.665,11.665,0,0,1,5.77-2.97,11.127,11.127,0,0,1,2.08.11c-.17.09-.23.21-.15.34A.259.259,0,0,0,2.3.53a11.741,11.741,0,0,0,4.09-2.9c.16.24.37.49.7.92a.271.271,0,0,0,.43.06l.34-.28a.267.267,0,0,0,.02-.43c-.16-.17-.31-.31-.44-.44-.19-.19-.36-.35-.53-.49A12.694,12.694,0,0,0,8.66-6.28C8.8-6.66,8.63-6.8,8.34-6.8Zm-3.75.46H7.38A12.055,12.055,0,0,1,6.17-3.59,14.472,14.472,0,0,0,3.79-5.18,6.855,6.855,0,0,0,4.59-6.34ZM16.1.2V-5.18a13.327,13.327,0,0,0,2.12-1.93.272.272,0,0,0-.01-.43l-.32-.29a.273.273,0,0,0-.43.03A16.469,16.469,0,0,1,11.2-3.05a.258.258,0,1,0,.21.47,16.554,16.554,0,0,0,3.66-1.93V.2a.269.269,0,0,0,.3.3h.43A.265.265,0,0,0,16.1.2ZM28.3-2.45l.19-.35a.307.307,0,0,0-.13-.42,27.619,27.619,0,0,0-4.12-1.89V-7.47a.3.3,0,0,0-.31-.31h-.38a.3.3,0,0,0-.31.31V.18a.3.3,0,0,0,.31.31h.38a.3.3,0,0,0,.31-.31V-4.54c1.01.53,2.26,1.3,3.61,2.2A.307.307,0,0,0,28.3-2.45ZM34.91-.23l.29.17a.38.38,0,0,0,.41.01,9.456,9.456,0,0,0,3.9-4.21.272.272,0,0,0-.1-.4c-.16-.1-.29-.05-.4.12a10.791,10.791,0,0,1-3.25,3.51V-7.29a.269.269,0,0,0-.3-.3H35a.269.269,0,0,0-.3.3v6.7A.373.373,0,0,0,34.91-.23ZM33.4-6.4h-.51a.274.274,0,0,0-.3.3c-.09,2.18-.37,3.88-1.84,5.58-.13.15-.13.28,0,.4a.271.271,0,0,0,.41,0,7.989,7.989,0,0,0,2.53-5.97A.262.262,0,0,0,33.4-6.4Z" transform="translate(-1.27 8.006)"/></svg>