<svg xmlns="http://www.w3.org/2000/svg" width="40.898" height="18.964" viewBox="0 0 40.898 18.964"><defs><style>.a{fill:#fff;}</style></defs><path class="a" d="M20.79-.814a14.6,14.6,0,0,1-4.18-1.848,21.629,21.629,0,0,0,2.9-5.126l-.682-.88H10.208v2.2h2.266l-1.32.836a19.557,19.557,0,0,0,2.09,2.992,12.22,12.22,0,0,1-4,1.848V-6.006h-7V1.078h2.4V.242h4.6V-.44L10.8,1.232A11.8,11.8,0,0,0,14.894-.99a12.482,12.482,0,0,0,4.554,2.134ZM6.82-1.914H4.642V-4.026H6.82Zm9.416-4.554a7.19,7.19,0,0,1-1.408,2.442A8.178,8.178,0,0,1,13.2-6.468ZM21.164-12.5l-1.738-1.056c-.176,1.034-.264,1.5-.66,1.5H18.26c-.176,0-.374-.066-.374-.55v-4.906h-6.82a14.3,14.3,0,0,1,.066,1.452,12.2,12.2,0,0,1-.528,3.784,7.359,7.359,0,0,1-1.078,2.134l2,1.012a10.353,10.353,0,0,0,1.936-6.094h1.98v3.806c0,1.012.836,1.628,1.958,1.628h1.936C20.68-9.79,21.054-11.836,21.164-12.5ZM8.338-15.488v-2.024H2.706v2.024ZM8.6-7V-8.888H2.552V-7Zm1.034-5.632v-1.914H1.54v1.914ZM8.536-9.79v-1.892H2.618V-9.79Zm33.528-1.584v-4.4H34.342v-.99c.22-.176.506-.308.506-.44,0-.22-.242-.286-.33-.286l-2.9-.242v1.958H23.936v4.466h2.178V-13.6H39.908v2.222Zm.374,9.68c-2.222.2-4.73.352-8.074.374V-5.258h5.544v-2.2H34.364v-2.31h5.368V-11.88H26.29v2.112h5.544v7.942a5.615,5.615,0,0,1-2.992-3.96c.154-.616.308-1.43.4-1.738.22-.2.44-.286.44-.418s-.2-.2-.286-.22l-2.53-.4a16.8,16.8,0,0,1-1.276,4.84A9.87,9.87,0,0,1,23.232-.11L25.5.968a13.986,13.986,0,0,0,2.31-3.74A6.641,6.641,0,0,0,30.382-.044a8.118,8.118,0,0,0,3.7.9h7.634Z" transform="translate(-1.54 17.732)"/></svg>