<svg xmlns="http://www.w3.org/2000/svg" width="62.172" height="17.424" viewBox="0 0 62.172 17.424"><defs><style>.a{fill:#fff;}</style></defs><path class="a" d="M18.612-.792V-15.268H3.366V-.88H5.984v-.858h10.01v.946ZM15.994-4.224H5.984v-8.558h10.01Zm24.772-2.75V-9.768H25.124v2.794Zm24.772-7.744a9.191,9.191,0,0,0-2.046-1.98l-1.144.968a9.174,9.174,0,0,1,2.046,1.98Zm-2.508,1.43a9.11,9.11,0,0,0-1.98-1.936l-1.21.968a9.11,9.11,0,0,1,1.98,1.936Zm-.11,6.314a26.436,26.436,0,0,0-7.084-4.576l-1.012,1.54v-5.7c0-.11.55-.462.55-.594,0-.264-.484-.352-.528-.352l-2.728-.484V.286h2.706V-9.108a21.885,21.885,0,0,1,6.358,4.334Z" transform="translate(-3.366 17.138)"/></svg>