<svg xmlns="http://www.w3.org/2000/svg" width="67.496" height="18.616" viewBox="0 0 67.496 18.616"><defs><style>.a{fill:#fff;}</style></defs><path class="a" d="M14.378-18.8H2.106a.6.6,0,0,0-.676.676v.052a.6.6,0,0,0,.676.676h4.81V-.858a.6.6,0,0,0,.676.676h1.3a.6.6,0,0,0,.676-.676V-17.394h4.81a.6.6,0,0,0,.676-.676v-.052A.6.6,0,0,0,14.378-18.8Zm6.682,0H19.6a.6.6,0,0,0-.676.676V-.858a.6.6,0,0,0,.676.676H21.06a.6.6,0,0,0,.676-.676V-18.122A.6.6,0,0,0,21.06-18.8Zm17.628,0H26.416a.6.6,0,0,0-.676.676v.052a.6.6,0,0,0,.676.676h4.81V-.858a.6.6,0,0,0,.676.676h1.3a.6.6,0,0,0,.676-.676V-17.394h4.81a.6.6,0,0,0,.676-.676v-.052A.6.6,0,0,0,38.688-18.8Zm6.006,0h-1.43a.6.6,0,0,0-.676.676V-.858a.6.6,0,0,0,.676.676H53.586a.6.6,0,0,0,.676-.676V-.91a.6.6,0,0,0-.676-.676H45.37V-18.122A.6.6,0,0,0,44.694-18.8Zm23.556,0H58.188a.6.6,0,0,0-.676.676V-.858a.6.6,0,0,0,.676.676H68.25a.6.6,0,0,0,.676-.676V-.884a.6.6,0,0,0-.676-.676H60.19V-9.568h7.566c.442,0,.676-.208.676-.624a.6.6,0,0,0-.676-.676H60.19V-17.42h8.06a.6.6,0,0,0,.676-.676v-.026A.6.6,0,0,0,68.25-18.8Z" transform="translate(-1.43 18.798)"/></svg>