<svg xmlns="http://www.w3.org/2000/svg" xmlns:xlink="http://www.w3.org/1999/xlink" width="109.119" height="42.554" viewBox="0 0 109.119 42.554"><defs><style>.a{fill:#fff;}.b{filter:url(#a);}</style><filter id="a" x="0" y="0" width="109.119" height="42.554" filterUnits="userSpaceOnUse"><feOffset dy="3" input="SourceAlpha"/><feGaussianBlur stdDeviation="3" result="b"/><feFlood flood-color="#fff" flood-opacity="0.553"/><feComposite operator="in" in2="b"/><feComposite in="SourceGraphic"/></filter></defs><g class="b" transform="matrix(1, 0, 0, 1, 0, 0)"><path class="a" d="M-38.24-1.378a3.6,3.6,0,0,1-.185,1.17c-.081.174-.336.266-.764.266A2.379,2.379,0,0,1-39.85,0q-.139-.052-.139-.278V-2.154c.278-.093.405-.185.405-.278,0-.127-.324-.22-.961-.243V-.023a.487.487,0,0,0,.3.521,4.457,4.457,0,0,0,1.181.093A3.634,3.634,0,0,0-37.835.463c.174-.069.266-.243.278-.533a.318.318,0,0,1-.313-.162,3.087,3.087,0,0,1-.1-1.054Zm-3.787-3.961a6.5,6.5,0,0,0,2-2.478q.452-.052.452-.174c0-.127-.29-.3-.88-.521a7.7,7.7,0,0,1-1.76,2.988Zm.567,3.057a2.915,2.915,0,0,1-.649,1.83c-.162.174-.243.3-.243.394,0,.232.127.347.371.347.2,0,.371-.151.521-.475a3.335,3.335,0,0,0,.29-1.494,5.071,5.071,0,0,0-.023-.544Zm2.571-6.092a6.682,6.682,0,0,0,2.131,2.791,1.537,1.537,0,0,1,.486-.591,6.512,6.512,0,0,1-2.4-2.328ZM-45.7.058a7.614,7.614,0,0,0,.9-2.467c.208-.046.313-.116.313-.174,0-.127-.3-.255-.915-.371A10.947,10.947,0,0,1-45.93-.069Zm7.817-2.339a3.876,3.876,0,0,1,.892,1.888q.052.452.347.452c.266,0,.382-.151.382-.452,0-.672-.475-1.343-1.448-2.05Zm-5.443-.695a3.462,3.462,0,0,1,.452,1.529c.012.278.1.417.29.417.243,0,.371-.162.371-.463a2.612,2.612,0,0,0-.915-1.61ZM-40.07-3.5a2.764,2.764,0,0,1,1.031,1.2c.081.208.2.313.336.313a.315.315,0,0,0,.347-.359c0-.5-.521-.938-1.575-1.355Zm-4.794-3.3a4.062,4.062,0,0,0-.73-.382l-.127.174a2.848,2.848,0,0,1,.961,1.3c.069.22.162.324.3.324.22,0,.336-.127.336-.382a1.25,1.25,0,0,0-.521-.857,11.959,11.959,0,0,0,1.054-1.448c.255-.012.382-.069.382-.151,0-.139-.278-.313-.834-.51A10.981,10.981,0,0,1-44.864-6.8Zm4.192,2.374c-.093.012-.243.012-.44.023-.243.012-.417.023-.544.023.116.579.243.88.371.88q.087,0,.208-.347c.961-.127,1.922-.3,2.86-.486l.266-.058a3.036,3.036,0,0,1,.22.567.281.281,0,0,0,.3.243c.232,0,.347-.116.347-.394,0-.556-.544-1.123-1.644-1.714l-.139.174a5.27,5.27,0,0,1,.764.869c-.637.069-1.332.139-2.108.2a1.219,1.219,0,0,0-.139.012,12.261,12.261,0,0,0,1.042-1.772c.255-.023.394-.093.394-.174,0-.127-.29-.29-.88-.475A17.488,17.488,0,0,1-40.672-4.424Zm-4.2.174c-.417.023-.764.035-1.031.035.127.591.266.892.394.892.069,0,.139-.116.2-.336.29-.035.6-.093.938-.139a.862.862,0,0,1,.174-.035V.753h.579v-4.7c.382-.069.683-.139.88-.185a3.294,3.294,0,0,1,.1.486c.023.232.127.359.3.359.22,0,.324-.151.324-.405,0-.591-.394-1.135-1.17-1.668l-.162.174a3,3,0,0,1,.5.788c-.5.058-1.042.093-1.656.127A20.2,20.2,0,0,0-42.49-6.717c.278,0,.405-.046.405-.139,0-.139-.266-.313-.8-.533A27.586,27.586,0,0,1-44.83-4.32Zm12.7-1.112a4.755,4.755,0,0,0,1.193-.371c.371-.139,1.054-.428,1.494-.591a3.859,3.859,0,0,1,.591-.185,4.584,4.584,0,0,0-.556.475,2.048,2.048,0,0,0-.51.938,11.677,11.677,0,0,0-.255,1.4A6.161,6.161,0,0,0-30.2-2.027a1.612,1.612,0,0,0,.521,1.065,2.231,2.231,0,0,0,1.251.452,7.164,7.164,0,0,0,1.123,0c.243-.023.347-.2.255-.336a.839.839,0,0,0-.475-.336,2.84,2.84,0,0,0-.811-.023,1.359,1.359,0,0,1-.95-.232A1.21,1.21,0,0,1-29.74-2.3a6.678,6.678,0,0,1,.035-1.83,6.369,6.369,0,0,1,.243-1.181,2.263,2.263,0,0,1,.637-.869c.208-.174.44-.347.6-.475.023,0,.058-.012.081-.012a11.476,11.476,0,0,1,1.285-.139c.29.012.51.069.706.093.174.035.3.035.382-.1S-25.8-7.157-26-7.284a1.749,1.749,0,0,0-1.019-.1c-.371.058-1.17.255-1.865.44s-1.517.44-1.876.544a6.235,6.235,0,0,1-1.378.324A1.479,1.479,0,0,1-32.82-6.2c-.162-.069-.347-.139-.44-.023-.116.127.012.405.162.556A1.126,1.126,0,0,0-32.172-5.362Zm16.572.834a16.524,16.524,0,0,1-1.517.73c-.1.046-.2.1-.3.139-.023-.058-.058-.139-.093-.208a2.61,2.61,0,0,1,.625-.961,2.089,2.089,0,0,1,.973-.556c.405-.093.649.012.718.139S-15.113-4.783-15.6-4.528Zm-2.594-2.9a.806.806,0,0,0-.058-.29c.035.012.081.012.127.023.162.023.243.058.278.1s-.023.151-.2.243c-.046.023-.093.046-.151.081A.378.378,0,0,0-18.194-7.423Zm3.382,1.888a1.675,1.675,0,0,0-1.587.023A3.124,3.124,0,0,0-17.638-4.47a1.169,1.169,0,0,0-.151.185.9.9,0,0,0-.614-.347,1.3,1.3,0,0,0-.788.069c-.069.023-.174.069-.266.1a1.509,1.509,0,0,0,.116-.174,12.374,12.374,0,0,0,.706-1.216,3.426,3.426,0,0,0,.278-.66.877.877,0,0,0,.208-.1,1.919,1.919,0,0,0,.614-.672c.093-.185.151-.29.046-.371a1.164,1.164,0,0,0-.428-.139c-.069-.012-.266-.058-.428-.081a.4.4,0,0,0-.162-.151.4.4,0,0,0-.44-.012.333.333,0,0,0,.069.417.53.53,0,0,1,.151.556l-.174.035a1.709,1.709,0,0,1-.915-.023c-.255-.093-.452-.22-.591-.035a.569.569,0,0,0,.22.66,1.616,1.616,0,0,0,.961.151l.278-.035a4.665,4.665,0,0,1-.359.741,4.779,4.779,0,0,1-1.2,1.482,5.581,5.581,0,0,1-.591.336.637.637,0,0,0-.243.51c0,.208.023.359.278.371a1.193,1.193,0,0,0,.845-.6c.139-.2.29-.371.44-.567a1.206,1.206,0,0,1,.208-.116,1.3,1.3,0,0,1,.741-.116,1.087,1.087,0,0,1,.741.417.791.791,0,0,1,.151.463c-.22.1-.44.22-.637.324a5.042,5.042,0,0,0-1.089.776,1.413,1.413,0,0,0-.5,1.008,1.083,1.083,0,0,0,.5,1.042,3.383,3.383,0,0,0,1.552.428,12.018,12.018,0,0,0,1.668-.1,1.821,1.821,0,0,0,.625-.127c.174-.081.174-.278-.012-.417a.906.906,0,0,0-.706-.185,6.728,6.728,0,0,0-.776.151A7.845,7.845,0,0,1-18.4-.382a1.462,1.462,0,0,1-1.135-.51.936.936,0,0,1,.127-1.031,2.515,2.515,0,0,1,.926-.753,4.774,4.774,0,0,1,.544-.255v.069A4.523,4.523,0,0,1-18.113-1.8c-.069.232.023.417.266.394a.629.629,0,0,0,.475-.382,1.789,1.789,0,0,0,.139-1.008c-.012-.139-.035-.278-.046-.405.127-.058.255-.116.371-.162.44-.185,1.008-.371,1.343-.544a2.727,2.727,0,0,0,.857-.649A.677.677,0,0,0-14.812-5.536Zm8.547-.591.127.255h2.119l.093-.174a3.826,3.826,0,0,0-.591-.567l-.405.486Zm-3.88,3.717v-4.54h1.2v4.54ZM-3.8-2.837H-6.636v-.892H-3.8Zm0-2.027v.88H-6.636v-.88ZM-4.192-1.17a4.355,4.355,0,0,1-.892-1.262c0-.012-.012-.023-.023-.046a.39.39,0,0,0-.058-.093H-3.8v.313h.579V-4.644l.243-.185c.058-.035.081-.058.081-.1,0-.081-.208-.278-.625-.6l-.359.405H-6.555c-.359-.151-.533-.232-.556-.232a7.728,7.728,0,0,0,2-2.432l.023-.058a7.062,7.062,0,0,0,3.057,2.7,1.766,1.766,0,0,1,.5-.521,7.622,7.622,0,0,1-3.4-2.42c.278-.035.417-.081.417-.174q0-.191-.9-.382a7.864,7.864,0,0,1-2.965,3.8V-6.786l.243-.151a.175.175,0,0,0,.081-.127c0-.081-.208-.3-.614-.637l-.359.486h-1c-.359-.185-.591-.313-.695-.347v6.59h.579v-1.17h1.2v.73h.556V-4.551a10.526,10.526,0,0,0,1.158-.718V-.255q-.417.069-1.251.174c.185.567.347.857.463.857.069,0,.127-.116.185-.371A21.886,21.886,0,0,0-4.737-.556L-4.794-.8c-.6.174-1.216.324-1.841.44V-2.571h1.17A7.456,7.456,0,0,0-4.9-1.355,4.76,4.76,0,0,0-2.05.614,2.022,2.022,0,0,1-1.54.058,5.325,5.325,0,0,1-3.984-.984a7.647,7.647,0,0,0,1.32-.938c.069,0,.139.012.22.012.162,0,.232-.035.232-.116,0-.127-.232-.324-.695-.614A8.612,8.612,0,0,1-4.192-1.17ZM6.566-.938a5.5,5.5,0,0,1-1.783.683,5.847,5.847,0,0,1-1.17.1c-.162-.012-.313,0-.324.093s.185.139.336.151a7.879,7.879,0,0,0,1.2-.035A6.089,6.089,0,0,0,6.81-.486,3.164,3.164,0,0,0,8.269-1.946a1.626,1.626,0,0,0-.336-1.726,2.338,2.338,0,0,0-2.05-.637,3.281,3.281,0,0,0-1.3.428c-.486.266-.9.567-1.2.741-.278.174-.428.2-.6.116s-.1-.382-.069-.66c.035-.255.1-.88.151-1.355S2.976-5.837,3-6s.174-.278.382-.336A2.242,2.242,0,0,1,4.273-6.4a3.507,3.507,0,0,1,.66.174.352.352,0,0,0,.324-.081.507.507,0,0,0,.058-.544A1.6,1.6,0,0,0,4.771-7.6a1.912,1.912,0,0,0-.88-.394A1.44,1.44,0,0,0,3.451-8c-.116.012-.22.012-.243.116s.127.151.243.2a2.4,2.4,0,0,1,.66.347c.22.174.347.382.3.51s-.359.151-.579.174a4.246,4.246,0,0,0-.961.255c-.255.127-.359.324-.417.73s-.081,1-.174,1.471c-.093.5-.162.926-.22,1.181a1.051,1.051,0,0,0,.2.764c.151.255.185.359.428.359a.739.739,0,0,0,.567-.162,11.338,11.338,0,0,1,.938-.857,4.528,4.528,0,0,1,1.367-.845,2.026,2.026,0,0,1,1.563.174,1.192,1.192,0,0,1,.533,1.2A1.927,1.927,0,0,1,6.566-.938Zm7.678-3.648a1.03,1.03,0,0,0,.926.035,13,13,0,0,1,1.448-.579,2.324,2.324,0,0,1,1.367-.046c.51.151.834.544.811,1.378a3.624,3.624,0,0,1-.649,2.119A3.869,3.869,0,0,1,16.491-.486a8.064,8.064,0,0,1-1.2.382.157.157,0,0,0-.151.162c0,.035.069.081.208.069a4.946,4.946,0,0,0,1.17-.29A5.98,5.98,0,0,0,18.3-1.054,3.2,3.2,0,0,0,19.525-2.93,2.587,2.587,0,0,0,19.2-4.922a1.882,1.882,0,0,0-1.54-.811,3.587,3.587,0,0,0-1.6.29,3.648,3.648,0,0,1-1,.347,2.246,2.246,0,0,1-.6-.046c-.162-.035-.336-.069-.417.012C13.932-5.038,14.013-4.713,14.245-4.586Zm1.668-3.069c.116.046.371.174.475.208s.208.093.22.151a.346.346,0,0,1-.081.22c-.046.058-.162.313-.1.359.081.058.313-.185.336-.208a.463.463,0,0,1,.324-.162,1.51,1.51,0,0,0,.5-.046.336.336,0,0,0,.081-.533,1.641,1.641,0,0,0-.926-.347A2.421,2.421,0,0,0,15.958-8c-.058.012-.185.035-.208.1C15.7-7.794,15.8-7.724,15.912-7.655ZM26.161-3.474c-.139-.139-.116-.3.116-.44.046-.023.081-.058.127-.081a5.215,5.215,0,0,0-.081.649A1.557,1.557,0,0,1,26.161-3.474ZM27.3-5.258c.324.012.266.174.151.255a4.5,4.5,0,0,1-.428.266c.035-.151.058-.313.1-.452a.165.165,0,0,0,.023-.069Zm3.4,1.934a4.675,4.675,0,0,0-1.262-1.1,2.733,2.733,0,0,0-.6-.313c-.081-.035-.2-.035-.22.023-.046.081.035.151.139.2a3.948,3.948,0,0,1,.579.405,3.088,3.088,0,0,1,.788.984,2.581,2.581,0,0,1,.3,1.436A1.485,1.485,0,0,1,29.4-.359,2.26,2.26,0,0,1,27.435-.5a1.748,1.748,0,0,1-.683-1.448,3.909,3.909,0,0,1,0-.521c.093.023.2.058.29.081a3.514,3.514,0,0,0,1.123.093c.232-.023.347-.081.382-.185s-.069-.313-.208-.394a.787.787,0,0,0-.544-.093,3.487,3.487,0,0,1-1.008-.151c.023-.151.046-.29.069-.452q.035-.365.1-.73c.093-.046.2-.093.3-.139a10.436,10.436,0,0,0,.984-.51.431.431,0,0,0,.243-.521c-.069-.185-.29-.278-.625-.3a4.743,4.743,0,0,1-.567-.069c.093-.347.208-.718.29-1,.151-.475.2-.834,0-1.031a1.761,1.761,0,0,0-.66-.405c-.162-.046-.278-.023-.324.058s.012.174.116.278a1.211,1.211,0,0,1,.243.428,1.382,1.382,0,0,1,.023.544,5.614,5.614,0,0,1-.127.637,2.709,2.709,0,0,1-.081.371,1.705,1.705,0,0,1-.6-.278c-.174-.151-.266-.371-.452-.3-.093.023-.081.29.058.544a1.188,1.188,0,0,0,.66.533c.081.023.139.058.208.081-.058.255-.116.579-.2,1.008-.2.139-.359.255-.475.347a.8.8,0,0,0-.371.625c0,.255.162.417.51.625.046.023.093.058.139.081-.012.139-.023.29-.023.428a3.145,3.145,0,0,0,.313,1.726A1.873,1.873,0,0,0,27.84.3,3.4,3.4,0,0,0,29.485.208a2.782,2.782,0,0,0,1.251-.8,1.91,1.91,0,0,0,.417-1.239A2.617,2.617,0,0,0,30.7-3.324Zm8.72-1.934a4.46,4.46,0,0,1-.672,1.865,2.058,2.058,0,0,1-1.17.95c-.463.151-.857.069-1.019-.324a2.76,2.76,0,0,1,.093-1.76,3.875,3.875,0,0,1,1.378-1.7A4.659,4.659,0,0,1,39.491-6.9,8.3,8.3,0,0,1,39.421-5.258Zm4.123-.475a3.391,3.391,0,0,0-1.216-1.216,3.65,3.65,0,0,0-1.841-.486,4.741,4.741,0,0,0-2.189.51,4.915,4.915,0,0,0-1.482,1.216A3.49,3.49,0,0,0,36.04-4.1a2.5,2.5,0,0,0,.151,1.726,1.278,1.278,0,0,0,1.181.88,2.077,2.077,0,0,0,1.517-.973A5.13,5.13,0,0,0,39.7-4.5a7.666,7.666,0,0,0,.174-1.587c-.012-.29-.012-.66-.035-.892.1-.012.208-.035.3-.046a3.275,3.275,0,0,1,2.015.428,2.418,2.418,0,0,1,1.019,1.436,4.088,4.088,0,0,1,.151,1.911,2.635,2.635,0,0,1-1,1.644,5.1,5.1,0,0,1-1.413.683,5.748,5.748,0,0,1-1.39.2,5.635,5.635,0,0,1-.614-.035c-.093-.012-.162.035-.162.093s.046.1.162.116a4.98,4.98,0,0,0,1.865-.012,5.357,5.357,0,0,0,1.911-.695,2.565,2.565,0,0,0,1.123-1.459,4.451,4.451,0,0,0,.151-1.6A3.083,3.083,0,0,0,43.544-5.733ZM-45.189,11.283h4.1V10.8h-4.1ZM-34.7,14.745h-1.448V8.712H-34.7Zm.6,0V8.712h1.506v6.034Zm-2.652,0h-1.39V8.712h1.39Zm-1.285-6.288c-.266-.151-.51-.278-.741-.382v6.671h-1.251l.139.255h9.126l.1-.22a4.4,4.4,0,0,0-.533-.764l-.44.73h-.347V8.92l.3-.174c.046-.046.081-.069.081-.116,0-.1-.22-.324-.66-.672l-.417.5h-3.486a9.256,9.256,0,0,0,.73-1.413c.29-.058.44-.127.44-.22,0-.151-.347-.3-1.054-.428a10.14,10.14,0,0,1-.44,2.061Zm13.9,4.308c-.093.046-.046.232.1.405a2.684,2.684,0,0,0,.788.6,3.98,3.98,0,0,0,1.228.313A4.8,4.8,0,0,0-20.66,14c.405-.1.718-.29.625-.51s-.347-.266-.6-.278-.706.162-1.216.2a3.315,3.315,0,0,1-1.251-.093,2.429,2.429,0,0,1-.649-.347C-23.88,12.881-24.007,12.684-24.135,12.765Zm1.494-4.019a3.258,3.258,0,0,0,1.274-.116c.336-.116.475-.347.382-.51s-.359-.162-.625-.069a3.766,3.766,0,0,1-1.008.22,3.035,3.035,0,0,1-.938-.069c-.255-.081-.405-.1-.452,0s.093.2.255.266A3.822,3.822,0,0,0-22.641,8.746Zm-4.748,4.493A2.478,2.478,0,0,0-27,14.433c.162.232.405.394.591.313s.2-.475.1-.776a3.7,3.7,0,0,1-.232-1.3,2.709,2.709,0,0,1,.255-1.135c.058-.093.081-.185.012-.232s-.139.023-.22.127a4.222,4.222,0,0,0-.371.625c-.046.1-.081.22-.139.22s-.058-.139-.046-.336a6.357,6.357,0,0,1,.093-.822,7.149,7.149,0,0,1,.232-.984c.093-.313.266-.764.347-.984a2.231,2.231,0,0,0,.174-.869,1.364,1.364,0,0,0-.313-.73c-.162-.162-.394-.29-.521-.2-.093.081-.012.266.093.405a1.49,1.49,0,0,1,.093.9c-.069.371-.174.649-.3,1.262a13.939,13.939,0,0,0-.278,1.563A6.9,6.9,0,0,0-27.389,13.24Zm13.7-5.605a24,24,0,0,1-1.9,2.8.822.822,0,0,1-.683.29c-.093,0-.185-.012-.255-.012v.278a1.816,1.816,0,0,1,.556.1.761.761,0,0,1,.336.73c0,.151-.023.394-.058.718a.434.434,0,0,0-.012.127c0,.208.116.313.336.313.266,0,.405-.174.405-.533a2.435,2.435,0,0,0-.139-.811,1.693,1.693,0,0,1-.093-.5.859.859,0,0,1,.093-.394L-13.469,7.8Zm3.416,3.2a4.147,4.147,0,0,1,1.714,1.448.307.307,0,0,0,.266.162q.347,0,.347-.382c0-.185-.139-.394-.417-.614a5.007,5.007,0,0,0-1.8-.811Zm-4.03,1.853a4.831,4.831,0,0,0,1.783-1.529c.3-.012.452-.058.452-.151,0-.116-.278-.266-.822-.428a5.567,5.567,0,0,1-1.587,1.911Zm-1.6-5.906a1.872,1.872,0,0,1,.8.915c.058.151.139.22.278.22.232,0,.347-.127.347-.371,0-.405-.44-.718-1.309-.926Zm-.764,1.494a1.866,1.866,0,0,1,.753.8c.069.185.174.278.3.278.232,0,.347-.127.347-.371,0-.405-.428-.695-1.285-.88Zm-.058,6.891.127.266h8.987l.1-.174-.081-.1a6.017,6.017,0,0,0-.637-.591l-.533.6h-3.127V13.923H-8.5l.116-.174a7.959,7.959,0,0,0-.706-.695l-.533.614h-2.258v-.486c.266-.1.394-.185.394-.255,0-.127-.324-.208-1-.255v1h-3.254l.127.255h3.127v1.239Zm5.837-8.141c.3-.035.463-.093.463-.185,0-.116-.3-.255-.88-.417a8.714,8.714,0,0,1-3.1,3.231l.151.208a8.336,8.336,0,0,0,3.208-2.617,8.359,8.359,0,0,0,3.254,2.3,2.082,2.082,0,0,1,.394-.6,9.859,9.859,0,0,1-3.486-1.911Zm1.1,2.015.1-.151a3.392,3.392,0,0,0-.614-.463l-.371.359H-12.38l.093.255h.961V10h-2.49l.127.266h2.363v1.39c0,.185-.081.278-.266.278a5.346,5.346,0,0,1-1.019-.069v.266c.672.1,1.019.29,1.019.556V12.7c.567,0,.845-.22.845-.66V10.263h2.513l.116-.185a3.581,3.581,0,0,0-.649-.556L-9.2,10h-1.552V9.036Zm13.48,4.03a7.051,7.051,0,0,1-.706.579,1.748,1.748,0,0,1-1,.347c-.359-.023-.591-.232-.579-.811s.035-1.239.116-1.922a11.9,11.9,0,0,0,.058-1.448,1.421,1.421,0,0,0-.255-.869.86.86,0,0,0-.718-.359A1.932,1.932,0,0,0-.44,8.943,14.509,14.509,0,0,0-1.876,9.962c-.127.127-.2.116-.232.069-.023-.023.046-.151.139-.29a.66.66,0,0,0,.046-.51.467.467,0,0,0-.255-.2,2.293,2.293,0,0,1,.069-.3,1.248,1.248,0,0,0-.012-.915,1.817,1.817,0,0,0-.6-.741c-.243-.174-.44-.232-.579-.116-.093.069-.035.278.127.452a1.322,1.322,0,0,1,.382.718,7.127,7.127,0,0,1,.046.764,1.563,1.563,0,0,0-.567.139,4.745,4.745,0,0,0-1.008.556c-.266.22-.394.44-.255.649a6.575,6.575,0,0,1,.428,1.008c.058.162.139.371.232.614-.058.093-.116.174-.162.255-.3.44-.6.857-.8,1.216s-.255.51-.139.706.243.255.382.208.232-.208.324-.579a3.6,3.6,0,0,1,.614-1.2h.012c.046.116.081.243.127.371.2.614.359,1.065.452,1.4s.1.614.127.753a.25.25,0,0,0,.324.208.457.457,0,0,0,.359-.313,2.792,2.792,0,0,0,.1-.973c-.012-.51-.012-.845-.046-1.228s-.069-1.008-.081-1.6v-.2A14.652,14.652,0,0,1-1.193,9.9a3.306,3.306,0,0,1,1.2-.614.884.884,0,0,1,.822.116c.162.162.139.637.116,1.158-.023.463-.046.984-.069,1.552A6.423,6.423,0,0,0,.869,13.68a1.016,1.016,0,0,0,.533.683,1.094,1.094,0,0,0,.8.127,1.79,1.79,0,0,0,.973-.5,4.052,4.052,0,0,0,.695-.822C3.972,13,3.833,12.939,3.694,13.066Zm-6.682.428c-.081-.2-.278-.776-.486-1.332a8.8,8.8,0,0,1,.649-.764c-.012.5-.012.938,0,1.285.023.475.023.695.035.845S-2.907,13.7-2.988,13.494Zm.2-3.185a1.766,1.766,0,0,1-.266.417c-.127.162-.394.5-.637.845-.151-.382-.278-.695-.394-.961a.644.644,0,0,1,.29-.8,2.246,2.246,0,0,1,.718-.22.323.323,0,0,1,.3.127C-2.779,9.893-2.791,10.1-2.791,10.31Zm16.839,3.9a6.833,6.833,0,0,0-.88.116,3.443,3.443,0,0,1-.973-.035,1.467,1.467,0,0,1-.892-.544,1.216,1.216,0,0,1-.046-1.054,4.45,4.45,0,0,1,.371-.869c.069-.1.093-.2.046-.22s-.116.023-.185.116a4.249,4.249,0,0,0-.44.834A1.68,1.68,0,0,0,10.909,14a1.627,1.627,0,0,0,1.436.926,7.662,7.662,0,0,0,1.946.058c.29-.023.533-.243.394-.463A.734.734,0,0,0,14.048,14.212ZM12.924,9.985a4.28,4.28,0,0,0-.579.428A3.928,3.928,0,0,0,11.87,11c-.058.093-.093.208-.035.232s.127-.1.2-.185a1.568,1.568,0,0,1,.475-.382,6.672,6.672,0,0,1,.706-.382c.232-.1.44-.185.51-.22a.4.4,0,0,0,.266-.232.412.412,0,0,0-.208-.452A1.156,1.156,0,0,0,13.1,9.21a2.458,2.458,0,0,0-.73.058,7.808,7.808,0,0,0-.892.255c-.127.046-.336.151-.266.278.035.058.22.035.347,0a3.438,3.438,0,0,1,.533-.116,2.411,2.411,0,0,1,.776.012c.1.012.255.058.266.116S13.04,9.9,12.924,9.985ZM10.238,8.746c.058.058.081.151,0,.185a2.676,2.676,0,0,1-.417.22C9.855,9,9.89,8.874,9.9,8.8s.035-.139.058-.22A1.967,1.967,0,0,1,10.238,8.746ZM8.1,12.556c-.185.405-.359.764-.486,1.089a2.776,2.776,0,0,0-.313.764c0,.185,0,.463.174.567a.287.287,0,0,0,.428-.1,17.594,17.594,0,0,0,.695-1.714c.151-.463.452-1.413.533-1.691s.347-1.031.428-1.332c.023-.093.058-.2.093-.336.185-.023.359-.058.521-.093a2.287,2.287,0,0,0,.95-.51c.174-.185.208-.3.139-.417s-.255-.174-.475-.22a3.516,3.516,0,0,1-.753-.278,1.038,1.038,0,0,0,0-.533.859.859,0,0,0-.371-.567c-.162-.1-.347-.162-.463-.081s-.046.3.046.44a1.573,1.573,0,0,1,.232.695,4.152,4.152,0,0,1-.127,1.1,2.961,2.961,0,0,1-.834.151,1.524,1.524,0,0,1-.521-.035,1.615,1.615,0,0,1-.3-.116c-.069-.035-.151-.058-.2,0-.069.081-.012.3.208.394a2.8,2.8,0,0,0,1.054.139c.127,0,.278-.012.428-.023a11.525,11.525,0,0,1-.428,1.216C8.616,11.387,8.28,12.128,8.1,12.556ZM21.124,7.681l.1.266h5.258l.127-.208A6.284,6.284,0,0,0,25.872,7l-.521.683ZM19.815,9.464a16.965,16.965,0,0,0,.926-2.374c.324-.058.486-.127.486-.22,0-.151-.347-.313-1.019-.463a17.66,17.66,0,0,1-2.478,5.779l.22.174a14.843,14.843,0,0,0,1.32-1.865v5.258h.6V9.985c.29-.093.428-.185.428-.266C20.3,9.6,20.139,9.534,19.815,9.464ZM22.247,14.4a22.606,22.606,0,0,0,1.529-3.451l.093-.243h3.289l.116-.2a7.978,7.978,0,0,0-.753-.776l-.556.718H20.475l.116.255h2.49a23.283,23.283,0,0,1-1.17,3.729l-.324.012c-.1.012-.278.023-.5.035-.2.012-.336.012-.44.023.185.649.347.984.486.984.081,0,.139-.127.2-.382,1.749-.255,3.277-.544,4.563-.811l.2-.046a7.251,7.251,0,0,1,.382.834c.093.3.22.463.382.463.255,0,.359-.151.359-.44a1.384,1.384,0,0,0-.29-.8A8.245,8.245,0,0,0,24.783,12.2l-.174.185a9.49,9.49,0,0,1,1.32,1.587c-1.494.208-2.664.359-3.532.417Zm7.2-5.883.093.266H33.48l.1-.185a4.276,4.276,0,0,0-.672-.706l-.5.625Zm4.656-1.83A3.572,3.572,0,0,1,34.893,8.4c.035.29.151.417.324.417.243,0,.371-.139.371-.428a2.536,2.536,0,0,0-1.3-1.876ZM29.948,11.12l.093.266h2.872l.139-.2a3.706,3.706,0,0,0-.614-.672l-.486.6Zm.174-3.914.069.255h2.664l.116-.185a5.086,5.086,0,0,0-.637-.672l-.463.6Zm-.174,2.617.093.255h2.9l.116-.174a5.528,5.528,0,0,0-.649-.683l-.463.6Zm2.258,2.9v2.108H30.5V12.719Zm-1.621-.266a4.446,4.446,0,0,0-.66-.336v3.636H30.5v-.672h1.7v.51h.567V12.927l.232-.162c.069-.058.081-.1.081-.127q0-.139-.591-.625l-.371.44Zm3.9-.961V9.233h3.046v2.258Zm3.046.776h.579V9.406l.208-.185c.058-.046.093-.093.093-.127,0-.081-.2-.29-.579-.591l-.394.475H36.63A12.566,12.566,0,0,0,37.65,7.137c.29-.058.428-.127.428-.208q0-.191-.973-.521a16.4,16.4,0,0,1-.764,2.513l-.023.058H34.581c-.266-.139-.486-.255-.683-.336v3.706h.591v-.6h.5a5.687,5.687,0,0,1-.243,1.7,3.755,3.755,0,0,1-1.772,2.142l.162.232a3.958,3.958,0,0,0,1.934-1.656,5.61,5.61,0,0,0,.556-2.42h.753v3.115a.764.764,0,0,0,.174.591A2.12,2.12,0,0,0,37.6,15.6a3.778,3.778,0,0,0,1.042-.093c.208-.069.313-.255.324-.556a.3.3,0,0,1-.313-.208,5.381,5.381,0,0,1-.093-1.4l-.29-.093a4.979,4.979,0,0,1-.185,1.529c-.069.185-.29.278-.672.278a1.153,1.153,0,0,1-.359-.035c-.058-.035-.093-.116-.093-.266V11.746h.567Zm3.555-.984h4.1V10.8h-4.1Z" transform="translate(54.93 14.73)"/></g></svg>