<svg xmlns="http://www.w3.org/2000/svg" xmlns:xlink="http://www.w3.org/1999/xlink" width="172.781" height="39.743" viewBox="0 0 172.781 39.743"><defs><style>.a{fill:#fff;}.b{filter:url(#a);}</style><filter id="a" x="0" y="0" width="172.781" height="39.743" filterUnits="userSpaceOnUse"><feOffset dy="3" input="SourceAlpha"/><feGaussianBlur stdDeviation="3" result="b"/><feFlood flood-color="#fff" flood-opacity="0.553"/><feComposite operator="in" in2="b"/><feComposite in="SourceGraphic"/></filter></defs><g class="b" transform="matrix(1, 0, 0, 1, 0, 0)"><path class="a" d="M7.735-15.656a56.58,56.58,0,0,1-4.12,8.213A1.764,1.764,0,0,1,2.1-6.486a6.907,6.907,0,0,1-.93-.08v.638a3.393,3.393,0,0,1,1.409.478,2.386,2.386,0,0,1,.744,2.02A10.024,10.024,0,0,1,3.19-1.7c-.053.239-.106.585-.159.957-.027.266-.053.425-.053.452A.74.74,0,0,0,3.8.558c.691,0,1.09-.532,1.09-1.568a16.642,16.642,0,0,0-.266-2.658,8.839,8.839,0,0,1-.213-1.223,4.451,4.451,0,0,1,.372-1.675l3.562-8.719ZM1.542-17.464a5.927,5.927,0,0,1,2.153,3c.106.505.346.771.718.771.611,0,.93-.292.93-.957,0-1.143-1.17-2.206-3.482-3.243Zm18.341,3.216a24.869,24.869,0,0,1-2.073,4.811l.532.346a28.792,28.792,0,0,0,3.057-4.6l.665-.292a.43.43,0,0,0,.266-.319c0-.186-.558-.824-1.648-1.834l-.93,1.276H11.456a26.168,26.168,0,0,0,1.09-3.11q1.116-.319,1.116-.638c0-.346-.8-.638-2.339-.9A25.506,25.506,0,0,1,7.469-9.675l.452.372a17.958,17.958,0,0,0,3.269-4.944h2.472v.744A19.226,19.226,0,0,1,11.8-4.678,14.364,14.364,0,0,1,6.167,1.17l.346.505a13.854,13.854,0,0,0,6.406-5.662,16.468,16.468,0,0,0,1.914-6.007,21.428,21.428,0,0,0,1.356,4.7A17.035,17.035,0,0,0,21.424,1.3,4.552,4.552,0,0,1,22.647-.106a16.725,16.725,0,0,1-5.9-6.273,15.732,15.732,0,0,1-1.7-7.363v-.505Zm26.049-2.738V-.824H30.914V-16.985ZM31.153-17.57c-.478-.239-1.063-.478-1.7-.744V1.595h1.462V-.239H45.932V1.595h1.462V-16.454l.585-.425q.239-.159.239-.319c0-.186-.505-.718-1.568-1.542l-.93,1.17Zm9.7,5.4v5.662H35.7v-5.662Zm-4.944-.611a14.42,14.42,0,0,0-1.568-.691v9.25H35.7V-5.9h5.157v1.489h1.382v-7.336l.532-.372a.372.372,0,0,0,.159-.239c0-.239-.452-.718-1.409-1.435l-.824,1.01Zm23.179.027a30.432,30.432,0,0,0,2.126-5.4c.744-.133,1.116-.292,1.116-.532,0-.319-.771-.691-2.313-1.037A42.206,42.206,0,0,1,54.385-6.406l.505.346a43.741,43.741,0,0,0,3.137-4.625V1.728h1.356V-11.51c.638-.213.957-.425.957-.611C60.339-12.387,59.913-12.573,59.089-12.759Zm16.719-1.7.266-.478A15.769,15.769,0,0,0,74.4-16.773l-1.3,1.728H64.964c.425-1.249.744-2.313,1.01-3.243.665-.133.983-.292.983-.505,0-.346-.771-.691-2.259-1.037A32.45,32.45,0,0,1,60.259-8.16l.505.372A23.3,23.3,0,0,0,64.7-14.46h1.94V1.728h1.409V-4.652h7.017l.266-.478A16.048,16.048,0,0,0,73.6-6.964l-1.3,1.7H68.047V-9.7h6.7l.266-.505-.213-.239a8.046,8.046,0,0,0-1.409-1.435l-1.276,1.568H68.047V-14.46Zm9.569,1.3a34.63,34.63,0,0,0,1.994-5.024c.691-.106,1.063-.266,1.063-.478,0-.346-.771-.718-2.286-1.063A41.45,41.45,0,0,1,80.46-6.433l.478.372a39.507,39.507,0,0,0,3.137-4.572V1.728h1.356V-11.51c.638-.213.93-.425.93-.611,0-.239-.4-.425-1.2-.611Zm9.3.718A27.678,27.678,0,0,0,101.672-2.5a4.643,4.643,0,0,1,1.2-1.276A30.259,30.259,0,0,1,94.894-13.4h7.15l.292-.478a13.939,13.939,0,0,0-1.675-1.861l-1.249,1.754H94.681V-18.5c.665-.213.983-.425.983-.638,0-.372-.771-.585-2.392-.611v5.768H86.787l.239.585h5.582A31.534,31.534,0,0,1,86.042-2.313l.478.452a26.436,26.436,0,0,0,6.752-9.569v7.549H89.285l.239.611h3.748v5h1.409v-5h3.828l.292-.478a13.3,13.3,0,0,0-1.462-1.621L96.3-3.881H94.681Zm16.188,7.124a7.626,7.626,0,0,1,.744,3.083c0,.558.186.851.505.851.452,0,.665-.266.665-.8a5.887,5.887,0,0,0-1.409-3.349Zm-2.552.266a7.929,7.929,0,0,1-1.09,4.28,1.744,1.744,0,0,0-.292.665c0,.452.266.665.771.665.877,0,1.356-1.223,1.356-3.642A16.035,16.035,0,0,0,108.9-5Zm1.2.08a9.154,9.154,0,0,1,.266,2.153,8.989,8.989,0,0,1-.08,1.462.394.394,0,0,0-.027.186c0,.319.133.505.505.505.505,0,.771-.425.771-1.276a7.417,7.417,0,0,0-.9-3.19Zm2.764-.8a5.458,5.458,0,0,1,1.01,2.552c.053.478.213.744.532.744.372,0,.558-.239.558-.691a4.138,4.138,0,0,0-1.728-2.871Zm10.739-13.078c.638-.053.983-.159.983-.372,0-.266-.665-.532-2.02-.8a17.356,17.356,0,0,1-5.5,8.081l.4.478a14.684,14.684,0,0,0,5.821-6.725,21.532,21.532,0,0,0,5.741,6.14,4.068,4.068,0,0,1,1.116-1.276A21.8,21.8,0,0,1,123.016-18.846ZM109.806-17.57h2.206v2.685h-2.206Zm2.206,6.167h-2.206v-2.871h2.206Zm-2.206,3.642v-3.057h2.206v3.057Zm3.509-3.057h2.924l.292-.4a13.7,13.7,0,0,0-1.249-1.489l-1.01,1.3h-.957v-2.871h2.924l.239-.425a11.467,11.467,0,0,0-1.223-1.462l-.983,1.276h-.957V-17.57h3.668l.266-.478a17.77,17.77,0,0,0-1.409-1.462l-1.01,1.329h-4.785c-.319-.159-.824-.4-1.542-.744V-6.14h1.3V-7.177h5.236a29.5,29.5,0,0,1-.532,6.14,1.183,1.183,0,0,1-1.3.957c-.8,0-1.648-.053-2.632-.133V.4l.585.106A6.571,6.571,0,0,1,112.6.824a.868.868,0,0,1,.638.851,2.268,2.268,0,0,0,2.206-1.09c.585-1.063.877-3.509.9-7.363l.478-.292a.412.412,0,0,0,.186-.292c0-.239-.452-.691-1.356-1.382l-.824.983h-1.515Zm12.732,1.249V-6.22H123.07c0-.213.027-.452.027-.718V-9.569Zm-4.306,2.632v.718H119V-9.569h2.738Zm-2.525-3.216a10.462,10.462,0,0,0-1.542-.8V-4.2H119V-5.609h2.685c-.452,3.163-2.366,5.449-5.715,6.725l.319.558c3.881-1.116,6.114-3.376,6.645-6.8a12.218,12.218,0,0,0,5.369,6.565,4.18,4.18,0,0,1,1.17-1.3A13.519,13.519,0,0,1,123.495-5.5l-.08-.106h2.632v1.223H127.4V-9.224l.505-.372a.405.405,0,0,0,.159-.266q0-.239-1.356-1.356l-.851,1.063H123.1v-2.738h2.286l.239-.452c-.292-.239-.744-.638-1.356-1.116l-.851.957h-3.8l.239.611h1.887v2.738Zm24.4-1.887.266-.478a13.2,13.2,0,0,0-.8-1.116c-.186-.239-.319-.4-.4-.532l-.983,1.542h-.744v-5.555c.638-.266.93-.478.93-.665,0-.372-.744-.558-2.259-.585v6.8h-2.5V-17.57c.638-.266.9-.478.9-.718,0-.292-.744-.478-2.286-.558v7.735c0,5.449-.638,9.6-1.914,12.466l.532.346A17.566,17.566,0,0,0,137-7.2h2.871V1.382H141.2V-6.8l.585-.4a.337.337,0,0,0,.186-.292c0-.239-.452-.718-1.382-1.462l-.93,1.17h-2.6L137.078-8a29.827,29.827,0,0,0,.053-3.11v-.93Zm8.825.93a21.484,21.484,0,0,1-2.206,6.22,18.21,18.21,0,0,1-2.738-6.22Zm-5.635,0a21.034,21.034,0,0,0,2.738,7.336,14.283,14.283,0,0,1-5.29,4.971l.346.532a13.17,13.17,0,0,0,5.768-4.359,17.883,17.883,0,0,0,4.386,4.04,3.918,3.918,0,0,1,1.2-1.382A16.715,16.715,0,0,1,151.086-3.8a22.135,22.135,0,0,0,2.738-6.778l.691-.346c.133-.08.213-.159.213-.266,0-.239-.505-.771-1.515-1.621l-.877,1.116h-6.379v-5.1h9.33l.239-.478a16.454,16.454,0,0,0-1.568-1.728l-1.249,1.621h-6.379l-.4-.186c-.665-.319-1.116-.532-1.356-.611v7.895q0,7.536-2.711,11.642l.478.372c2.419-2.658,3.615-6.645,3.615-11.961v-.877Z" transform="translate(7.83 26.02)"/></g></svg>