<svg xmlns="http://www.w3.org/2000/svg" width="220.56" height="21.36" viewBox="0 0 220.56 21.36"><defs><style>.a{fill:#401616;}</style></defs><path class="a" d="M1.656-19.464V1.224H22.344V-19.464ZM52.44-11.88v-2.568H47.592L47.5-17.9c0-.12.048-.168.312-.36.168-.12.192-.192.192-.264,0-.288-.408-.312-.552-.312l-2.784-.144.1,4.536H35.736v2.568h7.488a20.135,20.135,0,0,1-8.28,7.416l2.088,2.088a27.181,27.181,0,0,0,7.8-7.08l.1,6.5c0,.48-.264.72-1.248.72A12.074,12.074,0,0,1,41.856-2.4L43.032.552C46.3.528,47.856.264,47.808-2.76l-.168-9.12ZM76.464-7.608v-3.048H59.4v3.048ZM100.9-7.56a29.379,29.379,0,0,0-3.744-2.88,21.431,21.431,0,0,0-4.08-2.184l-1.128,1.776V-17.16c0-.12.624-.5.624-.648,0-.288-.5-.36-.576-.384l-2.88-.5V.312h2.832V-10.056A24.432,24.432,0,0,1,99-5.256Zm23.952-1.032v-2.52h-8.232v-4.344h6.648v-2.52H109.44v2.52h4.416v4.344h-6.7v2.52h6.7v4.848c0,3.432,2.712,3.552,4.992,3.552,1.368,0,4.392-.048,5.016-.072V-3.12a31.541,31.541,0,0,1-4.128.264c-2.232,0-3.12-.336-3.12-1.608V-8.592Zm23.616.984v-3.048H131.4v3.048Zm27.024-8.448a10.027,10.027,0,0,0-2.232-2.16l-1.248,1.056A10.008,10.008,0,0,1,174.24-15Zm-2.736,1.56a9.939,9.939,0,0,0-2.16-2.112l-1.32,1.056a9.938,9.938,0,0,1,2.16,2.112Zm-.12,6.888A28.839,28.839,0,0,0,164.9-12.6l-1.1,1.68v-6.216c0-.12.6-.5.6-.648,0-.288-.528-.384-.576-.384l-2.976-.528V.312H163.8V-9.936a23.875,23.875,0,0,1,6.936,4.728Zm26.184,3.12a15.29,15.29,0,0,1-4.968-3.24h2.808v-6.48H191.9v-1.176h6.456v-2.16H191.9v-.768c0-.1.048-.12.312-.384.192-.168.24-.24.24-.336,0-.168-.1-.288-.72-.336l-2.3-.216v2.04h-5.76v2.16h5.76v1.176h-4.464v6.48h2.856a13.757,13.757,0,0,1-4.3,3.6l2.16,1.848a18.915,18.915,0,0,0,3.744-3.528v4.032H191.9V-6.12a17.89,17.89,0,0,0,4.848,3.72Zm-4.68-5.376H191.9v-2.208h2.232Zm-4.7,0h-1.92v-2.208h1.92ZM183.648-15.7a18.552,18.552,0,0,0-3.576-3.12l-1.9,1.968a20.212,20.212,0,0,1,3.336,3.1Zm15.72,13.632a51.28,51.28,0,0,1-6.768.72c-2.352.144-4.008.144-4.344.144-4.344,0-4.968-1.08-4.968-2.688v-6.888h-5.4v2.64h2.76v4.8c-1.08.648-2.52,1.416-3.48,1.872l1.008,2.712c.024.048.192.528.5.528.12,0,.144-.048.384-.576A.845.845,0,0,1,179.4.792c.936-.768,2.424-1.92,2.424-1.92.864,1.3,1.848,2.256,6.12,2.256H198.12ZM222.216-15.84v-2.136H213.7v-.456c0-.072.12-.192.264-.264s.24-.12.24-.312c0-.24-.408-.288-.456-.288l-3.192-.216v1.536H203.16c.144,1.944.192,4.1.192,6.072A32.753,32.753,0,0,1,202.32-2.88a11.533,11.533,0,0,1-1.3,3.1l2.64.7a16.335,16.335,0,0,0,1.608-4.872,45.185,45.185,0,0,0,.72-8.352h2.52v3.48h8.856v-3.48h3.96v-2.136h-3.96V-15.84Zm-7.464,1.392H211.08V-15.84h3.672Zm0,3.6H211.08v-1.464h3.672Zm-6.24-3.6h-2.52V-15.84h2.52ZM221.52-1.128a21.613,21.613,0,0,1-6.336-1.464,17.109,17.109,0,0,0,4.224-4.3l-1.056-1.08h-12V-5.76H210.1l-2.184.744a18.378,18.378,0,0,0,2.544,2.472,24.166,24.166,0,0,1-5.424,1.536L206.448,1.1a25.594,25.594,0,0,0,6.24-2.16A20.032,20.032,0,0,0,220.152,1.3ZM215.088-5.76a11.466,11.466,0,0,1-2.232,1.968,7.159,7.159,0,0,1-2.184-1.968Z" transform="translate(-1.656 19.584)"/></svg>