<svg xmlns="http://www.w3.org/2000/svg" width="219.864" height="21.816" viewBox="0 0 219.864 21.816"><defs><style>.a{fill:#361413;}</style></defs><path class="a" d="M1.656-19.464V1.224H22.344V-19.464Zm53.712,1.008A11.615,11.615,0,0,0,53.3-20.592l-1.152,1.08A10.124,10.124,0,0,1,54.216-17.4Zm-2.424,1.8a11.023,11.023,0,0,0-1.992-1.968L49.8-17.544a8.425,8.425,0,0,1,1.9,2.04Zm.288,11.688A22.734,22.734,0,0,0,49.176-9.84L47.328-8.232A17.756,17.756,0,0,1,51.12-3.264ZM52.2-11.688v-2.52H45.312v-3.1c0-.12.12-.192.192-.264.24-.144.336-.216.336-.336s-.1-.264-.648-.336l-2.544-.312v4.344H35.64v2.52h7.008v8.472c0,.6-.168.792-.96.792a11.6,11.6,0,0,1-1.9-.192L40.7.168C44.592.1,45.312-.144,45.312-2.5v-9.192ZM41.184-7.944c0-.192-.384-.432-.456-.48l-1.992-1.3a17.187,17.187,0,0,1-4.824,5.4L36.36-2.784a21.591,21.591,0,0,0,4.128-4.752c.048-.1.1-.12.408-.216C41.016-7.776,41.184-7.824,41.184-7.944ZM75.5-16.776c0-.192-.312-.5-.408-.576L73.008-19.08a37.26,37.26,0,0,1-13.92,10.2l2.088,2.136a43.032,43.032,0,0,0,6.048-3.408V.408h3V-12.384a30.73,30.73,0,0,0,3.96-3.744c.336-.36.384-.408.744-.432C75.408-16.584,75.5-16.608,75.5-16.776Zm25.608,13.9a47.969,47.969,0,0,0-6.36-5.928,28.99,28.99,0,0,0,2.784-5.376,3.325,3.325,0,0,1,1.3-1.44l-1.848-2.04a2.275,2.275,0,0,1-1.248.528H85.392v2.784h9.144A19.184,19.184,0,0,1,90.456-7.8,21.284,21.284,0,0,1,82.8-2.616L84.912-.432A23.167,23.167,0,0,0,93.12-6.6a37.853,37.853,0,0,1,5.856,6Zm26.256-15.576a11.615,11.615,0,0,0-2.064-2.136l-1.152,1.08a10.124,10.124,0,0,1,2.064,2.112Zm-2.424,1.8a11.024,11.024,0,0,0-1.992-1.968l-1.152,1.08a8.425,8.425,0,0,1,1.9,2.04Zm.288,11.688a22.734,22.734,0,0,0-4.056-4.872l-1.848,1.608a17.756,17.756,0,0,1,3.792,4.968Zm-1.032-6.72v-2.52h-6.888v-3.1c0-.12.12-.192.192-.264.24-.144.336-.216.336-.336s-.1-.264-.648-.336l-2.544-.312v4.344H107.64v2.52h7.008v8.472c0,.6-.168.792-.96.792a11.6,11.6,0,0,1-1.9-.192L112.7.168c3.888-.072,4.608-.312,4.608-2.664v-9.192ZM113.184-7.944c0-.192-.384-.432-.456-.48l-1.992-1.3a17.187,17.187,0,0,1-4.824,5.4l2.448,1.536a21.591,21.591,0,0,0,4.128-4.752c.048-.1.1-.12.408-.216C113.016-7.776,113.184-7.824,113.184-7.944ZM147-18.288c0-.288-.48-.312-.6-.312l-3.072-.168c.12,1.92.168,5.256.168,5.832,0,7.248-2.064,9.528-6.984,11.472L138.6.864c2.5-1.272,5.616-3.048,7.032-7.3.768-2.328.816-4.224.816-8.9,0-.24-.048-1.32-.024-1.536,0-.672,0-.744.312-1.056C146.976-18.12,147-18.216,147-18.288Zm-9.984.192c0-.216-.432-.24-.624-.264l-2.856-.24V-7.272h2.856V-17.4c0-.072.024-.1.384-.36C136.872-17.856,137.016-17.976,137.016-18.1ZM171.888-1.152V-3.288h-4.56l1.488-9.192h-9.648v2.208h6.84L164.88-3.288H156.1v2.136Zm24.576-6.456v-3.048H179.4v3.048ZM221.52-2.04a31.751,31.751,0,0,0-5.16-8.448l-2.544,1.272a21.639,21.639,0,0,1,2.76,3.72c-2.64.456-5.16.792-8.568,1.176,1.056-2.592,3.072-7.8,4.344-11.52.216-.648.264-.72.5-.84.408-.24.456-.264.456-.384,0-.24-.456-.408-.672-.456l-2.832-.7A125.776,125.776,0,0,1,205.08-4.032c-1.392.12-2.088.168-2.664.192l.576,2.784c.1.432.168.648.36.648a.249.249,0,0,0,.192-.1c.024-.024.312-.312.36-.336.168-.12,11.592-2.016,13.9-2.4a17.788,17.788,0,0,1,1.008,2.688Z" transform="translate(-1.656 20.592)"/></svg>