<svg xmlns="http://www.w3.org/2000/svg" width="244.656" height="22.296" viewBox="0 0 244.656 22.296"><defs><style>.a{fill:#361413;}</style></defs><path class="a" d="M1.656-19.464V1.224H22.344V-19.464ZM54.7-1.776a18.048,18.048,0,0,1-7.944-7.056h7.56v-2.592H45.336v-2.544H52.92v-2.64H45.336v-1.8c0-.12.072-.168.288-.36.072-.072.216-.192.216-.312,0-.288-.552-.36-.72-.36l-2.544-.1v2.928H35.064v2.64h7.512v2.544H33.6v2.592h7.56a18.736,18.736,0,0,1-7.9,7.1L35.784.384a23.42,23.42,0,0,0,6.792-6.816V1.3h2.76V-6.5a21.457,21.457,0,0,0,3.24,4.056A21.825,21.825,0,0,0,52.224.48Zm23.4-5.4v-4.056H65.688v4.08h2.544v-1.9h7.3v1.872Zm-13.3-3.5v-2.064H58.848v2.064Zm0,2.88V-9.84H58.776V-7.8Zm13.272-7.464V-17.52h-4.7v-.864c0-.12.024-.12.432-.456a.446.446,0,0,0,.168-.312c0-.24-.48-.24-.816-.264l-2.76-.12v2.016h-4.7v1.656H57.864v2.352h8.064v-1.752h4.464v1.056H67.224V-12h9.768v-2.208H73.368v-1.056ZM78.72-2.376,76.152-3.72a9.757,9.757,0,0,1-.264,1.608c-.12.432-.288.648-.672.648-.48,0-.6-.288-.6-1.1V-7.3c0-.1.048-.192.24-.336a.57.57,0,0,0,.216-.408c0-.192-.288-.24-.792-.264l-2.352-.1v7.3c0,.7.048,1.248.432,1.56a2.13,2.13,0,0,0,1.536.552h2.448C78.432,1.008,78.6-1.152,78.72-2.376Zm-6.936-5.16c0-.24-.144-.24-.384-.288l-2.76-.5a9.289,9.289,0,0,1-1.224,5.112A6.625,6.625,0,0,1,65.52-1.2V-6.72H58.2V1.128h2.568v-1.2h4.7l1.584,1.3a12.33,12.33,0,0,0,3.96-7.1c.024-.168.144-1.1.168-1.176.024-.1.1-.144.264-.192C71.64-7.32,71.784-7.368,71.784-7.536ZM62.928-2.424h-2.16V-4.512h2.16Zm1.728-14.208v-2.3h-5.52v2.3ZM101.112-2.88a47.969,47.969,0,0,0-6.36-5.928,28.99,28.99,0,0,0,2.784-5.376,3.325,3.325,0,0,1,1.3-1.44l-1.848-2.04a2.275,2.275,0,0,1-1.248.528H85.392v2.784h9.144A19.184,19.184,0,0,1,90.456-7.8,21.284,21.284,0,0,1,82.8-2.616L84.912-.432A23.167,23.167,0,0,0,93.12-6.6a37.853,37.853,0,0,1,5.856,6ZM124.9-7.9l-.336-2.64-6.984.912-.552-3.072,5.16-.672-.36-2.5-5.232.672-.576-3.168c-.024-.12.384-.552.384-.648,0-.192-.192-.264-.72-.24l-2.52.144.744,4.3-5.736.72.336,2.5,5.808-.768.528,3.1-7.7,1.008.36,2.616,7.8-1.008,1.3,7.656,2.784-.552-1.32-7.464Zm16.128-1.968a14.411,14.411,0,0,0-1.632-3.888l-2.136.816a15.3,15.3,0,0,1,1.7,3.888Zm6.312-2.568c0-.168-.168-.336-.48-.432l-2.352-.72c-.912,6.792-4.176,10.08-8.832,12.384l1.92,1.7a17.271,17.271,0,0,0,8.952-11.52c.24-.936.264-1.032.48-1.152C147.288-12.264,147.336-12.288,147.336-12.432Zm-10.56,3.72a15.39,15.39,0,0,0-1.848-3.864l-2.208.84a14.966,14.966,0,0,1,1.824,3.864ZM175.44-18.72A2.259,2.259,0,0,0,173.184-21a2.254,2.254,0,0,0-2.232,2.28,2.275,2.275,0,0,0,2.232,2.3A2.264,2.264,0,0,0,175.44-18.72ZM172.56-15l-2.376-2.16a1.368,1.368,0,0,1-.792.384H155.808v2.784H168.6a20.271,20.271,0,0,1-3,5.88,19.316,19.316,0,0,1-7.968,6.288L160.248.288a21.422,21.422,0,0,0,7.1-5.856,28.71,28.71,0,0,0,4.224-8.112A3.183,3.183,0,0,1,172.56-15Zm1.944-3.72a1.327,1.327,0,0,1-1.32,1.368,1.358,1.358,0,0,1-1.32-1.368,1.337,1.337,0,0,1,1.32-1.344A1.322,1.322,0,0,1,174.5-18.72ZM197.76-9.168c0-5.352-3.936-8.736-8.928-8.736A10.351,10.351,0,0,0,178.248-7.728c0,4.3,3.936,6.456,4.8,6.456,1.248,0,2.352-2.016,3.072-3.5a34.075,34.075,0,0,0,2.976-10.68,6.14,6.14,0,0,1,4.08,1.608,5.658,5.658,0,0,1,1.728,4.2,7.509,7.509,0,0,1-1.728,4.776,8.083,8.083,0,0,1-4.32,2.568L190.632.168a11.586,11.586,0,0,0,5.592-4.224A8.967,8.967,0,0,0,197.76-9.168Zm-11.52-5.856c-.48,3.744-2.544,10.008-3.792,10.008-.432,0-1.536-1.008-1.536-2.952a7.86,7.86,0,0,1,2.4-5.328A7.085,7.085,0,0,1,186.24-15.024Zm35.9.5v-2.352H211.728c.144-.576.288-1.1.36-1.464.168-.072.792-.24.792-.48,0-.192-.168-.288-.672-.384l-2.688-.48a18.125,18.125,0,0,1-.576,2.808h-7.1v2.352h6.24a17.086,17.086,0,0,1-6.816,6.96l1.944,1.8a22.555,22.555,0,0,0,3.576-2.832V1.1h2.784v-4.56h6.624V-1.8c0,.552-.12.672-.624.672a9.552,9.552,0,0,1-1.56-.192l.936,2.592C218.52,1.224,219,.792,219-1.248V-12.384h-9.12a19.711,19.711,0,0,0,1.056-2.136Zm-5.952,5.688h-6.624v-1.3h6.624Zm0,3.36h-6.624V-6.816h6.624Zm30.12-4.608v-2.3H242.88v-3h2.376v-2.232H231.528c.432-.552.576-.624.744-.7.552-.216.552-.216.552-.336,0-.216-.36-.312-.408-.336l-2.712-.768a15.436,15.436,0,0,1-4.3,5.064l2.376,1.176a11.146,11.146,0,0,0,1.488-1.512v2.64h-3.48v2.3h3.48v3.024H226.68v2.232H245.5V-7.056H242.88V-10.08Zm-9.5-2.3h-1.416v-3h1.416Zm0,5.328h-1.416V-10.08h1.416Zm3.7-5.328h-1.488v-3H240.5Zm0,5.328h-1.488V-10.08H240.5Zm-7.368-5.328H231.72v-3h1.416Zm0,5.328H231.72V-10.08h1.416ZM246.1-.576a16.808,16.808,0,0,0-3.216-3.48L241.1-2.544a21.978,21.978,0,0,1,3,3.648Zm-5.832.768A9.728,9.728,0,0,0,238.8-3.6l-2.04.648A12.869,12.869,0,0,1,237.936.84Zm-4.9.48a10.213,10.213,0,0,0-.96-4.272l-2.088.528a12.032,12.032,0,0,1,.672,4.248ZM231.36-2.4c0-.1-.048-.192-.264-.36l-1.944-1.464a13.142,13.142,0,0,1-3.48,3.768l1.9,1.68a20,20,0,0,0,3.1-3.264c.1-.12.12-.12.456-.144C231.192-2.208,231.36-2.232,231.36-2.4Z" transform="translate(-1.656 21)"/></svg>