<svg xmlns="http://www.w3.org/2000/svg" width="204.744" height="21.816" viewBox="0 0 204.744 21.816"><defs><style>.a{fill:#361413;}</style></defs><path class="a" d="M1.656-19.464V1.224H22.344V-19.464ZM47.688-5.28a4.056,4.056,0,0,0-1.056-2.832,4.462,4.462,0,0,0-2.88-1.3,3.3,3.3,0,0,0,2.3-1.056,3.863,3.863,0,0,0,1.008-2.688c0-2.736-2.088-4.368-5.64-4.368h-7.68V0h8.184A5.444,5.444,0,0,0,47.688-5.28Zm-3.864-7.464c0,1.512-1.2,2.232-2.616,2.232H36.984v-4.272h4.752A1.953,1.953,0,0,1,43.824-12.744ZM44.4-5.376a2.6,2.6,0,0,1-2.784,2.64H36.984V-7.848H42A2.337,2.337,0,0,1,44.4-5.376ZM66.456,0V-9.408h-7.68v2.736h4.632A4.486,4.486,0,0,1,62.04-3.624a5.2,5.2,0,0,1-3.624,1.416c-2.3,0-5.424-1.392-5.424-6.624,0-3.456,1.752-6.408,5.376-6.408,1.92,0,3.984.96,4.368,3.168h3.456a5.343,5.343,0,0,0-1.632-3.792A8.707,8.707,0,0,0,58.392-18.1c-7.368,0-8.88,6.288-8.88,9.576,0,4.92,3,9.1,8.28,9.1C60.48.576,62.9-.48,63.816-3.048l.072,1.2L64.176,0ZM87.024,0V-17.52H81.96l-3.12,12.1L78.432-2.64l-.408-2.784-3.1-12.1H69.84V0h2.976V-15.384L76.68,0h3.5l3.864-15.384V0Zm25.224-18.456a11.615,11.615,0,0,0-2.064-2.136l-1.152,1.08A10.124,10.124,0,0,1,111.1-17.4Zm-2.424,1.8a11.024,11.024,0,0,0-1.992-1.968l-1.152,1.08a8.425,8.425,0,0,1,1.9,2.04Zm.288,11.688a22.734,22.734,0,0,0-4.056-4.872l-1.848,1.608A17.756,17.756,0,0,1,108-3.264Zm-1.032-6.72v-2.52h-6.888v-3.1c0-.12.12-.192.192-.264.24-.144.336-.216.336-.336s-.1-.264-.648-.336l-2.544-.312v4.344H92.52v2.52h7.008v8.472c0,.6-.168.792-.96.792a11.6,11.6,0,0,1-1.9-.192L97.584.168c3.888-.072,4.608-.312,4.608-2.664v-9.192ZM98.064-7.944c0-.192-.384-.432-.456-.48l-1.992-1.3a17.187,17.187,0,0,1-4.824,5.4L93.24-2.784a21.591,21.591,0,0,0,4.128-4.752c.048-.1.1-.12.408-.216C97.9-7.776,98.064-7.824,98.064-7.944ZM131.88-18.288c0-.288-.48-.312-.6-.312l-3.072-.168c.12,1.92.168,5.256.168,5.832,0,7.248-2.064,9.528-6.984,11.472L123.48.864c2.5-1.272,5.616-3.048,7.032-7.3.768-2.328.816-4.224.816-8.9,0-.24-.048-1.32-.024-1.536,0-.672,0-.744.312-1.056C131.856-18.12,131.88-18.216,131.88-18.288ZM121.9-18.1c0-.216-.432-.24-.624-.264l-2.856-.24V-7.272h2.856V-17.4c0-.072.024-.1.384-.36C121.752-17.856,121.9-17.976,121.9-18.1ZM156.768-1.152V-3.288h-4.56L153.7-12.48h-9.648v2.208h6.84L149.76-3.288h-8.784v2.136Zm24.576-6.456v-3.048H164.28v3.048ZM206.4-2.04a31.751,31.751,0,0,0-5.16-8.448L198.7-9.216a21.639,21.639,0,0,1,2.76,3.72c-2.64.456-5.16.792-8.568,1.176,1.056-2.592,3.072-7.8,4.344-11.52.216-.648.264-.72.5-.84.408-.24.456-.264.456-.384,0-.24-.456-.408-.672-.456l-2.832-.7A125.776,125.776,0,0,1,189.96-4.032c-1.392.12-2.088.168-2.664.192l.576,2.784c.1.432.168.648.36.648a.249.249,0,0,0,.192-.1c.024-.024.312-.312.36-.336.168-.12,11.592-2.016,13.9-2.4a17.788,17.788,0,0,1,1.008,2.688Z" transform="translate(-1.656 20.592)"/></svg>