<svg xmlns="http://www.w3.org/2000/svg" width="124.56" height="21.36" viewBox="0 0 124.56 21.36"><defs><style>.a{fill:#361413;}</style></defs><path class="a" d="M1.656-19.464V1.224H22.344V-19.464ZM54.072-1.32A18.074,18.074,0,0,1,46.08-4.9a25.4,25.4,0,0,0,4.608-9.072h3.36V-16.44H45.5v-1.9c0-.192.24-.336.288-.384.12-.072.24-.168.24-.288,0-.24-.48-.312-.6-.312l-2.9-.216v3.1H33.912v2.472h3.024a23.4,23.4,0,0,0,1.608,3.84A22.34,22.34,0,0,0,42.12-4.944,14.4,14.4,0,0,1,37.992-2.4,22.806,22.806,0,0,1,33-.816l2.136,2.3C39.72-.048,41.688-1.1,44.112-3A20.3,20.3,0,0,0,52.32,1.32ZM47.448-13.968a18.718,18.718,0,0,1-3.456,7.152,20.633,20.633,0,0,1-4.128-7.152ZM77.76-12.12v-5.136h-8.3v-.936c0-.144.144-.288.312-.408s.288-.192.288-.36c0-.288-.48-.336-.7-.36l-2.9-.24v2.3h-8.4v5.208h2.736v-3.12H75.1v3.048Zm.432,6.792V-7.776H69.336c1.776-1.248,3.744-2.712,5.28-3.96L73.344-13.1H62.088v2.352H69.48A11.314,11.314,0,0,1,67.824-9.36L66.48-9.672v1.9H57.792v2.448H66.48V-2.04c0,.576-.264.792-.744.792-.192,0-1.728-.12-2.16-.168l1.3,2.736h1.944c1.44,0,2.52-.48,2.52-2.04V-5.328Zm24.624.84a15.291,15.291,0,0,1-4.968-3.24h2.808v-6.48H95.9v-1.176h6.456v-2.16H95.9v-.768c0-.1.048-.12.312-.384.192-.168.24-.24.24-.336,0-.168-.1-.288-.72-.336l-2.3-.216v2.04h-5.76v2.16h5.76v1.176H88.968v6.48h2.856a13.757,13.757,0,0,1-4.3,3.6l2.16,1.848a18.915,18.915,0,0,0,3.744-3.528v4.032H95.9V-6.12a17.89,17.89,0,0,0,4.848,3.72Zm-4.68-5.376H95.9v-2.208h2.232Zm-4.7,0h-1.92v-2.208h1.92ZM87.648-15.7a18.551,18.551,0,0,0-3.576-3.12l-1.9,1.968a20.212,20.212,0,0,1,3.336,3.1Zm15.72,13.632a51.28,51.28,0,0,1-6.768.72c-2.352.144-4.008.144-4.344.144-4.344,0-4.968-1.08-4.968-2.688v-6.888h-5.4v2.64h2.76v4.8c-1.08.648-2.52,1.416-3.48,1.872l1.008,2.712c.024.048.192.528.5.528.12,0,.144-.048.384-.576A.845.845,0,0,1,83.4.792c.936-.768,2.424-1.92,2.424-1.92.864,1.3,1.848,2.256,6.12,2.256H102.12ZM126.216-15.84v-2.136H117.7v-.456c0-.072.12-.192.264-.264s.24-.12.24-.312c0-.24-.408-.288-.456-.288l-3.192-.216v1.536H107.16c.144,1.944.192,4.1.192,6.072A32.753,32.753,0,0,1,106.32-2.88a11.533,11.533,0,0,1-1.3,3.1l2.64.7a16.335,16.335,0,0,0,1.608-4.872,45.184,45.184,0,0,0,.72-8.352h2.52v3.48h8.856v-3.48h3.96v-2.136h-3.96V-15.84Zm-7.464,1.392H115.08V-15.84h3.672Zm0,3.6H115.08v-1.464h3.672Zm-6.24-3.6h-2.52V-15.84h2.52ZM125.52-1.128a21.613,21.613,0,0,1-6.336-1.464,17.109,17.109,0,0,0,4.224-4.3l-1.056-1.08h-12V-5.76H114.1l-2.184.744a18.378,18.378,0,0,0,2.544,2.472,24.166,24.166,0,0,1-5.424,1.536L110.448,1.1a25.594,25.594,0,0,0,6.24-2.16A20.032,20.032,0,0,0,124.152,1.3ZM119.088-5.76a11.466,11.466,0,0,1-2.232,1.968,7.159,7.159,0,0,1-2.184-1.968Z" transform="translate(-1.656 19.584)"/></svg>