<svg xmlns="http://www.w3.org/2000/svg" width="152.712" height="53" viewBox="0 0 152.712 53"><defs><style>.a{fill:none;}.b{fill:#361413;}.c,.d{stroke:none;}.d{fill:#803f3d;}</style></defs><g transform="translate(-442 -433)"><g class="a" transform="translate(442 433)"><path class="c" d="M26.5,0A26.5,26.5,0,1,1,0,26.5,26.5,26.5,0,0,1,26.5,0Z"/><path class="d" d="M 26.5 8 C 16.2990608215332 8 8 16.2990608215332 8 26.5 C 8 36.7009391784668 16.2990608215332 45 26.5 45 C 36.7009391784668 45 45 36.7009391784668 45 26.5 C 45 16.2990608215332 36.7009391784668 8 26.5 8 M 26.5 0 C 41.13553619384766 0 53 11.86445999145508 53 26.5 C 53 41.13553619384766 41.13553619384766 53 26.5 53 C 11.86445999145508 53 0 41.13553619384766 0 26.5 C 0 11.86445999145508 11.86445999145508 0 26.5 0 Z"/></g><path class="b" d="M-30.624-17.376l-13.2-18.816h11.232l6.72,9.888,6.672-9.888H-7.968L-21.216-17.376V0h-9.408ZM8.64-15.888a5.227,5.227,0,0,0-1.776-2.928A4.975,4.975,0,0,0,3.6-19.92,4.976,4.976,0,0,0,.312-18.864,4.78,4.78,0,0,0-1.3-15.888Zm-10.176,5.04q0,5.616,5.28,5.616a4.716,4.716,0,0,0,4.272-2.3h8.4Q13.872.912,3.7.912A16.711,16.711,0,0,1-2.016-.024a12.75,12.75,0,0,1-4.44-2.664A11.874,11.874,0,0,1-9.312-6.816a13.758,13.758,0,0,1-1.008-5.376,15.209,15.209,0,0,1,.96-5.544,11.66,11.66,0,0,1,2.736-4.2,12.122,12.122,0,0,1,4.3-2.664,16.25,16.25,0,0,1,5.688-.936,15.9,15.9,0,0,1,5.616.936A11.367,11.367,0,0,1,13.2-21.888a11.785,11.785,0,0,1,2.64,4.344,17.207,17.207,0,0,1,.912,5.784v.912Zm39.552-7.44a10.152,10.152,0,0,0-4.7-1.248,3.534,3.534,0,0,0-1.944.48,1.475,1.475,0,0,0-.744,1.3,1.7,1.7,0,0,0,.12.7,1.239,1.239,0,0,0,.528.5,4.579,4.579,0,0,0,1.2.432q.792.192,2.088.48a9.974,9.974,0,0,1,5.376,2.568,6.543,6.543,0,0,1,1.776,4.728,8.574,8.574,0,0,1-.864,3.888,8.269,8.269,0,0,1-2.4,2.9,11.407,11.407,0,0,1-3.7,1.824A16.487,16.487,0,0,1,30,.912,19.312,19.312,0,0,1,20.16-1.92l3.168-6.144a12.377,12.377,0,0,0,6.912,2.5A3.4,3.4,0,0,0,32.208-6.1a1.579,1.579,0,0,0,.768-1.344,2.23,2.23,0,0,0-.12-.792,1.291,1.291,0,0,0-.5-.576,4.017,4.017,0,0,0-1.128-.48Q30.48-9.5,29.28-9.744q-4.032-.816-5.64-2.424a6,6,0,0,1-1.608-4.44,8.739,8.739,0,0,1,.768-3.72,7.7,7.7,0,0,1,2.208-2.808,10.35,10.35,0,0,1,3.48-1.776,15.468,15.468,0,0,1,4.536-.624,20.582,20.582,0,0,1,7.92,1.584Z" transform="translate(553 479)"/></g></svg>